<svg xmlns="http://www.w3.org/2000/svg" xmlns:xlink="http://www.w3.org/1999/xlink" version="1.1" width="1000" height="1000" viewBox="0 0 1000 1000" xml:space="preserve">
<desc>Created with Fabric.js 3.5.0</desc>
<defs>
</defs>
<rect x="0" y="0" width="100%" height="100%" fill="rgba(255,255,255,0)"/>
<g transform="matrix(0.9091 0 0 0.9091 121.1287 205.6636)" id="832196">
<rect style="stroke: none; stroke-width: 1; stroke-dasharray: none; stroke-linecap: butt; stroke-dashoffset: 0; stroke-linejoin: miter; stroke-miterlimit: 4; is-custom-font: none; font-file-url: none; fill: rgb(255,255,255); fill-opacity: 0; fill-rule: nonzero; opacity: 1;" x="-50" y="-50" rx="0" ry="0" width="100" height="100"/>
</g>
<g transform="matrix(1.8958 0 0 1.8958 499.9917 499.995)" id="755570">
<g style="">
		<g transform="matrix(0.0375 0 0 0.0375 136.5228 -30.5327)" id="Angkasa_x0020_Pura_x0020_I.cdr">
<path style="stroke: none; stroke-width: 1; stroke-dasharray: none; stroke-linecap: butt; stroke-dashoffset: 0; stroke-linejoin: miter; stroke-miterlimit: 4; is-custom-font: none; font-file-url: none; fill: rgb(115,115,115); fill-rule: evenodd; opacity: 1;" vector-effect="non-scaling-stroke" transform=" translate(-9957.5, -14011.9814)" d="M 10221 12499 c -591 1249 -1083 2407 -1970 2941 c -53 31 -105 59 -158 84 c 638 15 1287 -145 1874 -498 c 544 -327 966 -778 1254 -1295 c 215 -399 408 -809 601 -1220 c -534 28 -1067 11 -1601 -12 z" stroke-linecap="round"/>
</g>
		<g transform="matrix(0.0375 0 0 0.0375 66.0855 -39.1421)" id="Angkasa_x0020_Pura_x0020_I.cdr">
<path style="stroke: none; stroke-width: 1; stroke-dasharray: none; stroke-linecap: butt; stroke-dashoffset: 0; stroke-linejoin: miter; stroke-miterlimit: 4; is-custom-font: none; font-file-url: none; fill: rgb(115,115,115); fill-rule: evenodd; opacity: 1;" vector-effect="non-scaling-stroke" transform=" translate(-8082.5, -13783.4682)" d="M 10961 11070 c -1355 -67 -3060 -159 -4409 652 c -2024 1215 -1726 3627 -3030 4795 c 2457 303 1976 -2616 3649 -3621 c 851 -512 1873 -448 3050 -397 c 6 0 13 0 20 1 c 527 23 1053 39 1581 11 c 289 -615 543 -1151 821 -1474 c -415 94 -1005 66 -1682 33 z" stroke-linecap="round"/>
</g>
		<g transform="matrix(0.0375 0 0 0.0375 -136.3569 30.6006)" id="Angkasa_x0020_Pura_x0020_I.cdr">
<path style="stroke: none; stroke-width: 1; stroke-dasharray: none; stroke-linecap: butt; stroke-dashoffset: 0; stroke-linejoin: miter; stroke-miterlimit: 4; is-custom-font: none; font-file-url: none; fill: rgb(115,115,115); fill-rule: evenodd; opacity: 1;" vector-effect="non-scaling-stroke" transform=" translate(-2686, -15641.0186)" d="M 2423 17154 c 590 -1249 1082 -2407 1970 -2941 c 52 -31 105 -59 158 -84 c -638 -15 -1288 145 -1875 498 c -543 327 -966 778 -1253 1295 c -216 399 -409 809 -602 1220 c 535 -28 1068 -11 1602 12 z" stroke-linecap="round"/>
</g>
		<g transform="matrix(0.0375 0 0 0.0375 -66.0856 39.1422)" id="Angkasa_x0020_Pura_x0020_I.cdr">
<path style="stroke: none; stroke-width: 1; stroke-dasharray: none; stroke-linecap: butt; stroke-dashoffset: 0; stroke-linejoin: miter; stroke-miterlimit: 4; is-custom-font: none; font-file-url: none; fill: rgb(115,115,115); fill-rule: evenodd; opacity: 1;" vector-effect="non-scaling-stroke" transform=" translate(-4560.5, -15869.5318)" d="M 1682 18583 c 1356 67 3060 159 4410 -652 c 2023 -1215 1725 -3627 3029 -4795 c -2457 -303 -1975 2616 -3649 3621 c -851 512 -1873 448 -3049 397 c -7 0 -14 0 -20 -1 c -528 -23 -1054 -39 -1582 -11 c -289 615 -542 1151 -821 1474 c 415 -94 1005 -66 1682 -33 z" stroke-linecap="round"/>
</g>
</g>
</g>
</svg>