<svg xmlns="http://www.w3.org/2000/svg" xmlns:xlink="http://www.w3.org/1999/xlink" version="1.1" width="1000" height="1000" viewBox="0 0 1000 1000" xml:space="preserve">
<desc>Created with Fabric.js 3.5.0</desc>
<defs>
</defs>
<rect x="0" y="0" width="100%" height="100%" fill="rgba(255,255,255,0)"/>
<g transform="matrix(1.6992 0 0 1.6992 499.9905 499.9915)" id="472692">
<g style="" vector-effect="non-scaling-stroke">
		<g transform="matrix(1 0 0 1 0 0)" id="_1933520482544">
<polygon style="stroke: none; stroke-width: 1; stroke-dasharray: none; stroke-linecap: butt; stroke-dashoffset: 0; stroke-linejoin: miter; stroke-miterlimit: 4; is-custom-font: none; font-file-url: none; fill: rgb(245,245,245); fill-rule: evenodd; opacity: 1;" points="0.5,-240 133.5,-148 267.5,-57 216.5,92 165.5,240 0.5,240 -165.5,240 -216.5,92 -267.5,-57 -133.5,-148 "/>
</g>
		<g transform="matrix(1 0 0 1 0 0)" id="_1933520482544">
<polygon style="stroke: none; stroke-width: 1; stroke-dasharray: none; stroke-linecap: butt; stroke-dashoffset: 0; stroke-linejoin: miter; stroke-miterlimit: 4; is-custom-font: none; font-file-url: none; fill: rgb(245,245,245); fill-rule: evenodd; opacity: 1;" points="0.5,-218 121.5,-135 243.5,-52 196.5,83 150.5,218 0.5,218 -150.5,218 -196.5,83 -243.5,-52 -121.5,-135 "/>
</g>
		<g transform="matrix(1 0 0 1 -97.6079 -0.7254)" id="_1933520482544">
<path style="stroke: none; stroke-width: 1; stroke-dasharray: none; stroke-linecap: butt; stroke-dashoffset: 0; stroke-linejoin: miter; stroke-miterlimit: 4; is-custom-font: none; font-file-url: none; fill: rgb(115,115,115); fill-rule: evenodd; opacity: 1;" transform=" translate(-169.8921, -239.2746)" d="M 175 358 c -3 1 -6 2 -8 4 c -8 -14 -15 -22 -23 -22 c -6 -1 -10 -1 -15 3 c -8 5 -16 1 -13 -8 c -7 -6 -4 -17 7 -16 c 6 -8 15 -3 15 7 c 0 4 3 8 8 10 c 2 1 2 0 1 -2 c -7 -14 -12 -22 -17 -23 c -6 -1 -10 -1 -12 1 c -10 7 -18 -2 -13 -10 c -5 -6 -3 -14 7 -12 c 2 -9 14 -6 15 3 c 1 7 -2 9 4 16 c 2 2 3 1 2 -3 c -1 -3 -1 -9 -3 -16 c -3 -9 -8 -15 -15 -16 c -3 -1 -5 1 -7 2 c -6 4 -15 -4 -8 -11 c -5 -7 0 -15 10 -10 c 5 -6 15 -1 12 8 c -2 5 -2 9 1 11 c 1 1 3 3 5 4 c -1 -8 -1 -16 0 -22 c 0 -2 -2 -5 -4 -9 c -5 -8 -8 -3 -15 -5 c -8 -2 -10 -11 -4 -15 c -5 -8 4 -15 12 -8 c 7 -4 15 2 12 11 c -3 6 -6 5 -4 12 c 0 1 1 3 2 5 c 1 1 1 1 2 -1 c 1 -8 2 -14 3 -19 c 1 -2 0 -5 -1 -7 c -2 -3 -3 -5 -4 -7 c -2 -3 -5 -5 -9 -6 c -6 -1 -7 -11 0 -13 c -2 -8 8 -12 14 -5 c 8 -1 11 8 6 12 c -4 4 -6 9 -5 16 c 1 3 3 3 3 0 c 1 -6 3 -12 7 -18 c 1 -2 0 -4 0 -6 c -1 -4 -1 -7 -2 -9 c 0 -4 -2 -6 -5 -7 c -8 -3 -6 -13 2 -13 c 0 -10 14 -10 15 -1 c 7 0 8 7 4 10 c -6 4 -10 8 -10 11 c -1 6 -1 8 0 6 c 6 -7 11 -12 15 -16 c 1 -2 2 -5 3 -8 c 0 -7 -2 -10 -7 -13 c -7 -5 -5 -16 5 -15 c 4 -8 14 -6 14 2 c 8 3 6 10 1 13 c -7 3 -11 8 -11 12 c 0 3 0 3 1 1 c 6 -6 12 -10 17 -14 c 1 -1 2 -3 2 -5 c 0 -6 0 -10 -1 -10 c -10 -5 -6 -18 6 -15 c 5 -10 17 -5 14 5 c 8 2 5 14 -3 15 c -5 0 -6 -1 -9 2 c -3 4 -5 5 -3 4 c 8 -3 15 -7 24 -10 c 3 -1 4 -5 4 -8 c 0 -8 12 -9 15 -3 c 10 -1 11 11 3 14 c 0 8 -9 10 -12 5 c -3 -4 -3 -7 -11 -5 c -8 3 -15 7 -24 13 c 14 1 17 -1 19 -5 c 3 -6 14 -5 13 3 c 9 2 7 11 0 12 c 1 7 -11 7 -13 2 c -6 -14 -26 -12 -39 3 c -2 3 -2 4 1 4 c 8 -1 12 -7 15 -12 c 2 -4 9 -4 11 2 c 10 -1 11 12 1 12 c 1 6 -8 9 -11 4 c -6 -7 -21 -5 -28 3 c -6 6 -9 11 -9 16 c 6 -2 10 -5 10 -11 c 2 -8 12 -12 14 -5 c 11 0 11 9 4 13 c 2 6 -8 10 -11 6 c -6 -6 -17 -3 -24 7 c -3 4 -4 10 -5 16 c 7 -2 9 -6 8 -12 c 0 -3 0 -5 1 -6 c 3 -4 9 -5 11 -1 c 9 -5 15 6 8 11 c 3 6 -4 13 -11 9 c -3 -2 -5 -3 -8 -2 c -8 3 -12 8 -13 15 c -1 4 -2 8 -3 14 c 6 -4 8 -7 7 -10 c -1 -4 -2 -6 -1 -8 c 2 -4 4 -5 8 -3 c 8 -6 16 1 11 9 c 4 3 2 8 -3 9 c -3 2 -6 1 -9 0 c -1 -1 -3 -1 -4 0 c -6 4 -9 8 -9 12 c 0 4 0 9 1 15 c 0 3 2 3 3 0 c 3 -4 3 -8 1 -11 c -4 -7 2 -13 8 -11 c 9 -7 18 2 12 9 c 5 2 1 10 -5 9 c -6 -1 -9 0 -13 4 c -4 4 -6 7 -4 19 c 2 13 4 17 6 12 c 2 -6 3 -9 0 -10 c -8 -7 -7 -15 1 -16 c 5 -9 16 -6 16 3 c 8 1 6 13 -2 14 c -5 0 -8 1 -10 5 c -3 6 -4 11 -1 18 c 8 15 11 20 12 15 c 0 -4 -1 -7 -3 -9 c -9 -8 -8 -16 1 -15 c 4 -12 16 -9 15 1 c 8 2 7 10 -2 15 c -5 2 -8 5 -8 10 c -1 3 1 6 4 9 c 4 4 8 8 12 11 z" stroke-linecap="round"/>
</g>
		<g transform="matrix(1 0 0 1 92.293 2)" id="_1933520482544">
<path style="stroke: none; stroke-width: 1; stroke-dasharray: none; stroke-linecap: butt; stroke-dashoffset: 0; stroke-linejoin: miter; stroke-miterlimit: 4; is-custom-font: none; font-file-url: none; fill: rgb(115,115,115); fill-rule: evenodd; opacity: 1;" transform=" translate(-359.793, -242)" d="M 363 364 c 2 -4 2 -6 1 -7 c 2 -3 5 -5 7 -8 l 0 -1 c -11 -1 -13 -17 -5 -26 c 1 1 1 2 1 4 c -1 3 1 6 3 8 c 4 4 4 9 3 12 c 0 1 0 1 0 1 c 2 -3 4 -5 6 -8 c -9 0 -13 -15 -8 -25 c 1 1 1 2 1 4 c 0 3 2 5 4 7 c 3 4 5 8 4 12 c 0 0 0 0 0 0 c 2 -2 3 -4 5 -7 c -1 0 -1 -1 -1 -1 c -8 0 -13 -16 -8 -26 c 1 1 1 3 1 5 c 0 3 2 5 4 7 c 3 4 5 7 4 12 c 0 0 0 1 1 1 c 1 -2 3 -4 4 -7 c -1 -1 -1 -2 -1 -2 c -9 0 -14 -15 -10 -25 c 1 1 1 2 1 4 c 1 3 2 5 4 7 c 4 4 6 7 5 11 c 0 1 1 2 2 3 c 1 -3 3 -6 4 -9 c -1 0 -1 -1 -1 -1 c -9 1 -15 -14 -12 -24 c 1 1 1 2 2 4 c 0 3 2 5 4 7 c 4 3 6 6 6 10 c 0 1 1 2 2 2 c 1 -3 2 -7 3 -10 c 0 -1 0 -1 0 -1 c -8 3 -16 -11 -15 -22 c 1 0 1 2 2 4 c 1 2 3 4 6 6 c 4 2 7 6 7 10 c 0 0 0 0 1 1 c 1 -4 1 -7 2 -10 c -1 -1 -1 -1 -1 -1 c -8 3 -17 -11 -16 -23 c 1 1 1 3 2 4 c 1 3 4 5 6 6 c 5 3 7 6 8 10 c 0 1 1 1 1 2 c 1 -4 1 -7 1 -10 c 0 -1 1 -1 1 -1 c -1 -1 -1 -1 -1 -1 c -7 4 -18 -9 -19 -21 c 2 1 2 2 3 4 c 2 3 4 4 7 5 c 4 2 7 5 8 9 c 1 1 1 1 2 2 c 0 -4 0 -7 0 -11 c -1 0 -2 0 -2 -1 c -7 5 -19 -7 -21 -18 c 2 0 2 2 4 3 c 1 3 4 4 7 5 c 4 1 8 4 9 8 c 1 0 2 1 3 1 c -1 -3 -1 -6 -1 -9 c 0 0 0 -1 -1 -1 c -6 6 -20 -5 -23 -17 c 1 0 2 2 3 3 c 3 3 5 4 8 4 c 6 1 9 4 12 8 c 0 0 0 0 0 0 c 0 -3 -1 -6 -1 -9 c -1 0 -1 0 -1 -1 c -7 7 -21 -4 -25 -16 c 1 1 2 2 4 3 c 2 3 5 4 8 4 c 5 1 9 3 12 7 c 0 0 1 1 1 1 c -1 -4 -2 -7 -3 -10 c 0 -1 0 -1 -1 -1 c -5 7 -21 -2 -26 -14 c 1 1 3 2 4 3 c 3 2 6 3 9 3 c 5 0 9 2 12 6 c 0 0 1 0 2 0 c -2 -3 -3 -7 -5 -10 l 0 0 c -4 7 -21 1 -28 -10 c 1 0 3 1 5 2 c 3 2 6 2 8 2 c 6 -1 10 0 14 3 c 0 0 0 1 0 1 c -1 -3 -2 -6 -4 -8 c -4 7 -21 1 -28 -10 c 2 0 3 1 5 2 c 3 2 6 2 9 2 c 5 -1 9 0 13 3 c 0 1 0 1 0 1 c -1 -3 -3 -6 -5 -8 c -4 6 -21 1 -28 -7 c 1 0 3 1 5 1 c 3 2 6 2 9 1 c 5 -1 9 -1 12 1 c -1 -1 -2 -3 -4 -5 c 0 0 -1 0 -1 0 c -4 7 -21 3 -29 -6 c 2 0 3 1 5 2 c 3 1 6 1 9 0 c 5 -1 10 -1 13 2 c 1 0 1 0 2 0 c -2 -2 -4 -5 -7 -7 c -1 0 -2 0 -3 0 c -3 7 -19 5 -27 -2 c 1 0 2 0 4 1 c 3 0 6 0 9 -1 c 4 -2 9 -1 12 1 c 1 0 2 0 4 -1 c -2 -1 -3 -3 -5 -4 c -1 0 -2 0 -2 0 c -6 4 -23 4 -27 0 c 2 -1 3 -1 4 -1 c 3 1 5 -1 7 -2 c 4 -2 10 -1 13 1 c 1 0 3 0 4 0 c -2 -2 -4 -4 -7 -5 c 0 0 -1 0 -2 0 c -5 4 -23 5 -26 1 c 1 0 2 -1 4 -1 c 3 0 4 -1 6 -3 c 5 -2 10 -1 14 1 c 0 0 1 0 3 0 c -4 -3 -7 -5 -10 -7 c -1 0 -1 0 -2 0 c -1 7 -17 8 -25 3 c 1 -1 2 0 4 0 c 3 0 5 -1 8 -2 c 4 -3 8 -3 11 -2 c 1 0 1 0 2 0 c -2 -2 -5 -3 -7 -5 c -1 0 -2 1 -2 1 c -2 6 -19 7 -27 2 c 1 -1 2 -1 4 0 c 3 0 6 -1 8 -2 c 5 -2 9 -3 13 -1 c 0 0 1 0 2 -1 c -2 -1 -3 -2 -5 -3 c 0 0 0 0 0 0 c -1 0 -1 0 -2 0 c -1 0 -2 0 -2 0 c -2 4 -16 4 -24 1 c 1 -1 2 0 4 0 c 3 0 5 0 7 -1 c 4 -1 8 -2 11 -1 c 0 0 1 0 2 0 c -1 -1 -2 -1 -3 -1 c -4 1 -9 0 -13 -4 c -2 -1 -5 -3 -8 -3 c -2 0 -4 0 -5 0 c 10 -5 27 -3 28 6 c 1 0 2 0 4 1 c 0 0 0 0 0 0 c 0 0 1 -1 1 -1 c 0 -1 -1 -1 -1 -1 c -3 -1 -5 -4 -6 -9 c 0 -3 -1 -5 -3 -7 c -1 -1 -2 -1 -3 -2 c 11 0 20 10 15 18 c 0 0 0 0 0 1 c 0 0 1 0 2 0 c 1 1 3 2 4 3 c 0 -1 0 -1 0 -1 c -3 -2 -4 -5 -3 -10 c 1 -2 1 -4 -1 -6 c -1 -1 -1 -2 -1 -3 c 9 3 14 14 7 20 c 0 0 0 1 0 1 c 3 2 5 4 8 6 c 0 -1 0 -2 0 -2 c -3 -2 -4 -6 -2 -11 c 0 -2 1 -5 -1 -7 c 0 -1 -1 -2 -1 -3 c 9 4 13 17 5 22 c 1 0 1 1 1 2 c 2 2 5 4 7 6 c 0 -1 0 -1 0 -1 c -2 -3 -3 -7 -1 -12 c 1 -3 1 -6 0 -8 c -1 -2 -1 -3 -1 -4 c 8 5 11 20 4 25 c 0 0 0 1 0 1 c 2 2 4 4 6 6 c 0 -2 1 -2 0 -3 c -2 -3 -2 -7 0 -11 c 1 -3 2 -5 1 -8 c 0 -2 -1 -3 -1 -4 c 9 6 11 21 2 25 c 0 0 0 1 0 2 c 2 2 4 4 6 6 c 0 0 0 -1 0 -1 c -3 -3 -2 -7 1 -12 c 1 -3 2 -6 1 -8 c 0 -2 -1 -3 0 -5 c 9 7 10 23 0 27 c 0 0 0 1 0 1 c 2 3 4 5 7 8 c 0 0 0 0 0 -1 c -3 -3 -2 -7 1 -12 c 2 -3 3 -6 2 -9 c 0 -1 -1 -3 0 -4 c 8 7 9 23 -2 27 c 0 0 0 1 0 1 c 2 3 4 5 6 8 c 0 -1 0 -2 0 -2 c -2 -3 -1 -7 2 -12 c 2 -2 4 -5 3 -8 c 0 -1 -1 -3 0 -4 c 8 7 7 23 -3 26 c 0 0 0 1 -1 2 c 1 1 2 2 2 3 c 1 2 2 3 3 5 c 1 -1 1 -1 1 -2 c -1 -3 0 -7 4 -10 c 2 -2 4 -4 4 -7 c 0 -2 0 -3 0 -4 c 7 8 3 22 -7 23 c 0 1 0 1 -1 2 c 2 3 3 6 5 9 c 0 -1 1 -2 1 -2 c -1 -4 0 -7 4 -10 c 3 -2 4 -4 4 -7 c 0 -1 0 -3 1 -4 c 6 9 2 22 -8 23 c 0 0 -1 1 -1 2 c 1 3 2 7 3 10 c 1 -1 1 -2 2 -2 c -1 -4 0 -7 5 -10 c 2 -2 4 -4 4 -6 c 0 -2 0 -3 1 -4 c 5 9 0 22 -10 22 c 0 0 0 1 -1 2 c 1 3 2 6 3 9 c 0 0 1 -1 1 -1 c -1 -4 1 -7 6 -10 c 2 -1 4 -3 5 -5 c 0 -2 0 -3 1 -4 c 4 9 -2 22 -11 21 c -1 0 -1 1 -2 2 c 1 2 1 5 2 8 c 0 0 0 -1 0 -1 c 1 -3 3 -6 8 -8 c 2 -1 4 -2 5 -5 c 1 -1 1 -3 2 -3 c 3 10 -5 21 -14 18 c -1 1 -1 1 -1 1 c 0 4 1 8 1 13 c 1 -1 1 -1 1 -2 c 0 -3 3 -6 8 -8 c 3 -1 5 -3 6 -5 c 1 -2 1 -3 2 -4 c 3 10 -5 22 -15 19 c -1 1 -1 2 -2 2 c 0 4 0 8 0 12 c 1 -1 1 -1 2 -2 c 0 -3 2 -6 8 -7 c 2 -1 5 -2 6 -5 c 0 -1 1 -2 2 -3 c 3 9 -6 20 -16 17 c -1 1 -1 1 -3 2 c 0 3 0 6 -1 9 c 1 0 2 -1 2 -1 c 1 -3 4 -6 9 -6 c 3 -1 5 -2 7 -4 c 1 -1 1 -2 2 -2 c 1 9 -9 18 -18 14 c 0 0 -1 1 -2 1 c -1 3 -1 6 -2 9 c 1 0 2 -1 2 -1 c 2 -4 5 -5 10 -5 c 3 0 5 -1 7 -3 c 1 -1 2 -2 3 -3 c -1 11 -13 20 -20 13 c -1 1 -2 1 -3 2 c -1 3 -2 7 -3 10 c 0 0 1 0 1 0 c 2 -4 5 -6 11 -6 c 3 0 6 -1 8 -3 c 1 -1 2 -2 3 -3 c -1 12 -14 21 -22 14 c -1 0 -2 1 -2 1 c -1 2 -2 5 -4 7 c 1 0 1 0 1 0 c 2 -3 6 -5 11 -4 c 3 1 6 0 9 -1 c 1 -2 2 -3 4 -3 c -3 11 -18 18 -25 11 c 0 0 -1 0 -1 0 c -1 2 -2 5 -4 7 c 1 0 1 0 1 0 c 2 -3 6 -4 12 -3 c 3 1 5 1 8 0 c 1 -1 2 -2 4 -2 c -4 11 -19 16 -25 7 c 0 0 -1 0 -1 0 c -1 3 -3 6 -5 8 c 1 0 1 0 2 0 c 2 -3 6 -4 12 -2 c 3 0 6 1 8 -1 c 2 -1 3 -2 4 -2 c -4 11 -19 16 -25 7 c -1 0 -2 0 -2 1 c -2 1 -3 3 -4 4 c 3 -1 6 0 10 1 c 3 2 6 2 9 1 c 2 -1 3 -2 5 -1 c -6 10 -22 14 -29 5 c -3 4 -7 8 -11 12 z" stroke-linecap="round"/>
</g>
		<g transform="matrix(1 0 0 1 0 -125.5)" id="_1933520482544">
<polygon style="stroke: none; stroke-width: 1; stroke-dasharray: none; stroke-linecap: butt; stroke-dashoffset: 0; stroke-linejoin: miter; stroke-miterlimit: 4; is-custom-font: none; font-file-url: none; fill: rgb(115,115,115); fill-rule: evenodd; opacity: 1;" points="0.5,-32.5 8.5,-7.5 35.5,-7.5 13.5,7.5 22.5,32.5 0.5,17.5 -22.5,32.5 -13.5,7.5 -35.5,-7.5 -8.5,-7.5 "/>
</g>
		<g transform="matrix(1 0 0 1 0 0)" id="_1933520482544">
<path style="stroke: none; stroke-width: 1; stroke-dasharray: none; stroke-linecap: butt; stroke-dashoffset: 0; stroke-linejoin: miter; stroke-miterlimit: 4; is-custom-font: none; font-file-url: none; fill: rgb(245,245,245); fill-rule: evenodd; opacity: 1;" transform=" translate(-267.5, -240)" d="M 268 22 l 121 83 l 122 83 l -47 135 l -46 135 l -150 0 l -151 0 l -46 -135 l -47 -135 l 122 -83 l 122 -83 z m -149 355 c -10 2 -17 7 -20 16 c 13 -2 25 0 34 6 c 12 7 19 8 22 2 c 2 -4 -1 -9 -10 -16 c -4 -4 -4 -9 1 -13 l 12 -9 c -23 -10 -43 -13 -61 -7 c 10 6 18 13 22 21 z m 297 0 c 10 2 17 7 20 16 c -13 -2 -25 0 -34 6 c -12 7 -19 8 -22 2 c -2 -4 1 -9 10 -16 c 4 -4 4 -9 -1 -13 l -11 -9 c 22 -10 42 -13 60 -7 c -10 6 -17 13 -22 21 z m -49 16 l 11 11 c 2 2 5 3 9 3 c 0 0 0 0 1 0 c 4 0 9 -2 15 -6 c 4 -3 10 -5 15 -6 c 6 -1 12 -1 18 0 l 2 0 l -22 61 l -148 0 l -149 0 l -22 -61 l 2 0 c 7 -1 13 -1 18 0 c 6 1 11 3 15 6 c 6 4 11 6 15 6 c 1 0 1 0 2 0 c 3 0 6 -1 8 -3 l 11 -11 c 10 7 20 12 31 17 c 20 8 44 13 69 13 c 24 0 48 -5 68 -13 c 11 -5 22 -10 31 -17 z m 71 0 l 0 -1 c -2 -5 -4 -8 -8 -11 c -3 -2 -7 -4 -11 -5 c 2 -3 4 -6 7 -9 c 4 -3 8 -6 13 -9 l 4 -2 l -4 -2 c -9 -3 -19 -3 -29 -2 c -11 1 -22 4 -33 9 l -1 1 l -20 -17 c 0 -1 -5 -5 -10 0 c -11 9 -23 16 -36 21 c -13 5 -28 7 -42 7 c -15 0 -29 -2 -42 -7 c -14 -5 -26 -12 -37 -21 c -5 -5 -9 -1 -10 0 l -20 17 l -1 -1 c -11 -5 -22 -8 -32 -9 c -11 -1 -20 -1 -30 2 l -4 2 l 4 2 c 5 3 9 6 13 9 c 3 3 5 6 7 9 c -4 1 -8 3 -11 5 c -3 3 -6 6 -8 11 l 0 1 l -24 -70 l -46 -134 l 120 -82 l 121 -83 l 120 83 l 120 82 l -46 134 l -24 70 z m -52 -20 c -24 28 -68 48 -118 48 c -51 0 -94 -19 -119 -48 l 31 -26 c 0 0 3 -4 8 0 c 21 18 49 28 80 28 c 30 0 58 -11 79 -28 c 5 -5 8 0 8 0 l 31 26 z" stroke-linecap="round"/>
</g>
		<g transform="matrix(1 0 0 1 0 30.6762)" id="_1933520482544">
<path style="stroke: none; stroke-width: 1; stroke-dasharray: none; stroke-linecap: butt; stroke-dashoffset: 0; stroke-linejoin: miter; stroke-miterlimit: 4; is-custom-font: none; font-file-url: none; fill: rgb(115,115,115); fill-rule: evenodd; opacity: 1;" transform=" translate(-267.5, -270.6762)" d="M 389 372 l -11 -9 c 22 -10 42 -13 60 -7 c -10 6 -17 13 -22 21 c 10 2 17 7 20 16 c -13 -2 -25 0 -34 6 c -12 7 -19 8 -22 2 c -2 -4 1 -9 10 -16 c 4 -4 4 -9 -1 -13 z m -55 -96 l -55 28 l 0 -1 l 54 -28 l 0 -1 l -65 34 l 0 0 l -1 0 l -65 -34 l 0 1 l 54 28 l 0 1 l -55 -28 l -3 5 l 58 32 l 1 0 l -1 1 l -34 19 l 6 7 l 39 -22 l 1 0 l 0 0 l 39 22 l 6 -7 l -34 -19 l -1 -1 l 1 0 l 58 -32 l -3 -5 z m -56 29 l -7 4 l 0 -1 l 7 -4 l 0 1 z m -21 -1 l 7 4 l 0 1 l -7 -4 l 0 -1 z m -142 21 c -1 4 2 7 4 7 c 2 1 2 1 1 2 c -2 2 -1 7 3 7 c 5 1 6 -3 5 -5 c -2 -1 -1 -2 0 -1 c 2 1 5 1 6 -2 c 1 -3 0 -4 -4 -4 c -2 -1 -3 -3 -1 -3 c 3 1 5 1 5 -3 c 1 -4 -4 -5 -6 -4 c -2 0 -3 1 -3 2 c 0 2 -1 2 -2 1 c -4 -1 -7 1 -8 3 z m 124 -192 c -1 -4 -4 -4 -6 -3 c -1 1 -2 1 -2 -1 c 1 -2 -3 -4 -5 -2 c -4 2 -3 5 -1 5 c 2 0 2 1 1 1 c -2 0 -5 2 -4 4 c 1 2 3 3 6 1 c 1 -1 3 0 2 1 c -3 1 -4 2 -2 5 c 2 3 6 1 7 -1 c 0 -1 1 -2 0 -3 c -1 -1 0 -2 1 -2 c 3 -1 4 -3 3 -5 z m -14 25 c 0 -4 -3 -5 -5 -5 c -1 0 -2 0 -2 -1 c 2 -2 -1 -5 -4 -5 c -4 1 -4 5 -2 5 c 1 1 1 2 0 2 c -2 -1 -5 0 -4 2 c 0 3 1 4 5 3 c 1 -1 3 1 1 1 c -3 1 -4 2 -3 5 c 1 3 5 2 6 1 c 1 -1 2 -2 2 -3 c -1 -1 0 -1 1 -1 c 4 0 5 -2 5 -4 z m -25 -37 c -4 -2 -7 1 -8 4 c 0 1 -1 1 -2 0 c -1 -2 -7 -1 -7 2 c 0 5 4 6 5 5 c 2 -1 3 -1 2 0 c -2 2 -2 5 1 6 c 4 1 5 0 5 -4 c 1 -2 3 -2 3 0 c -1 3 0 4 4 5 c 4 0 5 -4 4 -6 c -1 -1 -2 -2 -3 -2 c -1 -1 -2 -2 -1 -3 c 2 -3 0 -6 -3 -7 z m -29 14 c -5 -1 -6 2 -7 5 c 0 1 0 2 -1 0 c -2 -1 -7 0 -7 4 c 1 4 5 5 6 4 c 1 -2 2 -1 1 0 c -1 1 0 5 2 5 c 4 0 5 -1 4 -5 c 0 -1 3 -2 3 0 c -1 3 0 4 4 4 c 4 0 4 -4 2 -7 c 0 -1 -1 -1 -2 -1 c -2 0 -2 -1 -2 -3 c 1 -3 -1 -5 -3 -6 z m 31 33 c 0 -4 -4 -4 -6 -3 c -1 0 -2 0 -1 -1 c 0 -2 -2 -5 -5 -3 c -4 1 -3 4 -2 5 c 2 0 2 1 1 1 c -2 0 -5 1 -4 3 c 1 3 2 3 6 2 c 1 -1 3 0 1 1 c -3 1 -4 2 -2 4 c 2 3 5 2 7 0 c 0 -1 1 -2 0 -3 c 0 -1 0 -1 2 -1 c 3 -1 4 -3 3 -5 z m -58 -10 c -4 0 -5 4 -4 6 c 0 1 0 2 -2 2 c -2 -1 -6 2 -4 5 c 1 4 5 3 6 2 c 0 -2 1 -2 1 -1 c 0 2 1 5 4 5 c 3 -1 4 -2 2 -6 c 0 -2 1 -3 2 -2 c 1 3 2 5 5 3 c 4 -1 3 -5 0 -7 c -1 -1 -2 -1 -3 -1 c -1 1 -2 0 -2 -1 c 0 -4 -3 -5 -5 -5 z m 36 30 c -1 -4 -5 -4 -7 -3 c -1 1 -2 1 -2 -1 c 1 -2 -3 -4 -5 -2 c -4 2 -2 5 -1 5 c 2 1 2 1 1 2 c -2 0 -4 2 -3 4 c 1 2 3 3 6 1 c 1 -1 3 0 1 1 c -2 1 -3 2 -1 5 c 2 3 5 1 6 -1 c 1 -2 1 -3 1 -3 c -1 -1 -1 -2 1 -3 c 3 -1 3 -3 3 -5 z m -57 0 c -4 1 -4 5 -3 7 c 1 1 1 2 -1 2 c -3 0 -6 3 -3 7 c 2 4 6 2 6 0 c 1 -2 2 -2 2 -1 c 0 3 2 5 5 4 c 3 -1 3 -3 0 -6 c -1 -2 1 -4 2 -3 c 2 4 3 4 6 2 c 3 -2 1 -6 -1 -7 c -2 -1 -3 -1 -4 -1 c -1 1 -2 1 -2 -1 c -1 -3 -5 -4 -7 -3 z m 43 20 c -3 -4 -6 -2 -8 -1 c 0 1 -1 2 -1 0 c -1 -2 -5 -4 -7 -1 c -2 4 0 6 2 6 c 2 -1 2 0 1 1 c -2 0 -4 3 -2 5 c 2 2 4 2 6 -1 c 1 -2 3 -1 2 0 c -2 2 -3 4 0 6 c 3 2 6 -1 6 -4 c 0 -1 0 -2 -1 -3 c -1 0 -1 -1 1 -2 c 2 -2 2 -5 1 -6 z m -58 12 c -4 3 -2 7 0 9 c 1 1 1 2 0 2 c -3 1 -4 6 -1 8 c 4 3 7 0 7 -2 c -1 -3 0 -3 1 -2 c 1 2 4 4 6 2 c 2 -3 2 -4 -2 -7 c -1 -1 -1 -4 1 -2 c 3 2 4 2 6 -1 c 2 -4 -1 -7 -4 -7 c -2 0 -3 0 -4 1 c 0 1 -1 1 -2 0 c -3 -3 -6 -2 -8 -1 z m 45 11 c -3 -2 -6 0 -7 2 c 0 1 -1 2 -2 1 c -1 -2 -5 -2 -6 1 c -1 4 2 6 3 5 c 2 -1 2 -1 1 0 c -1 1 -2 4 1 6 c 2 1 3 0 4 -3 c 1 -2 3 -2 3 -1 c -2 3 -2 5 2 6 c 3 1 5 -3 4 -5 c 0 -2 -1 -3 -2 -3 c -1 0 -1 -1 0 -2 c 2 -3 1 -5 -1 -7 z m 0 24 c -4 -3 -7 0 -8 2 c 0 1 -1 1 -1 0 c -1 -2 -6 -2 -7 1 c -1 4 2 6 3 5 c 2 -1 3 0 2 1 c -2 1 -3 4 0 5 c 2 1 4 0 5 -3 c 1 -2 3 -2 2 0 c -1 3 -1 4 2 5 c 4 1 6 -3 5 -5 c 0 -1 -1 -2 -2 -3 c -1 0 -1 -1 0 -2 c 2 -3 1 -5 -1 -6 z m -52 1 c -3 3 -1 7 2 8 c 1 1 1 1 -1 2 c -2 1 -3 6 1 7 c 4 2 6 -1 6 -3 c -1 -1 0 -2 0 -1 c 1 2 4 3 6 1 c 2 -3 1 -4 -2 -6 c -2 -1 -2 -3 0 -2 c 3 1 4 1 6 -2 c 1 -4 -2 -6 -5 -6 c -1 0 -2 1 -3 2 c 0 1 -1 1 -3 0 c -2 -3 -5 -2 -7 0 z m 49 21 c -5 0 -6 3 -6 6 c 0 1 0 2 -2 1 c -2 -1 -6 1 -5 4 c 0 5 4 6 5 4 c 1 -2 2 -1 2 0 c -1 2 0 5 3 5 c 3 0 4 -1 3 -5 c 0 -2 2 -3 2 -2 c 0 4 1 5 5 5 c 4 -1 4 -6 2 -8 c -1 -1 -2 -2 -3 -1 c -1 0 -2 -1 -2 -3 c 1 -3 -2 -5 -4 -6 z m -45 16 c -3 4 0 7 3 8 c 1 1 2 2 0 3 c -2 1 -2 6 2 7 c 5 2 7 -2 5 -4 c -1 -2 0 -2 1 -1 c 2 1 5 2 7 -1 c 1 -3 0 -4 -4 -6 c -2 0 -2 -3 0 -2 c 3 1 5 1 6 -3 c 1 -4 -3 -6 -6 -5 c -2 0 -3 1 -3 2 c -1 1 -2 2 -3 1 c -4 -2 -7 -1 -8 1 z m 57 15 c -4 -1 -5 2 -5 5 c 0 1 -1 2 -2 1 c -2 -2 -5 0 -5 3 c 1 5 4 5 5 3 c 1 -1 2 -1 2 0 c -1 2 0 5 2 5 c 3 0 4 -1 3 -5 c 0 -1 2 -2 2 -1 c 0 3 1 5 4 4 c 4 -1 4 -5 2 -7 c -1 -1 -2 -1 -3 -1 c -1 0 -1 -1 -1 -2 c 0 -3 -2 -5 -4 -5 z m -16 64 l 11 -9 c -22 -10 -42 -13 -60 -7 c 10 6 17 13 22 21 c -10 2 -17 7 -20 16 c 13 -2 25 0 34 6 c 12 7 19 8 22 2 c 2 -4 -1 -9 -10 -16 c -4 -4 -4 -9 1 -13 z m 240 1 c -24 28 -68 48 -119 48 c -50 0 -93 -19 -118 -48 l 31 -26 c 0 0 3 -4 8 0 c 21 18 49 28 79 28 c 31 0 59 -11 80 -28 c 5 -5 8 0 8 0 l 31 26 z" stroke-linecap="round"/>
</g>
		<g transform="matrix(1 0 0 1 -33 7)" id="_1933520482544">
<linearGradient id="SVGID_3" gradientUnits="userSpaceOnUse" gradientTransform="matrix(1 0 0 1 0 0)" x1="199.963" y1="239.56" x2="268.193" y2="254.064">
<stop offset="0%" style="stop-color:rgb(236,164,0);stop-opacity: 1"/>
<stop offset="23.1373%" style="stop-color:rgb(237,168,4);stop-opacity: 1"/>
<stop offset="34.902%" style="stop-color:rgb(243,198,39);stop-opacity: 1"/>
<stop offset="41.9608%" style="stop-color:rgb(236,164,0);stop-opacity: 1"/>
<stop offset="47.8431%" style="stop-color:rgb(245,205,46);stop-opacity: 1"/>
<stop offset="74.902%" style="stop-color:rgb(244,199,40);stop-opacity: 1"/>
<stop offset="90.1961%" style="stop-color:rgb(237,167,4);stop-opacity: 1"/>
<stop offset="100%" style="stop-color:rgb(236,164,0);stop-opacity: 1"/>
</linearGradient>
<path style="stroke: none; stroke-width: 1; stroke-dasharray: none; stroke-linecap: butt; stroke-dashoffset: 0; stroke-linejoin: miter; stroke-miterlimit: 4; is-custom-font: none; font-file-url: none; fill: url(#SVGID_3); fill-rule: evenodd; opacity: 1;" transform=" translate(-234.5, -247)" d="M 201 260 c 26 0 47 12 67 29 l 0 -67 c -15 -10 -31 -16 -48 -17 l -19 55 z" stroke-linecap="round"/>
</g>
		<g transform="matrix(1 0 0 1 34 7)" id="_1933520482544">
<linearGradient id="SVGID_4" gradientUnits="userSpaceOnUse" gradientTransform="matrix(1 0 0 1 0 0)" x1="267.056" y1="239.56" x2="335.288" y2="254.062">
<stop offset="0%" style="stop-color:rgb(236,164,0);stop-opacity: 1"/>
<stop offset="23.1373%" style="stop-color:rgb(237,168,4);stop-opacity: 1"/>
<stop offset="34.902%" style="stop-color:rgb(243,198,39);stop-opacity: 1"/>
<stop offset="41.9608%" style="stop-color:rgb(236,164,0);stop-opacity: 1"/>
<stop offset="47.8431%" style="stop-color:rgb(245,205,46);stop-opacity: 1"/>
<stop offset="74.902%" style="stop-color:rgb(244,199,40);stop-opacity: 1"/>
<stop offset="90.1961%" style="stop-color:rgb(237,167,4);stop-opacity: 1"/>
<stop offset="100%" style="stop-color:rgb(236,164,0);stop-opacity: 1"/>
</linearGradient>
<path style="stroke: none; stroke-width: 1; stroke-dasharray: none; stroke-linecap: butt; stroke-dashoffset: 0; stroke-linejoin: miter; stroke-miterlimit: 4; is-custom-font: none; font-file-url: none; fill: url(#SVGID_4); fill-rule: evenodd; opacity: 1;" transform=" translate(-301.5, -247)" d="M 335 260 c -27 0 -48 12 -67 29 l 0 -67 c 14 -10 30 -16 47 -17 l 20 55 z" stroke-linecap="round"/>
</g>
		<g transform="matrix(1 0 0 1 0.5 40)" id="_1933520482544">
<path style="stroke: none; stroke-width: 1; stroke-dasharray: none; stroke-linecap: butt; stroke-dashoffset: 0; stroke-linejoin: miter; stroke-miterlimit: 4; is-custom-font: none; font-file-url: none; fill: rgb(115,115,115); fill-rule: evenodd; opacity: 1;" transform=" translate(-268, -280)" d="M 201 260 l 1 13 c 26 2 45 11 57 27 l 17 0 c 12 -16 32 -25 58 -27 l 1 -13 c -27 0 -48 12 -67 29 c -20 -17 -41 -29 -67 -29 z" stroke-linecap="round"/>
</g>
		<g transform="matrix(1 0 0 1 -27.5 -1.625)" id="_1933520482544">
<path style="stroke: none; stroke-width: 1; stroke-dasharray: none; stroke-linecap: butt; stroke-dashoffset: 0; stroke-linejoin: miter; stroke-miterlimit: 4; is-custom-font: none; font-file-url: none; fill: rgb(245,245,245); fill-rule: evenodd; opacity: 1;" transform=" translate(-240, -238.375)" d="M 236 222 c -1 0 -2 0 -3 1 c 1 0 1 0 1 0 c 1 0 1 0 1 0 c 1 1 1 1 2 0 c 1 0 1 1 1 1 c 1 1 2 1 3 1 c 1 0 1 0 2 0 c 0 1 1 2 2 2 c 1 0 1 0 1 0 c 1 1 2 1 4 1 c 1 0 2 1 2 2 c 1 1 2 1 4 0 c -2 0 -3 -1 -4 -1 c 0 -2 -1 -2 -3 -1 c -1 0 -2 -1 -2 -2 c -1 -1 -2 -1 -3 -1 c -1 0 -1 0 -1 -1 c 0 -1 -1 -1 -3 0 c -1 0 -1 0 -1 -1 c -1 -1 -2 -1 -3 0 c 0 0 0 0 0 -1 z m -6 17 c 0 -1 -1 0 -2 0 c 0 0 1 0 1 0 c 0 0 1 0 1 1 c 0 0 1 0 2 0 c 1 0 1 0 1 1 c 1 1 2 1 3 0 c 1 0 2 0 2 1 c 0 1 1 1 3 1 c 0 0 0 1 1 1 c 0 1 2 1 3 1 c 1 0 2 0 3 1 c 0 1 2 1 3 1 c -1 0 -3 -1 -3 -2 c -1 -1 -2 -1 -3 -1 c -1 1 -2 0 -3 -1 c 0 -1 -1 -1 -3 -1 c 0 0 -1 -1 -1 -1 c 0 -1 -1 -1 -3 -1 c -1 0 -1 0 -1 0 c -1 -1 -2 -1 -3 -1 c 0 1 0 0 -1 0 z m -3 8 c -1 -1 -2 -1 -3 0 c 1 0 1 0 1 0 c 1 0 1 0 2 0 c 0 1 1 1 2 1 c 1 -1 1 0 1 0 c 1 1 2 1 4 1 c 1 0 1 0 2 1 c 0 1 1 1 3 1 c 0 0 1 0 1 1 c 1 1 2 1 4 0 c 1 0 2 1 3 2 c 1 1 2 1 4 0 c -2 0 -3 0 -4 -1 c -1 -2 -2 -2 -3 -1 c -2 0 -3 -1 -4 -2 c 0 -1 -1 -1 -3 -1 c -1 0 -1 0 -1 -1 c -1 0 -2 -1 -4 0 c 0 0 -1 0 -1 -1 c -1 -1 -2 0 -3 0 c 0 0 -1 0 -1 0 z m 6 -17 c 0 0 -1 0 -2 1 c 0 0 1 0 1 0 c 0 0 1 0 1 0 c 0 1 1 1 2 0 c 1 0 1 1 1 1 c 1 1 2 1 3 1 c 1 0 1 0 2 0 c 0 1 1 2 2 2 c 1 0 1 0 1 0 c 1 1 2 1 3 1 c 2 0 2 0 3 1 c 1 1 2 1 3 1 c -1 0 -3 -1 -3 -1 c -1 -2 -1 -2 -3 -2 c -1 1 -2 0 -3 -1 c 0 -1 -1 -1 -2 -1 c -1 0 -1 0 -1 -1 c -1 -1 -2 -1 -3 0 c -1 0 -1 -1 -1 -1 c -1 -1 -2 -1 -3 0 c 0 0 0 0 -1 -1 z" stroke-linecap="round"/>
</g>
		<g transform="matrix(1 0 0 1 28 -1.625)" id="_1933520482544">
<path style="stroke: none; stroke-width: 1; stroke-dasharray: none; stroke-linecap: butt; stroke-dashoffset: 0; stroke-linejoin: miter; stroke-miterlimit: 4; is-custom-font: none; font-file-url: none; fill: rgb(245,245,245); fill-rule: evenodd; opacity: 1;" transform=" translate(-295.5, -238.375)" d="M 300 222 c 0 0 1 0 2 1 c 0 0 -1 0 -1 0 c 0 0 -1 0 -1 0 c 0 1 -1 1 -2 0 c -1 0 -1 1 -1 1 c 0 1 -2 1 -3 1 c -1 0 -1 0 -1 0 c -1 1 -2 2 -3 2 c -1 0 -1 0 -1 0 c -1 1 -2 1 -3 1 c -2 0 -2 1 -3 2 c 0 1 -2 1 -3 0 c 1 0 3 -1 3 -1 c 1 -2 1 -2 3 -1 c 1 0 2 -1 3 -2 c 0 -1 1 -1 2 -1 c 1 0 1 0 1 -1 c 1 -1 2 -1 3 0 c 1 0 1 0 2 -1 c 0 -1 1 -1 2 0 c 0 0 0 0 1 -1 z m 5 17 c 1 -1 1 0 2 0 c 0 0 0 0 -1 0 c 0 0 0 0 -1 1 c 0 0 -1 0 -2 0 c -1 0 -1 0 -1 1 c -1 1 -2 1 -3 0 c -1 0 -1 0 -2 1 c 0 1 -1 1 -3 1 c 0 0 0 1 0 1 c -1 1 -2 1 -4 1 c -1 0 -2 0 -3 1 c 0 1 -2 1 -3 1 c 2 0 3 -1 3 -2 c 1 -1 2 -1 3 -1 c 2 1 3 0 3 -1 c 1 -1 2 -1 3 -1 c 1 0 1 -1 1 -1 c 0 -1 2 -1 3 -1 c 1 0 1 0 1 0 c 1 -1 2 -1 3 -1 c 0 1 0 0 1 0 z m 3 8 c 1 -1 2 -1 3 0 c -1 0 -1 0 -1 0 c -1 0 -1 0 -1 0 c -1 1 -2 1 -3 1 c -1 -1 -1 0 -1 0 c -1 1 -2 1 -4 1 c 0 0 -1 0 -1 1 c -1 1 -2 1 -4 1 c 0 0 0 0 -1 1 c -1 1 -2 1 -4 0 c -1 0 -2 1 -3 2 c -1 1 -2 1 -4 0 c 2 0 4 0 4 -1 c 1 -2 2 -2 4 -1 c 1 0 2 -1 3 -2 c 0 -1 2 -1 3 -1 c 1 0 1 0 1 -1 c 1 0 2 -1 4 0 c 1 0 1 0 1 -1 c 1 -1 2 0 3 0 c 1 0 1 0 1 0 z m -6 -17 c 1 0 1 0 2 1 c 0 0 -1 0 -1 0 c 0 0 0 0 -1 0 c 0 1 -1 1 -2 0 c -1 0 -1 1 -1 1 c 0 1 -1 1 -3 1 c 0 0 -1 0 -1 0 c -1 1 -2 2 -3 2 c 0 0 -1 0 -1 0 c -1 1 -2 1 -3 1 c -1 0 -2 0 -3 1 c 0 1 -2 1 -3 1 c 2 0 3 -1 3 -1 c 1 -2 2 -2 3 -2 c 1 1 2 0 3 -1 c 0 -1 1 -1 3 -1 c 0 0 0 0 0 -1 c 1 -1 2 -1 3 0 c 1 0 1 -1 2 -1 c 0 -1 1 -1 2 0 c 0 0 1 0 1 -1 z" stroke-linecap="round"/>
</g>
		<g transform="matrix(1 0 0 1 -28.5 1.6715)" id="_1933520482544">
<path style="stroke: none; stroke-width: 1; stroke-dasharray: none; stroke-linecap: butt; stroke-dashoffset: 0; stroke-linejoin: miter; stroke-miterlimit: 4; is-custom-font: none; font-file-url: none; fill: rgb(115,115,115); fill-rule: nonzero; opacity: 1;" transform=" translate(-239, -241.6716)" d="M 221 254 c 7 1 14 2 20 4 c 6 2 11 5 16 9 l 2 -39 c -4 -3 -8 -6 -12 -8 c -5 -2 -9 -3 -14 -4 l 0 0 l 0 0 l 0 0 c -2 0 -3 0 -4 1 l -9 31 l 0 0 c -1 1 -1 2 -1 2 c 0 1 0 2 0 3 c 1 0 1 1 2 1 c 0 0 0 0 0 0 z m 20 5 c -6 -2 -13 -4 -20 -4 c 0 0 0 0 -1 0 c 0 -1 -1 -1 -1 -2 c -1 -1 -1 -2 -1 -3 c 0 -1 1 -1 1 -2 l 0 0 l 10 -31 c 0 -2 2 -2 4 -1 l 0 0 c 5 0 10 2 14 4 c 5 2 9 4 13 7 l 0 0 l 0 0 l -2 41 l 0 0 l -1 0 c -5 -4 -10 -7 -16 -9 z" stroke-linecap="round"/>
</g>
		<g transform="matrix(1 0 0 1 28.5 1.6715)" id="_1933520482544">
<path style="stroke: none; stroke-width: 1; stroke-dasharray: none; stroke-linecap: butt; stroke-dashoffset: 0; stroke-linejoin: miter; stroke-miterlimit: 4; is-custom-font: none; font-file-url: none; fill: rgb(115,115,115); fill-rule: nonzero; opacity: 1;" transform=" translate(-296, -241.6716)" d="M 314 254 c -7 1 -14 2 -20 4 c -5 2 -11 5 -16 9 l -2 -39 c 4 -3 8 -6 12 -8 c 5 -2 9 -3 14 -4 l 0 0 l 1 0 l 0 0 c 1 0 3 0 3 1 l 10 31 l 0 0 c 0 1 0 2 0 2 c 0 1 0 2 0 3 c 0 0 -1 1 -1 1 c -1 0 -1 0 -1 0 z m -19 5 c 6 -2 12 -4 19 -4 c 0 0 1 0 1 0 c 1 -1 1 -1 2 -2 c 0 -1 0 -2 0 -3 c 0 -1 0 -1 -1 -2 l 0 0 l -9 -31 c -1 -2 -3 -2 -4 -1 l -1 0 c -5 0 -9 2 -14 4 c -4 2 -9 4 -13 7 l 0 0 l 0 0 l 2 41 l 0 0 l 1 0 c 5 -4 11 -7 17 -9 z" stroke-linecap="round"/>
</g>
		<g transform="matrix(1 0 0 1 0 67.5)" id="_1933520482544">
<path style="stroke: none; stroke-width: 1; stroke-dasharray: none; stroke-linecap: butt; stroke-dashoffset: 0; stroke-linejoin: miter; stroke-miterlimit: 4; is-custom-font: none; font-file-url: none; fill: rgb(245,245,245); fill-rule: evenodd; opacity: 1;" transform=" translate(-267.5, -307.5)" d="M 167 378 l -5 -4 l 14 -19 l 5 4 l -14 19 z m 35 -117 l 1 11 c 12 1 24 4 33 8 c 10 5 18 11 24 19 l 15 0 c 7 -8 15 -14 24 -19 c 10 -4 21 -7 34 -8 l 1 -11 c -13 0 -25 3 -35 8 c -11 5 -21 12 -31 20 l 0 1 l -1 -1 c -10 -8 -20 -15 -31 -20 c -10 -5 -22 -8 -34 -8 z m 27 38 l -31 -18 l -1 0 l 0 0 l 4 -8 l 1 0 l -1 -13 l 19 -55 c 17 1 33 7 48 17 c 14 -10 30 -16 47 -17 l 20 55 l -1 13 l -1 0 l 1 0 l 4 8 l 0 0 l -1 0 l -31 18 l 9 34 l -1 0 l -6 8 l -1 0 l 0 0 l -39 -22 l -40 22 l 0 0 l -1 0 l -6 -8 l -1 0 l 9 -34 z m 38 -77 l -1 0 c -7 -4 -14 -8 -21 -11 c -8 -3 -16 -5 -24 -5 l -19 54 l 0 0 c 25 1 46 12 65 28 l 0 -65 l 0 -1 z m 67 38 l -1 0 l -19 -54 c -8 0 -16 2 -23 5 c -8 3 -15 7 -22 11 l 0 0 l -1 1 l 0 65 c 19 -16 40 -27 66 -28 z m 0 16 l -55 28 l 0 -1 l 54 -28 l 0 -1 l -65 34 l 0 0 l -1 0 l -65 -34 l 0 1 l 54 28 l 0 1 l -55 -28 l -3 5 l 58 32 l 1 0 l -1 1 l -34 19 l 6 7 l 39 -22 l 1 0 l 0 0 l 39 22 l 6 -7 l -34 -19 l -1 -1 l 1 0 l 58 -32 l -3 -5 z m -56 29 l -7 4 l 0 -1 l 7 -4 l 0 1 z m -21 -1 l 7 4 l 0 1 l -7 -4 l 0 -1 z m -75 84 l -6 -4 l 3 -9 l -5 7 l -5 -3 l 12 -20 l 6 3 l -4 7 l 6 -5 l 5 3 l -9 7 l -3 14 z m 16 8 l -6 -3 l 5 -10 l -1 -1 l -5 10 l -6 -3 l 10 -21 l 6 3 l -4 8 l 2 1 l 4 -8 l 6 2 l -11 22 z m 15 6 l -11 -5 l 8 -22 l 6 2 l -7 20 l 5 2 l -1 3 z m 19 4 l -7 -1 l 1 -6 l -3 -1 l -2 6 l -7 -2 l 10 -22 l 9 2 l -1 24 z m -6 -11 l 1 -7 l -3 7 l 2 0 z m 9 3 l 5 0 l 0 6 c 0 0 0 1 1 1 c 1 0 1 0 1 -1 l 0 -3 c 1 -1 0 -2 -1 -3 c -3 -3 -4 -4 -5 -5 c 0 -1 -1 -2 0 -3 l 0 -2 c 0 -3 3 -4 8 -4 c 4 1 7 3 6 5 l 0 4 l -6 0 l 0 -5 c 0 0 0 0 -1 -1 c 0 0 -1 1 -1 2 l 0 1 c 0 1 0 2 2 4 c 2 2 4 4 4 5 c 1 0 1 1 1 2 l 0 3 c -1 4 -4 5 -9 4 c -4 -1 -7 -2 -6 -5 l 1 -5 z m 22 12 l 1 -24 l 7 0 c 2 0 4 1 5 1 c 1 1 2 2 2 4 l 0 3 c 0 1 -2 3 -4 3 c 3 1 4 2 4 4 l 0 4 c 0 2 -1 3 -2 4 c -2 1 -3 1 -5 1 l -8 0 z m 9 -16 l 0 -4 c 0 0 -1 -1 -2 -1 l 0 7 c 1 0 2 -1 2 -2 z m -1 12 l 0 -6 c 1 -1 0 -2 -1 -2 l -1 9 c 2 0 2 -1 2 -1 z m 21 2 l -12 1 l -2 -23 l 12 -1 l 0 3 l -6 0 l 1 7 l 5 -1 l 1 3 l -6 1 l 1 8 l 6 -1 l 0 3 z m 19 -3 l -6 1 c -1 0 -2 -2 -2 -5 l 0 0 l -1 -2 c 0 -2 0 -3 0 -3 c 0 -1 -1 -1 -2 -1 l 2 12 l -6 1 l -5 -23 l 8 -2 c 1 0 3 0 5 0 c 1 0 2 1 2 3 l 1 3 c 0 1 -1 3 -3 4 c 2 0 4 1 4 3 l 1 3 c 1 3 1 5 2 6 z m -10 -14 l -1 -4 c 0 -1 -1 -1 -2 -1 l 1 7 c 1 -1 2 -1 2 -2 z m 29 8 l -7 2 l -3 -6 l -2 1 l 1 6 l -7 2 l -2 -24 l 8 -2 l 12 21 z m -11 -7 l -3 -6 l 1 7 l 2 -1 z m 32 -3 l -5 2 l -6 -12 l 3 14 l -4 2 l -9 -11 l 6 12 l -5 2 l -10 -21 l 7 -4 l 8 10 l -3 -12 l 8 -4 l 10 22 z m 17 -11 l -5 3 l -5 -4 l -2 1 l 2 6 l -5 3 l -9 -22 l 8 -5 l 16 18 z m -12 -4 l -4 -6 l 3 7 l 1 -1 z m 23 -5 l -10 8 l -14 -19 l 5 -4 l 13 16 l 4 -3 l 2 2 z" stroke-linecap="round"/>
</g>
</g>
</g>
</svg>