<svg xmlns="http://www.w3.org/2000/svg" xmlns:xlink="http://www.w3.org/1999/xlink" version="1.1" width="1000" height="1000" viewBox="0 0 1000 1000" xml:space="preserve">
<desc>Created with Fabric.js 3.5.0</desc>
<defs>
</defs>
<rect x="0" y="0" width="100%" height="100%" fill="rgba(255,255,255,0)"/>
<g transform="matrix(1.6292 0 0 1.6292 500.0013 500.0011)" id="539575">
<path style="stroke: none; stroke-width: 1; stroke-dasharray: none; stroke-linecap: butt; stroke-dashoffset: 0; stroke-linejoin: miter; stroke-miterlimit: 4; is-custom-font: none; font-file-url: none; fill: rgb(115,115,115); fill-rule: evenodd; opacity: 1;" vector-effect="non-scaling-stroke" transform=" translate(-279, -240.125)" d="M 295 277 l 24 -24 c 5 -5 14 -5 19 0 l 33 33 c 12 12 12 30 0 41 l -2 3 c -11 11 -30 11 -41 0 l -33 -33 c -5 -6 -5 -15 0 -20 z m -281 139 l 0 25 l 28 -29 c 1 -2 2 -3 3 -3 c 1 -1 3 -1 4 -1 c 2 0 4 0 5 1 c 1 2 2 3 2 5 c 0 2 -1 4 -3 6 l -17 16 l 19 29 c 2 2 3 3 4 5 c 0 1 1 3 1 4 c 0 2 -1 3 -2 4 c -1 1 -3 2 -5 2 c -2 0 -4 0 -5 -1 c -1 -1 -2 -2 -3 -4 c -1 -1 -2 -2 -2 -3 l -17 -26 l -12 11 l 0 14 c 0 3 0 5 -2 7 c -1 1 -3 2 -5 2 c -1 0 -2 0 -3 -1 c -2 -1 -2 -1 -3 -3 c 0 0 -1 -1 -1 -3 c 0 -1 0 -3 0 -5 l 0 -52 c 0 -3 1 -5 2 -6 c 1 -2 3 -2 5 -2 c 2 0 4 0 5 2 c 2 1 2 3 2 6 z m 104 4 l -32 0 l 0 17 l 30 0 c 2 0 4 0 5 1 c 1 1 1 3 1 4 c 0 2 0 3 -1 4 c -1 1 -3 2 -5 2 l -30 0 l 0 20 l 33 0 c 3 0 4 0 6 1 c 1 1 1 3 1 4 c 0 2 0 3 -1 4 c -2 1 -3 2 -6 2 l -38 0 c -3 0 -5 -1 -7 -2 c -1 -2 -2 -4 -2 -7 l 0 -53 c 0 -2 1 -3 1 -5 c 1 -1 2 -2 3 -2 c 1 -1 3 -1 5 -1 l 37 0 c 3 0 4 0 5 1 c 2 1 2 3 2 4 c 0 2 0 3 -2 4 c -1 1 -2 2 -5 2 z m 43 48 l -11 -44 l 0 48 c 0 3 -1 5 -2 6 c -1 1 -3 2 -5 2 c -2 0 -3 -1 -4 -2 c -1 -1 -2 -3 -2 -6 l 0 -55 c 0 -3 1 -6 2 -7 c 2 -1 4 -1 7 -1 l 4 0 c 3 0 5 0 6 1 c 1 0 2 1 3 2 c 0 1 1 3 1 6 l 11 39 l 10 -39 c 1 -3 1 -5 2 -6 c 0 -1 1 -2 2 -2 c 2 -1 4 -1 6 -1 l 5 0 c 2 0 4 0 6 1 c 2 1 2 4 2 7 l 0 55 c 0 3 0 5 -1 6 c -2 1 -3 2 -5 2 c -2 0 -4 -1 -5 -2 c -1 -1 -2 -3 -2 -6 l 0 -48 l -11 44 c -1 3 -1 5 -2 7 c 0 1 -1 2 -2 3 c -1 1 -3 2 -5 2 c -2 0 -3 0 -5 -1 c -1 -1 -2 -2 -2 -3 c -1 -1 -1 -2 -2 -4 c 0 -1 0 -2 -1 -4 z m 76 -52 l 28 41 l 0 -41 c 0 -3 0 -5 1 -6 c 2 -2 3 -2 5 -2 c 2 0 4 0 5 2 c 1 1 2 3 2 6 l 0 55 c 0 6 -3 9 -8 9 c -1 0 -2 0 -3 -1 c -1 0 -2 -1 -3 -1 c -1 -1 -2 -2 -3 -3 c 0 -1 -1 -2 -2 -3 l -27 -41 l 0 41 c 0 3 0 5 -1 6 c -2 1 -3 2 -5 2 c -2 0 -4 -1 -5 -2 c -1 -1 -2 -3 -2 -6 l 0 -54 c 0 -2 0 -4 1 -6 c 1 -1 2 -2 3 -3 c 1 -1 3 -1 4 -1 c 2 0 3 0 4 0 c 1 1 1 1 2 2 c 1 1 2 2 2 3 c 1 1 2 2 2 3 z m 100 55 l -4 -9 l -28 0 l -3 9 c -2 4 -3 6 -4 7 c -1 1 -2 2 -4 2 c -2 0 -4 -1 -5 -2 c -1 -1 -2 -3 -2 -4 c 0 -1 0 -2 0 -3 c 1 -1 1 -3 2 -5 l 18 -45 c 0 -1 1 -3 2 -5 c 0 -2 1 -3 2 -4 c 1 -2 2 -3 3 -3 c 2 -1 3 -1 5 -1 c 2 0 4 0 5 1 c 1 0 2 1 3 3 c 1 1 2 2 2 3 c 1 2 2 4 2 6 l 19 45 c 1 3 2 6 2 7 c 0 2 -1 4 -2 5 c -1 1 -3 2 -5 2 c -1 0 -2 0 -3 -1 c -1 0 -1 -1 -2 -1 c 0 -1 -1 -2 -2 -3 c 0 -2 -1 -3 -1 -4 z m -28 -20 l 21 0 l -11 -28 l -10 28 z m 68 -35 l 0 25 l 27 -29 c 2 -2 3 -3 4 -3 c 1 -1 2 -1 4 -1 c 2 0 3 0 4 1 c 2 2 2 3 2 5 c 0 2 -1 4 -3 6 l -17 16 l 20 29 c 1 2 2 3 3 5 c 1 1 1 3 1 4 c 0 2 -1 3 -2 4 c -1 1 -3 2 -5 2 c -2 0 -3 0 -5 -1 c -1 -1 -2 -2 -3 -4 c -1 -1 -1 -2 -2 -3 l -17 -26 l -11 11 l 0 14 c 0 3 -1 5 -2 7 c -2 1 -4 2 -6 2 c -1 0 -2 0 -3 -1 c -1 -1 -2 -1 -3 -3 c 0 0 0 -1 0 -3 c -1 -1 -1 -3 -1 -5 l 0 -52 c 0 -3 1 -5 2 -6 c 2 -2 3 -2 5 -2 c 3 0 4 0 6 2 c 1 1 2 3 2 6 z m 104 4 l -32 0 l 0 17 l 29 0 c 2 0 4 0 5 1 c 1 1 2 3 2 4 c 0 2 -1 3 -2 4 c -1 1 -3 2 -5 2 l -29 0 l 0 20 l 33 0 c 2 0 4 0 5 1 c 1 1 2 3 2 4 c 0 2 -1 3 -2 4 c -1 1 -3 2 -5 2 l -39 0 c -3 0 -5 -1 -6 -2 c -2 -2 -2 -4 -2 -7 l 0 -53 c 0 -2 0 -3 1 -5 c 0 -1 1 -2 2 -2 c 2 -1 3 -1 5 -1 l 38 0 c 2 0 4 0 5 1 c 1 1 1 3 1 4 c 0 2 0 3 -1 4 c -1 1 -3 2 -5 2 z m 38 29 l -5 0 l 0 22 c 0 3 -1 5 -2 7 c -1 1 -3 2 -5 2 c -2 0 -4 -1 -5 -2 c -2 -2 -2 -4 -2 -7 l 0 -54 c 0 -3 0 -5 2 -6 c 1 -2 3 -2 6 -2 l 24 0 c 3 0 5 0 8 0 c 2 0 4 1 6 2 c 2 1 4 2 6 4 c 1 2 3 4 3 6 c 1 2 2 4 2 7 c 0 5 -2 9 -5 13 c -3 3 -7 5 -13 6 c 2 2 5 4 7 6 c 2 3 5 6 6 8 c 2 3 3 6 5 8 c 0 3 1 4 1 5 c 0 1 0 2 -1 3 c 0 1 -1 2 -2 2 c -1 1 -2 1 -4 1 c -1 0 -3 0 -4 -1 c -1 -1 -2 -2 -3 -3 c 0 -1 -1 -3 -3 -5 l -5 -9 c -3 -4 -4 -7 -6 -8 c -2 -2 -3 -3 -5 -4 c -1 -1 -4 -1 -6 -1 z m 8 -30 l -13 0 l 0 20 l 13 0 c 3 0 6 -1 8 -1 c 3 -1 4 -2 6 -3 c 1 -2 1 -4 1 -6 c 0 -2 0 -4 -1 -5 c -1 -2 -2 -3 -4 -4 c -2 0 -5 -1 -10 -1 z m -116 -254 c 13 -13 35 -14 48 0 c 13 13 13 34 0 47 c -13 14 -35 14 -48 0 c -13 -13 -13 -34 0 -47 z m -107 -107 c 13 -14 13 -35 0 -48 c -13 -13 -34 -13 -48 0 c -13 13 -13 34 0 48 c 13 13 35 13 48 0 z m -50 264 c -13 13 -13 35 0 48 c 13 13 34 13 48 0 c 13 -14 13 -35 0 -48 c -13 -13 -35 -13 -48 0 z m -107 -107 c -13 13 -35 13 -48 0 c -13 -13 -13 -35 0 -48 c 13 -13 35 -13 48 0 c 13 13 13 35 0 48 z m 45 -9 l 23 24 c 6 5 6 14 0 19 l -33 33 c -11 11 -29 11 -40 0 l -3 -3 c -11 -11 -11 -29 0 -40 l 33 -33 c 5 -6 14 -6 20 0 z m 177 -156 l 2 2 c 12 12 12 30 0 41 c -28 28 -55 55 -83 84 c -5 4 -13 4 -18 0 c -13 -14 -26 -27 -39 -40 c 2 3 7 3 10 0 l 87 -87 c 11 -11 30 -11 41 0 z m -3 124 l -23 -24 c -6 -5 -6 -14 0 -20 l 33 -33 c 11 -11 29 -11 40 0 l 3 3 c 11 11 11 29 0 41 l -33 33 c -5 5 -14 5 -20 0 z m -177 156 l -2 -3 c -12 -11 -12 -29 0 -41 c 28 -28 55 -55 83 -83 c 5 -5 13 -5 18 0 c 13 13 26 26 39 39 c -2 -2 -7 -2 -10 0 l -87 88 c -11 11 -30 11 -41 0 z m 74 -228 l -24 24 c -5 5 -14 5 -19 0 l -33 -33 c -12 -11 -12 -29 0 -41 l 2 -2 c 11 -11 30 -11 41 0 l 33 33 c 5 5 5 14 0 19 z m 156 177 l -3 3 c -11 11 -29 11 -40 0 c -28 -28 -56 -55 -84 -83 c -5 -5 -5 -13 0 -18 c 13 -13 26 -26 40 -40 c -3 3 -3 8 0 11 l 87 87 c 11 11 11 29 0 40 z m -280 -179 l 3 -3 c 11 -11 29 -11 40 0 c 28 29 56 56 84 84 c 5 5 5 13 0 18 c -13 13 -26 26 -40 39 c 3 -3 3 -7 0 -10 l -87 -87 c -11 -12 -11 -30 0 -41 z" stroke-linecap="round"/>
</g>
</svg>