<svg xmlns="http://www.w3.org/2000/svg" xmlns:xlink="http://www.w3.org/1999/xlink" version="1.1" width="1000" height="1000" viewBox="0 0 1000 1000" xml:space="preserve">
<desc>Created with Fabric.js 3.5.0</desc>
<defs>
</defs>
<rect x="0" y="0" width="100%" height="100%" fill="rgba(255,255,255,0)"/>
<g transform="matrix(0.8909 0 0 0.8909 500.0258 500.0182)" id="133019">
<g style="" vector-effect="non-scaling-stroke">
		<g transform="matrix(1.3333 0 0 1.3333 -0.0119 -119.8451)" id="path1">
<path style="stroke: none; stroke-width: 1; stroke-dasharray: none; stroke-linecap: butt; stroke-dashoffset: 0; stroke-linejoin: miter; stroke-miterlimit: 4; is-custom-font: none; font-file-url: none; fill: rgb(115,115,115); fill-rule: evenodd; opacity: 1;" transform=" translate(-420.9407, -207.7575)" d="M 420.9422 46.847 C 420.9461 46.847 420.95 46.847 420.9537 46.847 C 420.9576 46.847 420.9635 46.8556 420.9711 46.873 C 423.9375 52.3768 427.4614 57.6031 431.5428 62.5521 C 434.7217 66.4055 438.6524 71.0444 443.3346 76.4689 C 451.4221 85.8376 458.5994 95.6003 463.1647 106.9285 C 469.5217 122.6946 469.3073 140.5129 464.2866 156.6908 C 462.2981 163.0941 459.9357 168.8828 457.2629 175.518 C 450.7758 191.6154 445.9166 208.2588 442.6854 225.4482 C 440.4012 237.5978 438.637 249.6757 437.3925 261.6821 C 435.2474 282.3846 433.9381 303.7619 433.4645 325.8132 C 433.4569 326.1262 433.5651 326.1737 433.7893 325.9554 C 438.0939 321.7668 441.5694 316.7955 444.6161 311.4329 C 450.6336 300.8466 455.6687 288.8025 460.0546 277.5382 C 462.0372 272.446 465.5457 263.3925 470.5797 250.3773 C 474.9935 238.9658 479.475 228.3189 484.0239 218.4363 C 490.6329 204.0875 498.5841 189.7623 508.1789 177.4426 C 514.2229 169.6799 521.1738 162.6332 529.1453 156.8849 C 539.9246 149.1163 551.8684 144.519 564.9764 143.0929 C 566.9029 142.8842 568.8287 142.7461 570.7536 142.6783 C 585.1099 142.1874 598.7812 145.3403 611.7673 152.1368 C 623.3998 158.227 633.9368 166.4276 643.6038 175.2889 C 643.6542 175.3352 643.6533 175.3807 643.6011 175.4253 C 643.5625 175.4561 643.5055 175.4725 643.4301 175.4744 C 641.9343 175.4859 640.6213 175.4338 639.2848 175.5295 C 628.4088 176.3161 618.1512 179.5549 608.5121 185.2459 C 594.0388 193.7943 582.2468 205.8646 571.71 218.9407 C 562.3442 230.5617 553.1961 243.8057 545.3954 255.818 C 535.6153 270.8701 528.4902 281.7887 524.0203 288.5735 C 515.2662 301.8554 505.7788 315.1519 495.6072 327.1235 C 491.1393 332.3819 486.368 337.3935 481.2934 342.1593 C 473.2524 349.7103 464.2489 356.3108 454.2136 361.1487 C 444.5647 365.8021 434.3517 368.3074 423.5743 368.665 C 423.497 368.6669 422.6186 368.6679 420.9392 368.6679 C 419.2599 368.6679 418.3815 368.6669 418.3044 368.665 C 407.5271 368.3074 397.3138 365.8021 387.6649 361.1487 C 377.6296 356.3108 368.6261 349.7103 360.5851 342.1593 C 355.5105 337.3938 350.7392 332.3819 346.2713 327.1235 C 336.0997 315.1519 326.6123 301.8554 317.8582 288.5735 C 313.3883 281.7887 306.2632 270.8692 296.4831 255.8151 C 288.6827 243.803 279.5343 230.5587 270.1715 218.9378 C 259.6347 205.8616 247.8426 193.7913 233.3693 185.243 C 223.7302 179.552 213.4727 176.3131 202.5967 175.5266 C 201.2602 175.4309 199.9472 175.4833 198.4514 175.4715 C 198.376 175.4695 198.319 175.4532 198.2803 175.4223 C 198.2282 175.3778 198.2272 175.3325 198.2776 175.286 C 207.9446 166.4247 218.4816 158.2241 230.1141 152.1339 C 243.1004 145.3374 256.7715 142.1847 271.1279 142.6754 C 273.0527 142.7432 274.9785 142.8812 276.9051 143.09 C 290.013 144.5161 301.9568 149.1146 312.7361 156.8849 C 320.7076 162.6332 327.6586 169.6799 333.7025 177.4426 C 343.2973 189.7623 351.2485 204.0875 357.8575 218.4363 C 362.4047 228.3189 366.885 238.9658 371.2988 250.3773 C 376.333 263.3925 379.8413 272.446 381.8241 277.5382 C 386.2097 288.8025 391.2449 300.8466 397.2627 311.4329 C 400.3091 316.7955 403.7846 321.7668 408.0892 325.9554 C 408.3134 326.1737 408.4216 326.1265 408.414 325.8132 C 407.9404 303.7617 406.6311 282.3849 404.4863 261.6821 C 403.2418 249.6757 401.4782 237.5978 399.1961 225.4482 C 395.9649 208.2588 391.1057 191.6154 384.6185 175.518 C 381.9457 168.8828 379.5833 163.0941 377.5949 156.6908 C 372.5741 140.5129 372.3597 122.6946 378.7167 106.9285 C 383.282 95.6003 390.4593 85.8376 398.5468 76.4689 C 403.2291 71.0444 407.1597 66.4055 410.3386 62.5521 C 414.42 57.6031 417.9439 52.3768 420.9104 46.873 C 420.918 46.8556 420.9238 46.847 420.9277 46.847 C 420.9317 46.847 420.9363 46.847 420.9422 46.847 Z" stroke-linecap="round"/>
</g>
		<g transform="matrix(1.3333 0 0 1.3333 -141.0222 -271.2885)" id="path2">
<path style="stroke: none; stroke-width: 1; stroke-dasharray: none; stroke-linecap: butt; stroke-dashoffset: 0; stroke-linejoin: miter; stroke-miterlimit: 4; is-custom-font: none; font-file-url: none; fill: rgb(115,115,115); fill-rule: evenodd; opacity: 1;" transform=" translate(-315.1793, -94.1721)" d="M 246.2976 115.0914 C 261.9893 100.0084 279.509 87.1129 298.857 76.405 C 325.3859 61.7242 353.7626 52.1497 383.9866 47.6818 C 383.9912 47.6811 383.9956 47.6808 384.0003 47.6808 C 384.0549 47.6808 384.0989 47.7249 384.0989 47.7795 C 384.0989 47.7927 384.0962 47.8059 384.0911 47.8181 C 384.0059 48.021 383.8791 48.219 383.711 48.4123 C 376.6034 56.6503 371.9104 61.9811 366.3246 69.4309 C 362.8501 74.061 359.6691 78.9483 356.7819 84.0924 C 348.5351 98.7774 344.2422 114.7725 344.1436 131.53 C 344.1262 134.6121 344.2131 137.5979 344.4045 140.487 C 344.418 140.684 344.3524 140.7161 344.2075 140.5827 C 325.6304 123.7296 303.7096 114.5523 278.4442 113.0506 C 267.5934 112.4052 256.9862 113.124 246.6222 115.2072 C 246.5005 115.2324 246.4009 115.2324 246.3236 115.2072 C 246.2482 115.1842 246.2396 115.1455 246.2976 115.0914 Z" stroke-linecap="round"/>
</g>
		<g transform="matrix(1.3333 0 0 1.3333 141.0521 -271.2731)" id="path3">
<path style="stroke: none; stroke-width: 1; stroke-dasharray: none; stroke-linecap: butt; stroke-dashoffset: 0; stroke-linejoin: miter; stroke-miterlimit: 4; is-custom-font: none; font-file-url: none; fill: rgb(115,115,115); fill-rule: evenodd; opacity: 1;" transform=" translate(-526.7354, -94.1836)" d="M 595.6447 115.1144 C 595.7027 115.1685 595.6939 115.2072 595.6185 115.2304 C 595.5412 115.2556 595.4419 115.2556 595.32 115.2304 C 584.9523 113.1472 574.3411 112.4285 563.4864 113.0738 C 538.2095 114.5733 516.2789 123.7538 497.6943 140.6145 C 497.5494 140.7479 497.4835 140.7161 497.4973 140.5188 C 497.6886 137.6278 497.7755 134.6403 497.7581 131.5562 C 497.6595 114.7928 493.3666 98.7889 485.1169 84.0983 C 482.2278 78.952 479.045 74.0629 475.5683 69.4309 C 469.9825 61.9782 465.2868 56.6445 458.1761 48.4035 C 458.0079 48.2102 457.8814 48.0122 457.7965 47.8093 C 457.7911 47.7971 457.7884 47.7839 457.7884 47.7707 C 457.7884 47.7161 457.8324 47.672 457.887 47.672 C 457.8917 47.672 457.8961 47.6723 457.9007 47.673 C 488.1381 52.1428 516.5263 61.7222 543.0651 76.4109 C 562.4206 87.1247 579.9472 100.0258 595.6447 115.1144 Z" stroke-linecap="round"/>
</g>
		<g transform="matrix(1.3333 0 0 1.3333 0.0034 80.3373)" id="path4">
<path style="stroke: none; stroke-width: 1; stroke-dasharray: none; stroke-linecap: butt; stroke-dashoffset: 0; stroke-linejoin: miter; stroke-miterlimit: 4; is-custom-font: none; font-file-url: none; fill: rgb(115,115,115); fill-rule: evenodd; opacity: 1;" transform=" translate(-420.9524, -357.8944)" d="M 420.9537 410.8442 C 420.604 410.8442 420.148 410.852 419.5856 410.8674 C 404.3171 411.2751 389.7743 414.4753 375.9571 420.4678 C 353.8892 430.0365 335.2387 446.4288 319.8119 464.9023 C 307.3938 479.7669 296.5961 495.7155 286.5202 512.0151 C 286.485 512.0724 286.4223 512.1074 286.355 512.1074 C 286.3193 512.1074 286.284 512.0976 286.2537 512.0787 C 272.9967 503.9122 260.7651 494.5717 249.5587 484.0569 C 249.3771 483.8868 249.3732 483.7121 249.547 483.5322 C 250.7675 482.2598 252.1299 480.4828 252.9385 479.532 C 262.4347 468.3643 272.8381 458.3385 284.149 449.4551 C 308.9097 430.0046 337.6332 416.0301 367.8319 406.554 C 369.4464 406.0469 371.3133 405.5802 372.812 405.1771 C 373.2467 405.0594 373.2525 404.924 372.8294 404.7713 C 369.9596 403.7395 366.3826 402.5692 362.0983 401.2611 C 346.2481 396.4222 331.2762 390.8335 317.1827 384.4949 C 284.7809 369.9202 254.8168 349.2118 234.0504 320.1028 C 223.3399 305.0903 214.5913 288.733 207.3448 271.8219 C 198.0223 250.0814 190.764 227.1584 186.1899 203.8643 C 186.1882 203.8548 186.1872 203.8453 186.1872 203.8355 C 186.1872 203.7537 186.2533 203.6877 186.3351 203.6877 C 192.227 203.6916 195.9644 203.6906 197.5471 203.6847 C 200.0226 203.6769 201.9491 203.7745 203.327 203.9774 C 208.0983 204.6791 212.6291 206.1389 216.919 208.3574 C 228.0879 214.1376 237.2014 223.4191 245.1643 233.0313 C 250.1422 239.0412 255.298 245.976 260.6317 253.8354 C 270.5887 268.5058 278.2734 281.0398 289.1812 298.4842 C 296.3409 309.9302 303.5258 320.5106 310.7359 330.225 C 324.3223 348.5277 339.8884 365.6417 358.9591 378.1785 C 376.6644 389.8198 396.1234 396.2269 417.3363 397.3999 C 417.8541 397.4288 419.0599 397.4435 420.9537 397.4435 C 422.8477 397.4435 424.0535 397.4288 424.5713 397.3999 C 445.7842 396.2269 465.2432 389.8198 482.9485 378.1785 C 502.0192 365.6388 517.5823 348.5248 531.1685 330.2223 C 538.3786 320.5076 545.5635 309.9275 552.7235 298.4813 C 563.6313 281.0369 571.3157 268.5028 581.273 253.8325 C 586.6065 245.9731 591.7623 239.0383 596.7404 233.0283 C 604.7031 223.4162 613.8167 214.1346 624.9854 208.3545 C 629.2756 206.136 633.8064 204.6761 638.5775 203.9745 C 639.9553 203.7716 641.8821 203.6742 644.3576 203.6818 C 645.9403 203.6877 649.6776 203.6877 655.5699 203.6818 C 655.6516 203.6818 655.7177 203.7479 655.7177 203.8296 C 655.7177 203.8394 655.7167 203.8489 655.7148 203.8585 C 651.1407 227.1557 643.8821 250.0787 634.5599 271.819 C 627.3131 288.7301 618.5648 305.0874 607.854 320.0999 C 587.0876 349.2088 557.1265 369.9173 524.7249 384.4919 C 510.6314 390.8305 495.6593 396.4203 479.8093 401.2611 C 475.525 402.5695 471.948 403.7395 469.0782 404.7713 C 468.6551 404.924 468.6607 405.0594 469.0956 405.1771 C 470.5941 405.5802 472.4609 406.0469 474.0757 406.554 C 504.2744 416.0271 532.9977 430.0017 557.7587 449.4522 C 569.0693 458.3358 579.4727 468.3614 588.9689 479.5291 C 589.7777 480.4799 591.1402 482.2569 592.3604 483.5295 C 592.5344 483.7091 592.5305 483.8841 592.3489 484.054 C 581.1425 494.5687 568.9119 503.9092 555.6569 512.076 C 555.6265 512.0946 555.5913 512.1044 555.5556 512.1044 C 555.4883 512.1044 555.4256 512.0694 555.3901 512.0122 C 545.3115 495.7126 534.5138 479.764 522.0957 464.8993 C 506.6687 446.4258 488.0185 430.0365 465.9505 420.4678 C 452.1333 414.4753 437.5905 411.2751 422.322 410.8674 C 421.7596 410.852 421.3037 410.8442 420.9537 410.8442 Z" stroke-linecap="round"/>
</g>
		<g transform="matrix(1.3333 0 0 1.3333 251.5179 84.9208)" id="path5">
<path style="stroke: none; stroke-width: 1; stroke-dasharray: none; stroke-linecap: butt; stroke-dashoffset: 0; stroke-linejoin: miter; stroke-miterlimit: 4; is-custom-font: none; font-file-url: none; fill: rgb(115,115,115); fill-rule: evenodd; opacity: 1;" transform=" translate(-609.5848, -361.3309)" d="M 582.5453 408.7889 C 582.5627 408.8528 582.617 408.8924 582.7078 408.9078 C 584.2519 409.1746 587.2626 409.8248 591.7402 410.8586 C 607.8068 414.5671 623.3254 419.891 638.2963 426.8307 C 638.3854 426.8718 638.4421 426.9611 638.4421 427.059 C 638.4421 427.0984 638.4328 427.1373 638.4152 427.1723 C 637.1049 429.8008 635.7949 432.1913 634.4845 434.344 C 629.5431 442.4604 623.854 450.4417 617.417 458.2874 C 615.7609 460.3089 614.21 462.1059 612.7646 463.6791 C 612.7316 463.7156 612.6846 463.7366 612.6352 463.7366 C 612.583 463.7366 612.5338 463.7134 612.5008 463.673 C 609.6599 460.2932 606.6154 456.8265 603.3668 453.2725 C 592.0812 440.9357 579.9541 430.0299 566.9851 420.555 C 560.3472 415.7063 553.3089 411.048 545.8709 406.5802 C 545.7919 406.5322 545.7437 406.4465 545.7437 406.3543 C 545.7437 406.2525 545.8022 406.1597 545.8939 406.1161 C 562.0361 398.4019 577.067 389.1066 590.9865 378.2306 C 600.7262 370.6206 610.259 361.7111 619.5851 351.5017 C 620.8453 350.1239 622.1061 348.6592 623.368 347.1073 C 644.5402 321.0595 658.5845 290.6953 670.078 259.082 C 670.0877 259.0556 670.1054 259.0304 670.1279 259.011 C 670.3168 258.8534 670.4316 258.9129 670.4722 259.1892 C 671.705 267.5782 672.538 274.2056 672.9707 279.0717 C 673.3824 283.671 673.5148 288.6036 673.3679 293.8695 C 672.4984 325.0335 658.515 354.5223 636.9485 376.7901 C 628.8823 385.1172 619.9977 392.1281 610.2948 397.8231 C 601.7002 402.8668 592.3315 406.7368 582.6004 408.6961 C 582.6011 408.6959 582.6006 408.6959 582.5999 408.6961 C 582.5595 408.7062 582.5348 408.7458 582.5444 408.7847 C 582.5446 408.7857 582.5448 408.7867 582.5453 408.7877 L 582.5453 408.7889 Z" stroke-linecap="round"/>
</g>
		<g transform="matrix(1.3333 0 0 1.3333 -251.2477 85.0121)" id="path6">
<path style="stroke: none; stroke-width: 1; stroke-dasharray: none; stroke-linecap: butt; stroke-dashoffset: 0; stroke-linejoin: miter; stroke-miterlimit: 4; is-custom-font: none; font-file-url: none; fill: rgb(115,115,115); fill-rule: evenodd; opacity: 1;" transform=" translate(-232.5099, -361.3994)" d="M 259.5446 408.8528 C 259.5456 408.8506 259.5458 408.8496 259.5461 408.8486 C 259.5556 408.8097 259.5309 408.77 259.4905 408.76 C 259.4898 408.7598 259.4893 408.7598 259.4888 408.7595 C 249.7616 406.8004 240.3929 402.9307 231.7981 397.887 C 222.0971 392.1939 213.2145 385.1838 205.1505 376.8567 C 183.5869 354.5947 169.6062 325.1089 168.7367 293.9505 C 168.5899 288.6846 168.7223 283.752 169.1339 279.1527 C 169.5668 274.2886 170.3997 267.6622 171.6326 259.2734 C 171.673 258.9971 171.7871 258.9371 171.9745 259.0935 C 171.9995 259.1143 172.0171 259.1395 172.0281 259.1682 C 183.5172 290.7766 197.5586 321.1349 218.7278 347.1797 C 219.9897 348.7316 221.2508 350.1963 222.5107 351.5742 C 231.8348 361.7816 241.366 370.6891 251.1037 378.2974 C 265.0213 389.1734 280.0502 398.4677 296.1901 406.18 C 296.2824 406.2236 296.3409 406.3163 296.3409 406.4181 C 296.3409 406.5104 296.2927 406.5961 296.2136 406.6438 C 288.7774 411.1117 281.74 415.7692 275.1021 420.6157 C 262.1351 430.0906 250.0098 440.9957 238.726 453.3305 C 235.4777 456.8826 232.433 460.3485 229.5923 463.7283 C 229.5595 463.7672 229.5108 463.79 229.4594 463.79 C 229.4107 463.79 229.3645 463.7697 229.3314 463.7339 C 227.886 462.161 226.3352 460.3639 224.679 458.3424 C 218.242 450.4984 212.5537 442.5194 207.6142 434.405 C 206.3039 432.252 204.9938 429.8617 203.6835 427.2335 C 203.6664 427.198 203.6571 427.1591 203.6571 427.1197 C 203.6571 427.0218 203.7139 426.9325 203.8027 426.8911 C 218.7714 419.9517 234.2873 414.629 250.3499 410.9225 C 254.8276 409.8885 257.8383 409.2382 259.3824 408.9717 C 259.4731 408.9563 259.5272 408.9166 259.5446 408.8528 Z" stroke-linecap="round"/>
</g>
		<g transform="matrix(1.3333 0 0 1.3333 -0.014 260.9313)" id="path7">
<path style="stroke: none; stroke-width: 1; stroke-dasharray: none; stroke-linecap: butt; stroke-dashoffset: 0; stroke-linejoin: miter; stroke-miterlimit: 4; is-custom-font: none; font-file-url: none; fill: rgb(115,115,115); fill-rule: evenodd; opacity: 1;" transform=" translate(-420.9366, -493.3379)" d="M 420.9277 439.4776 C 421.774 439.4776 422.3404 439.4825 422.6262 439.4923 C 438.4475 440.0701 453.0251 444.4914 466.3592 452.7566 C 481.0093 461.8382 493.1926 474.4129 503.9005 487.8948 C 513.1473 499.5361 521.9102 512.4644 529.9889 525.2158 C 530.0161 525.2577 530.0305 525.3066 530.0305 525.3568 C 530.0305 525.4574 529.9725 525.5491 529.8817 525.5925 C 508.0796 536.0047 485.2133 543.1443 461.2834 547.0111 C 460.7617 547.0943 460.3038 547.1533 459.9095 547.188 C 459.7646 547.1996 459.6758 547.1349 459.643 546.9937 C 453.5092 521.2301 441.1171 496.7388 422.9365 477.4131 C 422.6465 477.106 422.0244 476.5 421.0697 475.5957 C 421.0271 475.557 420.9992 475.5357 420.9857 475.5318 C 420.9684 475.5279 420.95 475.526 420.9307 475.526 C 420.9133 475.526 420.8947 475.5279 420.8756 475.5318 C 420.8619 475.5357 420.834 475.557 420.7914 475.5957 C 419.8367 476.5 419.2146 477.106 418.9246 477.4131 C 400.7497 496.7417 388.3607 521.2359 382.2328 547.0025 C 382.2 547.1435 382.1109 547.2084 381.9661 547.1969 C 381.5718 547.1621 381.1139 547.1031 380.5921 547.0199 C 356.6622 543.1568 333.7953 536.0213 311.9912 525.613 C 311.9006 525.5695 311.8426 525.4777 311.8426 525.3771 C 311.8426 525.3269 311.857 525.278 311.8842 525.2359 C 319.9597 512.4847 328.7197 499.5535 337.9636 487.9093 C 348.6685 474.4273 360.8489 461.85 375.499 452.7654 C 388.8311 444.4983 403.408 440.0737 419.229 439.4923 C 419.5132 439.4825 420.0793 439.4776 420.9277 439.4776 Z" stroke-linecap="round"/>
</g>
</g>
</g>
</svg>