<svg xmlns="http://www.w3.org/2000/svg" xmlns:xlink="http://www.w3.org/1999/xlink" version="1.1" width="1000" height="1000" viewBox="0 0 1000 1000" xml:space="preserve">
<desc>Created with Fabric.js 3.5.0</desc>
<defs>
</defs>
<rect x="0" y="0" width="100%" height="100%" fill="rgba(255,255,255,0)"/>
<g transform="matrix(1.2293 0 0 1.2293 499.989 499.989)" id="56753">
<g style="" vector-effect="non-scaling-stroke">
		<g transform="matrix(1 0 0 1 -450 -450)">
<rect style="stroke: none; stroke-width: 1; stroke-dasharray: none; stroke-linecap: butt; stroke-dashoffset: 0; stroke-linejoin: miter; stroke-miterlimit: 4; is-custom-font: none; font-file-url: none; fill: rgb(255,255,255); fill-opacity: 0; fill-rule: nonzero; opacity: 1;" x="-50" y="-50" rx="0" ry="0" width="100" height="100"/>
</g>
		<g transform="matrix(0.1558 0 0 0.1558 -85.135 16.8801)" id="svg6596">
<path style="stroke: none; stroke-width: 1; stroke-dasharray: none; stroke-linecap: butt; stroke-dashoffset: 0; stroke-linejoin: miter; stroke-miterlimit: 4; is-custom-font: none; font-file-url: none; fill: rgb(115,115,115); fill-rule: nonzero; opacity: 1;" vector-effect="non-scaling-stroke" transform=" translate(-9953.5, -14958.5)" d="M 9797 14757 l 159 0 c 44 0 80 11 107 33 c 27 21 47 49 47 85 c 0 23 -1 67 -14 88 c -13 21 -33 36 -60 46 c -27 10 -57 16 -76 16 l -68 1 l 0 134 l -95 0 l 0 -403 z m 93 86 l 0 0 l 0 104 l 58 0 c 18 0 33 -5 45 -15 c 12 -11 19 -23 19 -37 c 0 -17 -7 -30 -21 -39 c -14 -9 -29 -13 -55 -13 l -46 0 z" stroke-linecap="round"/>
</g>
		<g transform="matrix(0.1558 0 0 0.1558 -32.2562 16.8801)" id="svg6596">
<polygon style="stroke: none; stroke-width: 1; stroke-dasharray: none; stroke-linecap: butt; stroke-dashoffset: 0; stroke-linejoin: miter; stroke-miterlimit: 4; is-custom-font: none; font-file-url: none; fill: rgb(115,115,115); fill-rule: nonzero; opacity: 1;" vector-effect="non-scaling-stroke" points="-129,-201.5 129,-201.5 129,-121.5 -34,-121.5 -34,-48.5 124,-48.5 124,38.5 -34,38.5 -34,111.5 129,111.5 129,201.5 -129,201.5 "/>
</g>
		<g transform="matrix(0.1558 0 0 0.1558 27.9462 16.8801)" id="svg6596">
<path style="stroke: none; stroke-width: 1; stroke-dasharray: none; stroke-linecap: butt; stroke-dashoffset: 0; stroke-linejoin: miter; stroke-miterlimit: 4; is-custom-font: none; font-file-url: none; fill: rgb(115,115,115); fill-rule: nonzero; opacity: 1;" vector-effect="non-scaling-stroke" transform=" translate(-10679.5, -14958.5)" d="M 10511 14757 l 165 0 c 44 0 71 11 96 32 c 25 21 34 55 38 86 c 3 22 1 43 -11 65 c -11 23 -46 47 -78 54 l 127 166 l -115 0 l -118 -160 l -11 0 l 0 160 l -93 0 l 0 -403 z m 94 78 l 0 0 l 0 104 l 34 0 c 48 0 72 -24 72 -61 c 0 -41 -44 -42 -71 -43 l -35 0 z" stroke-linecap="round"/>
</g>
		<g transform="matrix(0.1558 0 0 0.1558 78.8781 16.8801)" id="svg6596">
<polygon style="stroke: none; stroke-width: 1; stroke-dasharray: none; stroke-linecap: butt; stroke-dashoffset: 0; stroke-linejoin: miter; stroke-miterlimit: 4; is-custom-font: none; font-file-url: none; fill: rgb(115,115,115); fill-rule: nonzero; opacity: 1;" vector-effect="non-scaling-stroke" points="-154.5,-201.5 154.5,-201.5 154.5,-114.5 49.5,-114.5 49.5,201.5 -50.5,201.5 -50.5,-114.5 -154.5,-114.5 "/>
</g>
		<g transform="matrix(0.1558 0 0 0.1558 128.6444 16.8801)" id="svg6596">
<path style="stroke: none; stroke-width: 1; stroke-dasharray: none; stroke-linecap: butt; stroke-dashoffset: 0; stroke-linejoin: miter; stroke-miterlimit: 4; is-custom-font: none; font-file-url: none; fill: rgb(115,115,115); fill-rule: nonzero; opacity: 1;" vector-effect="non-scaling-stroke" transform=" translate(-11326, -14958.5)" d="M 11277 14757 l 99 0 l 136 403 l -100 0 l -26 -73 l -122 0 l -31 73 l -93 0 l 137 -403 z m 48 130 l 0 0 l -44 124 l 82 0 l -38 -124 z" stroke-linecap="round"/>
</g>
		<g transform="matrix(0.1558 0 0 0.1558 198.9707 16.8801)" id="svg6596">
<polygon style="stroke: none; stroke-width: 1; stroke-dasharray: none; stroke-linecap: butt; stroke-dashoffset: 0; stroke-linejoin: miter; stroke-miterlimit: 4; is-custom-font: none; font-file-url: none; fill: rgb(115,115,115); fill-rule: nonzero; opacity: 1;" vector-effect="non-scaling-stroke" points="-167.5,-201.5 -75.5,-201.5 0.5,22.5 82.5,-201.5 174.5,-201.5 227.5,201.5 136.5,201.5 109.5,-26.5 18.5,201.5 -18.5,201.5 -104.5,-31.5 -143.5,201.5 -227.5,201.5 "/>
</g>
		<g transform="matrix(0.1558 0 0 0.1558 251.4538 16.8801)" id="svg6596">
<polygon style="stroke: none; stroke-width: 1; stroke-dasharray: none; stroke-linecap: butt; stroke-dashoffset: 0; stroke-linejoin: miter; stroke-miterlimit: 4; is-custom-font: none; font-file-url: none; fill: rgb(115,115,115); fill-rule: nonzero; opacity: 1;" vector-effect="non-scaling-stroke" points="-47.5,-201.5 47.5,-201.5 47.5,201.5 -47.5,201.5 "/>
</g>
		<g transform="matrix(0.1558 0 0 0.1558 300.4451 17.0359)" id="svg6596">
<polygon style="stroke: none; stroke-width: 1; stroke-dasharray: none; stroke-linecap: butt; stroke-dashoffset: 0; stroke-linejoin: miter; stroke-miterlimit: 4; is-custom-font: none; font-file-url: none; fill: rgb(115,115,115); fill-rule: nonzero; opacity: 1;" vector-effect="non-scaling-stroke" points="92,-200.5 180,-200.5 180,200.5 83,200.5 -85,-38.5 -85,200.5 -180,200.5 -180,-200.5 -90,-200.5 92,47.5 "/>
</g>
		<g transform="matrix(0.1558 0 0 0.1558 366.6429 16.8801)" id="svg6596">
<path style="stroke: none; stroke-width: 1; stroke-dasharray: none; stroke-linecap: butt; stroke-dashoffset: 0; stroke-linejoin: miter; stroke-miterlimit: 4; is-custom-font: none; font-file-url: none; fill: rgb(115,115,115); fill-rule: nonzero; opacity: 1;" vector-effect="non-scaling-stroke" transform=" translate(-12854, -14958.5)" d="M 12805 14757 l 99 0 l 136 403 l -100 0 l -26 -73 l -122 0 l -31 73 l -93 0 l 137 -403 z m 48 130 l 0 0 l -44 124 l 82 0 l -38 -124 z" stroke-linecap="round"/>
</g>
		<g transform="matrix(0.1558 0 0 0.1558 -323.3541 38.8479)" id="svg6596">
<path style="stroke: none; stroke-width: 1; stroke-dasharray: none; stroke-linecap: butt; stroke-dashoffset: 0; stroke-linejoin: miter; stroke-miterlimit: 4; is-custom-font: none; font-file-url: none; fill: rgb(115,115,115); fill-rule: nonzero; opacity: 1;" vector-effect="non-scaling-stroke" transform=" translate(-8424, -15099.5)" d="M 7960 15441 c 0 0 319 -507 371 -591 c 52 -85 97 -92 240 -92 l 317 0 c -19 15 -51 48 -75 86 l -322 518 c -32 58 -100 79 -182 79 l -349 0 z" stroke-linecap="round"/>
</g>
		<g transform="matrix(0.1558 0 0 0.1558 -211.1341 16.958)" id="svg6596">
<path style="stroke: none; stroke-width: 1; stroke-dasharray: none; stroke-linecap: butt; stroke-dashoffset: 0; stroke-linejoin: miter; stroke-miterlimit: 4; is-custom-font: none; font-file-url: none; fill: rgb(115,115,115); fill-rule: nonzero; opacity: 1;" vector-effect="non-scaling-stroke" transform=" translate(-9144.5, -14959)" d="M 9220 14758 c -144 0 -189 7 -243 92 c -55 84 -202 310 -202 310 l 368 0 c 64 0 127 -28 153 -75 l 218 -327 l -294 0 z" stroke-linecap="round"/>
</g>
		<g transform="matrix(0.1558 0 0 0.1558 -211.1341 -60.6872)" id="svg6596">
<path style="stroke: none; stroke-width: 1; stroke-dasharray: none; stroke-linecap: butt; stroke-dashoffset: 0; stroke-linejoin: miter; stroke-miterlimit: 4; is-custom-font: none; font-file-url: none; fill: rgb(115,115,115); fill-rule: nonzero; opacity: 1;" vector-effect="non-scaling-stroke" transform=" translate(-9144.5, -14460.5)" d="M 9069 14259 c 144 0 189 8 243 92 c 55 84 202 311 202 311 l -368 0 c -64 0 -127 -28 -154 -75 l -217 -328 l 294 0 z" stroke-linecap="round"/>
</g>
</g>
</g>
</svg>