<svg xmlns="http://www.w3.org/2000/svg" xmlns:xlink="http://www.w3.org/1999/xlink" version="1.1" width="1000" height="1000" viewBox="0 0 1000 1000" xml:space="preserve">
<desc>Created with Fabric.js 3.5.0</desc>
<defs>
</defs>
<rect x="0" y="0" width="100%" height="100%" fill="rgba(255,255,255,0)"/>
<g transform="matrix(1.0058 0 0 1.0058 500.0059 500.0085)" id="101011">
<g style="" vector-effect="non-scaling-stroke">
		<g transform="matrix(0.0378 0 0 0.0378 0.0256 0.0144)" id="PLN_x0020__x0028_Perusahaan_x0020_Listrik_x0020_Negara_x0029_.cdr">
<polygon style="stroke: none; stroke-width: 1; stroke-dasharray: none; stroke-linecap: butt; stroke-dashoffset: 0; stroke-linejoin: miter; stroke-miterlimit: 4; is-custom-font: none; font-file-url: none; fill: none; fill-rule: evenodd; opacity: 1;" points="-5419,-3048 5419,-3048 5419,3048 -5419,3048 "/>
</g>
		<g transform="matrix(0.0378 0 0 0.0378 0.0313 -115.2821)" id="_2233584415728">
<polygon style="stroke: none; stroke-width: 1; stroke-dasharray: none; stroke-linecap: butt; stroke-dashoffset: 0; stroke-linejoin: miter; stroke-miterlimit: 4; is-custom-font: none; font-file-url: none; fill: rgb(245,245,245); fill-rule: evenodd; opacity: 1;" points="-6619,6621 6619,6621 6619,-6621 -6619,-6621 "/>
</g>
		<g transform="matrix(0.0378 0 0 0.0378 -10.3812 -108.7889)" id="_2233584415728">
<path style="stroke: none; stroke-width: 1; stroke-dasharray: none; stroke-linecap: butt; stroke-dashoffset: 0; stroke-linejoin: miter; stroke-miterlimit: 4; is-custom-font: none; font-file-url: none; fill: rgb(115,115,115); fill-rule: evenodd; opacity: 1;" transform=" translate(-10225, -11971)" d="M 8730 9858 l -261 828 l -326 1046 l -262 832 l -310 986 l 1407 -610 l 2148 -941 l -124 612 l -235 1187 l -171 849 l -464 2348 c 165 -363 312 -767 462 -1143 c 52 -129 432 -1110 463 -1143 c 7 -56 253 -666 293 -748 l 420 -1044 l 342 -861 l 528 -1334 l 239 -614 l -1452 584 l -2054 827 l 355 -822 l 455 -1040 c 13 -66 240 -570 285 -678 c 83 -194 845 -1934 872 -2032 l -1676 0 c -43 28 -54 125 -70 174 l -864 2737 l 0 0 z" stroke-linecap="round"/>
</g>
		<g transform="matrix(0.0378 0 0 0.0378 179.5175 288.2742)" id="_2233584415728">
<polygon style="stroke: none; stroke-width: 1; stroke-dasharray: none; stroke-linecap: butt; stroke-dashoffset: 0; stroke-linejoin: miter; stroke-miterlimit: 4; is-custom-font: none; font-file-url: none; fill: rgb(115,115,115); fill-rule: evenodd; opacity: 1;" points="-1869.5,-2045 -1869.5,2045 -863.5,2045 -863.5,-317 765.5,2045 1869.5,2045 1869.5,-2045 863.5,-2045 863.5,426 -874.5,-2045 "/>
</g>
		<g transform="matrix(0.0378 0 0 0.0378 -187.4212 288.2742)" id="_2233584415728">
<path style="stroke: none; stroke-width: 1; stroke-dasharray: none; stroke-linecap: butt; stroke-dashoffset: 0; stroke-linejoin: miter; stroke-miterlimit: 4; is-custom-font: none; font-file-url: none; fill: rgb(115,115,115); fill-rule: evenodd; opacity: 1;" transform=" translate(-5540.9382, -22477)" d="M 5663 22400 l -776 0 l 0 -1093 l 852 0 c 575 0 622 1093 -76 1093 l 0 0 z m -1782 2122 l 1005 0 l 0 -1258 l 1017 0 c 1709 0 1770 -2832 -54 -2832 l -1968 0 l 0 4090 l 0 0 z" stroke-linecap="round"/>
</g>
		<g transform="matrix(0.0378 0 0 0.0378 -10.33 288.2742)" id="_2233584415728">
<polygon style="stroke: none; stroke-width: 1; stroke-dasharray: none; stroke-linecap: butt; stroke-dashoffset: 0; stroke-linejoin: miter; stroke-miterlimit: 4; is-custom-font: none; font-file-url: none; fill: rgb(115,115,115); fill-rule: evenodd; opacity: 1;" points="-1481.5,-2045 -1481.5,2045 1481.5,2045 1481.5,1181 -475.5,1181 -475.5,-2045 "/>
</g>
		<g transform="matrix(0.0378 0 0 0.0378 -69.5333 -16.7071)" id="_2233584415728">
<path style="stroke: none; stroke-width: 1; stroke-dasharray: none; stroke-linecap: butt; stroke-dashoffset: 0; stroke-linejoin: miter; stroke-miterlimit: 4; is-custom-font: none; font-file-url: none; fill: rgb(115,115,115); fill-rule: evenodd; opacity: 1;" transform=" translate(-8660, -14407.8799)" d="M 10596 14647 l 172 -849 c -731 -103 -1248 321 -1628 336 c -423 15 -687 -458 -1608 -330 c -351 49 -714 182 -980 332 l 0 891 c 50 -15 147 -82 209 -112 c 72 -34 149 -71 227 -102 c 155 -62 322 -116 500 -146 c 487 -81 693 30 1043 217 c 332 177 690 203 1055 47 c 501 -214 405 -240 1011 -284 l -1 0 z" stroke-linecap="round"/>
</g>
		<g transform="matrix(0.0378 0 0 0.0378 60.1252 -174.1273)" id="_2233584415728">
<path style="stroke: none; stroke-width: 1; stroke-dasharray: none; stroke-linecap: butt; stroke-dashoffset: 0; stroke-linejoin: miter; stroke-miterlimit: 4; is-custom-font: none; font-file-url: none; fill: rgb(115,115,115); fill-rule: evenodd; opacity: 1;" transform=" translate(-12090.5191, -10242.806)" d="M 10183 9657 l -455 1040 c 96 -28 198 -99 384 -150 c 747 -203 1253 144 1315 145 l 1452 -585 l -239 615 c 139 -37 326 -308 958 -218 c 299 43 523 141 763 298 c 31 21 58 45 88 62 c 9 -255 0 -520 1 -776 c 1 -125 27 -115 -155 -226 c -74 -46 -179 -93 -269 -124 c -369 -127 -986 -183 -1329 5 c -189 103 -278 211 -552 227 c -238 15 -462 -45 -659 -119 c -502 -190 -697 -272 -1304 -194 l 1 0 z" stroke-linecap="round"/>
</g>
		<g transform="matrix(0.0378 0 0 0.0378 85.1986 -16.6583)" id="_2233584415728">
<path style="stroke: none; stroke-width: 1; stroke-dasharray: none; stroke-linecap: butt; stroke-dashoffset: 0; stroke-linejoin: miter; stroke-miterlimit: 4; is-custom-font: none; font-file-url: none; fill: rgb(115,115,115); fill-rule: evenodd; opacity: 1;" transform=" translate(-12754, -14409.1722)" d="M 11350 13962 c -40 81 -286 691 -293 748 c 302 84 490 265 826 310 c 895 119 827 -528 1803 -339 c 480 93 652 296 765 347 l -1 -897 c -196 -144 -382 -243 -687 -304 c -266 -53 -642 -66 -897 10 c -277 82 -375 269 -699 294 c -305 23 -573 -74 -817 -170 l 0 1 z" stroke-linecap="round"/>
</g>
		<g transform="matrix(0.0378 0 0 0.0378 98.6709 -95.3229)" id="_2233584415728">
<path style="stroke: none; stroke-width: 1; stroke-dasharray: none; stroke-linecap: butt; stroke-dashoffset: 0; stroke-linejoin: miter; stroke-miterlimit: 4; is-custom-font: none; font-file-url: none; fill: rgb(115,115,115); fill-rule: evenodd; opacity: 1;" transform=" translate(-13110.5, -12327.8365)" d="M 12112 12056 l -342 861 c 266 52 509 50 750 -49 c 207 -84 334 -223 588 -276 c 247 -51 537 -15 764 55 c 110 34 214 76 310 127 c 114 62 229 150 269 171 l 0 -893 c -76 -86 -348 -212 -502 -258 c -210 -61 -433 -91 -667 -89 c -228 2 -450 42 -617 138 c -227 132 -231 174 -553 213 l 0 0 z" stroke-linecap="round"/>
</g>
		<g transform="matrix(0.0378 0 0 0.0378 -108.0515 -174.1973)" id="_2233584415728">
<path style="stroke: none; stroke-width: 1; stroke-dasharray: none; stroke-linecap: butt; stroke-dashoffset: 0; stroke-linejoin: miter; stroke-miterlimit: 4; is-custom-font: none; font-file-url: none; fill: rgb(115,115,115); fill-rule: evenodd; opacity: 1;" transform=" translate(-7641, -10240.9508)" d="M 8469 10686 l 261 -828 c -394 -178 -651 -278 -1137 -223 c -343 40 -785 183 -1039 338 l -2 889 c 62 -16 412 -264 900 -351 c 466 -83 672 -6 1017 175 z" stroke-linecap="round"/>
</g>
		<g transform="matrix(0.0378 0 0 0.0378 -119.1458 -95.4103)" id="_2233584415728">
<path style="stroke: none; stroke-width: 1; stroke-dasharray: none; stroke-linecap: butt; stroke-dashoffset: 0; stroke-linejoin: miter; stroke-miterlimit: 4; is-custom-font: none; font-file-url: none; fill: rgb(115,115,115); fill-rule: evenodd; opacity: 1;" transform=" translate(-7347.5, -12325.5259)" d="M 7881 12564 l 262 -832 c -296 -53 -610 -23 -887 48 c -205 52 -562 176 -704 277 l 0 889 c 37 -14 90 -49 128 -69 c 49 -27 91 -50 144 -74 c 347 -160 656 -250 1056 -238 l 1 -1 z" stroke-linecap="round"/>
</g>
		<g transform="matrix(0.0378 0 0 0.0378 -3.7747 -145.4659)" id="_2233584415728">
<path style="stroke: none; stroke-width: 1; stroke-dasharray: none; stroke-linecap: butt; stroke-dashoffset: 0; stroke-linejoin: miter; stroke-miterlimit: 4; is-custom-font: none; font-file-url: none; fill: rgb(245,245,245); fill-rule: evenodd; opacity: 1;" transform=" translate(-10400, -11001.1493)" d="M 9728 10697 l -355 822 l 2054 -827 c -62 -1 -568 -348 -1315 -145 c -186 51 -289 122 -384 150 z" stroke-linecap="round"/>
</g>
		<g transform="matrix(0.0378 0 0 0.0378 -16.9272 -89.6794)" id="_2233584415728">
<path style="stroke: none; stroke-width: 1; stroke-dasharray: none; stroke-linecap: butt; stroke-dashoffset: 0; stroke-linejoin: miter; stroke-miterlimit: 4; is-custom-font: none; font-file-url: none; fill: rgb(115,115,115); fill-rule: evenodd; opacity: 1;" transform=" translate(-10052, -12477.1728)" d="M 8978 12941 c 347 71 693 -139 950 -248 c 364 -155 671 -139 1074 -82 l 124 -612 l -2148 942 l 0 0 z" stroke-linecap="round"/>
</g>
</g>
</g>
</svg>