<svg xmlns="http://www.w3.org/2000/svg" xmlns:xlink="http://www.w3.org/1999/xlink" version="1.1" width="1000" height="1000" viewBox="0 0 1000 1000" xml:space="preserve">
<desc>Created with Fabric.js 3.5.0</desc>
<defs>
</defs>
<rect x="0" y="0" width="100%" height="100%" fill="rgba(255,255,255,0)"/>
<g transform="matrix(1.7141 0 0 1.7141 499.9959 499.9959)" id="690649">
<g style="" vector-effect="non-scaling-stroke">
		<g transform="matrix(1 0 0 1 -450 -450)">
<rect style="stroke: none; stroke-width: 1; stroke-dasharray: none; stroke-linecap: butt; stroke-dashoffset: 0; stroke-linejoin: miter; stroke-miterlimit: 4; is-custom-font: none; font-file-url: none; fill: rgb(255,255,255); fill-rule: nonzero; opacity: 1;" x="-50" y="-50" rx="0" ry="0" width="100" height="100"/>
</g>
		<g transform="matrix(0.1203 0 0 0.1203 3.2284 163.7729)" id="svg2410">
<path style="stroke: none; stroke-width: 1; stroke-dasharray: none; stroke-linecap: butt; stroke-dashoffset: 0; stroke-linejoin: miter; stroke-miterlimit: 4; is-custom-font: none; font-file-url: none; fill: rgb(115,115,115); fill-rule: nonzero; opacity: 1;" vector-effect="non-scaling-stroke" transform=" translate(-10526.5, -16211.5)" d="M 12431 16407 l 138 -387 l 155 0 l 135 387 l -149 0 l -13 -49 l -105 0 l -12 49 l -149 0 z m 184 -141 l 0 0 l 58 0 l -12 -44 c -5 -22 -9 -39 -11 -51 c -3 -12 -4 -23 -4 -34 l -3 0 c 0 11 -2 22 -4 34 c -2 12 -6 29 -12 51 l -12 44 z m -351 141 l 0 0 l 0 -387 l 142 0 l 0 387 l -142 0 z m -364 -44 l 0 0 l 44 -108 c 20 14 38 24 53 30 c 16 7 31 10 44 10 c 10 0 17 -2 23 -5 c 5 -4 8 -9 8 -15 c 0 -11 -14 -19 -41 -25 c -9 -2 -16 -3 -21 -4 c -29 -7 -51 -20 -66 -38 c -15 -18 -23 -40 -23 -67 c 0 -41 15 -75 45 -101 c 29 -26 68 -39 117 -39 c 22 0 44 3 65 8 c 22 6 43 15 65 27 l -42 101 c -13 -10 -27 -17 -40 -23 c -14 -5 -27 -7 -40 -7 c -9 0 -17 1 -22 4 c -5 4 -8 8 -8 14 c 0 11 19 21 58 29 c 6 1 11 2 14 3 c 27 6 48 18 63 37 c 15 18 23 41 23 67 c 0 43 -15 78 -46 105 c -31 27 -72 41 -121 41 c -25 0 -51 -4 -76 -11 c -26 -8 -51 -18 -76 -33 z m -291 44 l 0 0 l 0 -387 l 259 0 l 0 105 l -123 0 l 0 37 l 111 0 l 0 99 l -111 0 l 0 41 l 126 0 l 0 105 l -262 0 z m -465 0 l 0 0 l 0 -387 l 137 0 l 120 202 c -2 -9 -3 -19 -3 -30 c -1 -11 -1 -25 -1 -43 l 0 -129 l 134 0 l 0 387 l -138 0 l -119 -201 c 2 8 3 18 3 28 c 1 10 2 21 2 33 l 0 140 l -135 0 z m -62 -193 l 0 0 c 0 28 -5 55 -15 79 c -10 24 -25 46 -44 66 c -20 18 -42 33 -67 43 c -25 10 -52 15 -81 15 c -29 0 -56 -5 -81 -15 c -25 -10 -48 -25 -67 -44 c -19 -19 -34 -40 -44 -65 c -10 -24 -15 -50 -15 -79 c 0 -29 5 -55 15 -80 c 10 -24 25 -46 44 -65 c 19 -19 41 -33 67 -43 c 25 -10 52 -15 81 -15 c 29 0 56 5 81 15 c 26 10 48 24 68 43 c 19 19 33 41 43 65 c 10 25 15 51 15 80 z m -207 73 l 0 0 c 20 0 35 -7 47 -20 c 12 -13 18 -31 18 -53 c 0 -22 -6 -40 -18 -54 c -12 -13 -27 -20 -47 -20 c -19 0 -35 7 -47 21 c -12 13 -18 31 -18 53 c 0 22 6 40 18 53 c 12 13 28 20 47 20 z m -623 120 l 0 0 l 0 -387 l 112 0 c 36 0 67 2 92 6 c 25 4 46 10 62 18 c 33 18 59 41 77 70 c 18 29 27 62 27 99 c 0 37 -9 70 -27 99 c -18 29 -44 52 -77 70 c -17 9 -38 15 -63 19 c -25 4 -59 6 -101 6 l -102 0 z m 138 -119 l 0 0 c 31 0 54 -6 69 -18 c 14 -12 21 -31 21 -57 c 0 -25 -7 -44 -21 -56 c -13 -12 -35 -18 -63 -18 l -6 0 l 0 149 z m -604 119 l 0 0 l 0 -387 l 136 0 l 120 202 c -1 -9 -2 -19 -3 -30 c -1 -11 -1 -25 -1 -43 l 0 -129 l 134 0 l 0 387 l -137 0 l -119 -201 c 1 8 2 18 3 28 c 0 10 1 21 1 33 l 0 140 l -134 0 z m -217 0 l 0 0 l 0 -387 l 141 0 l 0 387 l -141 0 z m -560 -28 l 0 0 l 44 -108 c 20 14 38 24 53 30 c 16 7 30 10 44 10 c 9 0 17 -2 22 -6 c 6 -3 9 -8 9 -14 c 0 -11 -14 -19 -41 -25 c -9 -2 -16 -3 -21 -4 c -29 -7 -51 -20 -66 -38 c -16 -18 -23 -40 -23 -67 c 0 -41 15 -75 44 -101 c 30 -26 69 -40 117 -40 c 23 0 45 3 66 9 c 21 6 43 15 65 27 l -42 101 c -14 -10 -27 -18 -41 -23 c -13 -5 -26 -8 -39 -8 c -9 0 -17 2 -22 5 c -6 4 -8 8 -8 14 c 0 11 19 21 58 29 c 6 1 11 2 14 3 c 27 6 47 18 63 37 c 15 18 23 41 23 67 c 0 43 -16 78 -47 105 c -30 27 -71 40 -120 40 c -26 0 -51 -3 -76 -10 c -26 -8 -51 -18 -76 -33 z m -29 -160 l 0 0 c 0 29 -5 55 -15 80 c -10 24 -25 46 -44 65 c -20 19 -42 33 -67 43 c -26 10 -53 15 -81 15 c -29 0 -56 -5 -81 -15 c -25 -10 -48 -24 -67 -44 c -19 -18 -34 -40 -44 -64 c -10 -24 -15 -51 -15 -80 c 0 -28 5 -55 15 -79 c 10 -25 25 -46 44 -65 c 19 -19 41 -34 67 -44 c 25 -10 52 -15 81 -15 c 29 0 56 5 81 15 c 26 10 48 25 68 44 c 18 19 33 40 43 65 c 10 24 15 51 15 79 z m -207 73 l 0 0 c 20 0 35 -6 47 -20 c 12 -13 18 -30 18 -53 c 0 -22 -6 -40 -18 -53 c -12 -13 -27 -20 -47 -20 c -20 0 -35 7 -47 20 c -12 14 -18 31 -18 53 c 0 23 6 40 18 53 c 12 14 27 20 47 20 z m -439 -158 l 0 0 l 0 64 l 21 0 c 14 0 24 -3 31 -8 c 7 -6 10 -14 10 -24 c 0 -10 -3 -18 -10 -24 c -8 -5 -18 -8 -31 -8 l -21 0 z m -140 279 l 0 0 l 0 -387 l 166 0 c 59 0 101 11 128 34 c 28 23 41 58 41 107 c 0 46 -12 79 -36 100 c -25 21 -63 32 -116 32 l -44 0 l 0 114 l -139 0 z" stroke-linecap="round"/>
</g>
		<g transform="matrix(0.1203 0 0 0.1203 45.9077 -36.269)" id="svg2410">
<path style="stroke: none; stroke-width: 1; stroke-dasharray: none; stroke-linecap: butt; stroke-dashoffset: 0; stroke-linejoin: miter; stroke-miterlimit: 4; is-custom-font: none; font-file-url: none; fill: rgb(115,115,115); fill-rule: nonzero; opacity: 1;" vector-effect="non-scaling-stroke" transform=" translate(-10881.5, -14548.2778)" d="M 9840 15134 l 417 0 l -113 77 l -255 0 l -41 -62 c -3 -5 -5 -10 -8 -15 z m 2036 69 l 0 0 l -462 2 c -87 234 -317 434 -480 538 c -9 1 -15 2 -21 2 c -9 1 -18 1 -27 1 c -13 0 -25 0 -38 -1 c -4 0 -9 -1 -15 -2 c -99 -60 -233 -152 -306 -255 l 82 -36 c 66 88 146 152 227 232 l 1 -318 l 75 -29 l 2 354 c 159 -133 308 -312 405 -486 l -36 -2 l 172 -76 l 468 -1 c -17 32 -27 47 -47 77 z m -965 -483 l 0 0 l -75 47 l 0 -123 l 75 0 l 0 76 z m -537 333 l 0 0 c -47 -127 -79 -256 -87 -403 l -73 0 c 7 161 34 301 87 452 l 73 -49 z m 535 -1225 l 0 0 l 1 -431 c 135 106 277 255 378 431 l 91 0 c -116 -266 -351 -432 -453 -475 c -6 -1 -13 -2 -20 -2 c -6 0 -13 0 -20 0 c -16 -1 -31 0 -47 0 c -3 0 -7 1 -10 1 c -133 67 -356 243 -447 481 l 98 0 c 84 -183 222 -313 356 -426 l -1 421 l 74 0 z" stroke-linecap="round"/>
</g>
		<g transform="matrix(0.1203 0 0 0.1203 -2.0641 -36.3615)" id="svg2410">
<path style="stroke: none; stroke-width: 1; stroke-dasharray: none; stroke-linecap: butt; stroke-dashoffset: 0; stroke-linejoin: miter; stroke-miterlimit: 4; is-custom-font: none; font-file-url: none; fill: rgb(115,115,115); fill-rule: nonzero; opacity: 1;" vector-effect="non-scaling-stroke" transform=" translate(-10482.5, -14547.5)" d="M 9622 14674 l 71 -6 c 30 275 127 469 284 667 l -57 47 c -182 -214 -292 -463 -298 -708 z m 666 912 l 0 0 l -79 40 c 195 122 430 191 677 191 c 555 -10 1031 -373 1200 -876 l -92 30 c -162 448 -605 775 -1108 775 c -210 0 -427 -66 -598 -160 z m -1564 -1439 l 0 0 l 41 -32 l 2072 -73 c 62 3 137 51 158 94 l -2271 11 z m -154 119 l 0 0 l 2474 -75 c 45 0 119 46 161 92 l -2681 16 l 46 -33 z m -198 157 l 0 0 l 2861 -79 c 76 -3 162 55 175 86 l -3079 28 l 43 -35 z m 3467 -590 l 0 0 c -217 -284 -575 -482 -953 -482 c -382 -7 -762 192 -969 485 l -89 2 c 229 -335 622 -560 1058 -560 c 430 0 815 220 1044 553 l -91 2 z m 642 712 l 0 0 c 26 0 43 22 43 49 c 0 28 -17 43 -43 43 c -26 0 -49 -15 -49 -43 c 0 -27 23 -49 49 -49 z m -3510 -597 l 0 0 l 2959 -80 c 346 79 338 347 169 567 l 322 -4 c 161 -6 249 143 403 292 c -442 49 -844 158 -1301 305 c -640 210 -1234 469 -1880 743 c 335 -369 632 -561 931 -765 c 228 -140 509 -297 720 -410 l 149 0 c -176 88 -430 240 -661 372 c -245 140 -566 356 -786 574 c 563 -232 1042 -435 1599 -611 c 311 -95 673 -209 1055 -271 c -36 -93 -115 -152 -252 -152 l -465 0 c 98 -108 182 -268 181 -388 c -1 -76 -111 -152 -194 -152 l -2984 13 l 35 -33 z m -830 667 l 0 0 l 37 -30 l 3155 -89 c 67 0 116 -12 156 0 c 55 21 94 49 128 88 l -3476 31 z" stroke-linecap="round"/>
</g>
</g>
</g>
</svg>