<svg xmlns="http://www.w3.org/2000/svg" xmlns:xlink="http://www.w3.org/1999/xlink" version="1.1" width="1000" height="1000" viewBox="0 0 1000 1000" xml:space="preserve">
<desc>Created with Fabric.js 3.5.0</desc>
<defs>
</defs>
<rect x="0" y="0" width="100%" height="100%" fill="rgba(255,255,255,0)"/>
<g transform="matrix(0.9091 0 0 0.9091 500.0045 500.0045)" id="534355">
<g style="" vector-effect="non-scaling-stroke">
		<g transform="matrix(1 0 0 1 -450 -450)">
<rect style="stroke: none; stroke-width: 1; stroke-dasharray: none; stroke-linecap: butt; stroke-dashoffset: 0; stroke-linejoin: miter; stroke-miterlimit: 4; is-custom-font: none; font-file-url: none; fill: rgb(255,255,255); fill-opacity: 0; fill-rule: nonzero; opacity: 1;" x="-50" y="-50" rx="0" ry="0" width="100" height="100"/>
</g>
		<g transform="matrix(2.0763 0 0 2.0763 1.296 -1.4352)" id="_2011595964688">
<rect style="stroke: none; stroke-width: 1; stroke-dasharray: none; stroke-linecap: butt; stroke-dashoffset: 0; stroke-linejoin: miter; stroke-miterlimit: 4; is-custom-font: none; font-file-url: none; fill: rgb(250,214,5); fill-opacity: 0; fill-rule: evenodd; opacity: 1;" vector-effect="non-scaling-stroke" x="-214" y="-240" rx="0" ry="0" width="428" height="480"/>
</g>
		<g transform="matrix(2.0763 0 0 2.0763 1.296 -1.4352)" id="_2011595964688">
<path style="stroke: none; stroke-width: 1; stroke-dasharray: none; stroke-linecap: butt; stroke-dashoffset: 0; stroke-linejoin: miter; stroke-miterlimit: 4; is-custom-font: none; font-file-url: none; fill: rgb(115,115,115); fill-rule: evenodd; opacity: 1;" vector-effect="non-scaling-stroke" transform=" translate(-214, -240)" d="M 0 0 l 428 0 l 0 480 l -428 0 l 0 -480 z m 14 15 l 400 0 l 0 450 l -400 0 l 0 -450 z" stroke-linecap="round"/>
</g>
		<g transform="matrix(2.0763 0 0 2.0763 1.296 -1.4352)" id="_2011595964688">
<path style="stroke: none; stroke-width: 1; stroke-dasharray: none; stroke-linecap: butt; stroke-dashoffset: 0; stroke-linejoin: miter; stroke-miterlimit: 4; is-custom-font: none; font-file-url: none; fill: rgb(115,115,115); fill-rule: evenodd; opacity: 1;" vector-effect="non-scaling-stroke" transform=" translate(-214, -240)" d="M 27 452 l 20 0 c 0 -4 0 -7 0 -11 c 0 -51 41 -92 91 -92 c 51 0 92 41 92 92 c 0 4 0 7 -1 11 l 172 0 l 0 -140 l -22 0 c 0 3 1 6 1 10 c 0 41 -33 75 -73 75 c -40 0 -72 -34 -72 -75 l 0 -294 l -151 0 l 0 29 c 66 0 119 54 119 122 c 0 67 -53 122 -119 122 l -57 0 l 0 151 z" stroke-linecap="round"/>
</g>
</g>
</g>
</svg>