<svg xmlns="http://www.w3.org/2000/svg" xmlns:xlink="http://www.w3.org/1999/xlink" version="1.1" width="1000" height="1000" viewBox="0 0 1000 1000" xml:space="preserve">
<desc>Created with Fabric.js 3.5.0</desc>
<defs>
</defs>
<rect x="0" y="0" width="100%" height="100%" fill="rgba(255,255,255,0)"/>
<g transform="matrix(1.3344 0 0 1.3344 500.0075 500.0039)" id="268674">
<g style="">
		<g transform="matrix(1 0 0 1 0.0001 -85.9163)" id="717129">
<g style="">
		<g transform="matrix(0.0452 0 0 0.0452 0.0334 0.0334)" id="Angkasa_x0020_Pura_x0020_II.cdr">
<radialGradient id="SVGID_9" gradientUnits="userSpaceOnUse" gradientTransform="matrix(1.9981 0 0 1.9981 -17862 -12384)" cx="17896" cy="12408" r="2084.61" fx="17896" fy="12408">
<stop offset="0%" style="stop-color:rgb(32,187,233);stop-opacity: 1"/>
<stop offset="54.117599999999996%" style="stop-color:rgb(40,118,186);stop-opacity: 1"/>
<stop offset="100%" style="stop-color:rgb(47,49,139);stop-opacity: 1"/>
</radialGradient>
<path style="stroke: none; stroke-width: 1; stroke-dasharray: none; stroke-linecap: butt; stroke-dashoffset: 0; stroke-linejoin: miter; stroke-miterlimit: 4; is-custom-font: none; font-file-url: none; fill: url(#SVGID_9); fill-rule: evenodd; opacity: 1;" transform=" translate(-18648.5, -13583.5)" d="M 18648 11232 c 1299 0 2352 1053 2352 2352 c 0 1298 -1053 2351 -2352 2351 c -1298 0 -2351 -1053 -2351 -2351 c 0 -1299 1053 -2352 2351 -2352 z" stroke-linecap="round"/>
</g>
		<g transform="matrix(0.0452 0 0 0.0452 -33.1068 -11.8581)" id="Angkasa_x0020_Pura_x0020_II.cdr">
<linearGradient id="SVGID_10" gradientUnits="userSpaceOnUse" gradientTransform="matrix(1 0 0 1 0 0)" x1="16347.2" y1="12276.3" x2="19483.7" y2="14365.2">
<stop offset="0%" style="stop-color:rgb(243,234,0);stop-opacity: 1"/>
<stop offset="100%" style="stop-color:rgb(0,155,76);stop-opacity: 1"/>
</linearGradient>
<path style="stroke: none; stroke-width: 1; stroke-dasharray: none; stroke-linecap: butt; stroke-dashoffset: 0; stroke-linejoin: miter; stroke-miterlimit: 4; is-custom-font: none; font-file-url: none; fill: url(#SVGID_10); fill-rule: evenodd; opacity: 1;" transform=" translate(-17915.5, -13320.5)" d="M 17349 11624 l -446 3509 l 2025 -650 l -779 -2362 l -606 -613 c -67 36 -131 75 -194 116 z" stroke-linecap="round"/>
</g>
		<g transform="matrix(0.0452 0 0 0.0452 21.7031 -12.703)" id="Angkasa_x0020_Pura_x0020_II.cdr">
<polygon style="stroke: none; stroke-width: 1; stroke-dasharray: none; stroke-linecap: butt; stroke-dashoffset: 0; stroke-linejoin: miter; stroke-miterlimit: 4; is-custom-font: none; font-file-url: none; fill: rgb(255,249,177); fill-rule: evenodd; opacity: 1;" points="-200.5,1181 979.5,802 -979.5,-1181 "/>
</g>
		<g transform="matrix(0.0452 0 0 0.0452 41.4781 -31.6138)" id="Angkasa_x0020_Pura_x0020_II.cdr">
<linearGradient id="SVGID_11" gradientUnits="userSpaceOnUse" gradientTransform="matrix(1 0 0 1 0 0)" x1="18734.7" y1="11733.4" x2="20397" y2="14033.9">
<stop offset="0%" style="stop-color:rgb(255,240,0);stop-opacity: 1"/>
<stop offset="100%" style="stop-color:rgb(244,175,9);stop-opacity: 1"/>
</linearGradient>
<path style="stroke: none; stroke-width: 1; stroke-dasharray: none; stroke-linecap: butt; stroke-dashoffset: 0; stroke-linejoin: miter; stroke-miterlimit: 4; is-custom-font: none; font-file-url: none; fill: url(#SVGID_11); fill-rule: evenodd; opacity: 1;" transform=" translate(-19566, -12883.4756)" d="M 19330 11729 l -1181 392 l 1959 1983 c 320 -117 726 -375 875 -806 c -81 -666 -440 -1247 -959 -1622 c -369 -49 -693 56 -694 53 z" stroke-linecap="round"/>
</g>
		<g transform="matrix(0.0452 0 0 0.0452 47.0492 62.3686)" id="Angkasa_x0020_Pura_x0020_II.cdr">
<linearGradient id="SVGID_12" gradientUnits="userSpaceOnUse" gradientTransform="matrix(1 0 0 1 0 0)" x1="18831" y1="14202.3" x2="20548.5" y2="15724.5">
<stop offset="0%" style="stop-color:rgb(250,205,8);stop-opacity: 1"/>
<stop offset="25.098%" style="stop-color:rgb(245,169,16);stop-opacity: 1"/>
<stop offset="100%" style="stop-color:rgb(240,133,25);stop-opacity: 1"/>
</linearGradient>
<path style="stroke: none; stroke-width: 1; stroke-dasharray: none; stroke-linecap: butt; stroke-dashoffset: 0; stroke-linejoin: miter; stroke-miterlimit: 4; is-custom-font: none; font-file-url: none; fill: url(#SVGID_12); fill-rule: evenodd; opacity: 1;" transform=" translate(-19689.5, -14963.5)" d="M 18928 14483 l 443 1340 c 426 -138 799 -393 1080 -729 l -343 -990 l -1180 379 z" stroke-linecap="round"/>
</g>
</g>
</g>
		<g transform="matrix(1 0 0 1 0 128.0521)" id="930647">
<g style="">
		<g transform="matrix(0.0452 0 0 0.0452 -332.5356 -28.3884)" id="Angkasa_x0020_Pura_x0020_II.cdr">
<path style="stroke: none; stroke-width: 1; stroke-dasharray: none; stroke-linecap: butt; stroke-dashoffset: 0; stroke-linejoin: miter; stroke-miterlimit: 4; is-custom-font: none; font-file-url: none; fill: rgb(86,104,146); fill-rule: nonzero; opacity: 1;" transform=" translate(-646.5, -16420.5)" d="M 801 15653 l -303 0 l -498 1535 l 281 0 l 121 -394 l 487 0 l 114 394 l 290 0 l -492 -1535 z m -337 952 l 178 -629 l 185 629 l -363 0 z" stroke-linecap="round"/>
</g>
		<g transform="matrix(0.0452 0 0 0.0452 -271.1066 -28.3884)" id="Angkasa_x0020_Pura_x0020_II.cdr">
<path style="stroke: none; stroke-width: 1; stroke-dasharray: none; stroke-linecap: butt; stroke-dashoffset: 0; stroke-linejoin: miter; stroke-miterlimit: 4; is-custom-font: none; font-file-url: none; fill: rgb(86,104,146); fill-rule: nonzero; opacity: 1;" transform=" translate(-2006, -16420.5)" d="M 2578 15653 l -257 0 l 3 1045 l -603 -1045 l -287 0 l 0 1535 l 257 0 c 0 -382 17 -711 -7 -1093 l 631 1093 l 263 0 l 0 -1535 z" stroke-linecap="round"/>
</g>
		<g transform="matrix(0.0452 0 0 0.0452 -211.7103 -28.3903)" id="Angkasa_x0020_Pura_x0020_II.cdr">
<path style="stroke: none; stroke-width: 1; stroke-dasharray: none; stroke-linecap: butt; stroke-dashoffset: 0; stroke-linejoin: miter; stroke-miterlimit: 4; is-custom-font: none; font-file-url: none; fill: rgb(86,104,146); fill-rule: nonzero; opacity: 1;" transform=" translate(-3320.5, -16420.4527)" d="M 3859 16287 l -494 0 l 0 211 l 219 0 l 0 443 c -24 12 -75 22 -142 22 c -238 0 -370 -180 -370 -535 c 0 -372 172 -573 428 -573 c 127 0 187 24 252 56 l 103 -210 c -69 -36 -190 -66 -336 -64 c -467 6 -737 278 -737 797 c 0 243 71 453 194 583 c 122 127 288 187 507 187 c 163 0 292 -42 376 -75 l 0 -842 z" stroke-linecap="round"/>
</g>
		<g transform="matrix(0.0452 0 0 0.0452 -43.101 -28.4332)" id="Angkasa_x0020_Pura_x0020_II.cdr">
<path style="stroke: none; stroke-width: 1; stroke-dasharray: none; stroke-linecap: butt; stroke-dashoffset: 0; stroke-linejoin: miter; stroke-miterlimit: 4; is-custom-font: none; font-file-url: none; fill: rgb(86,104,146); fill-rule: nonzero; opacity: 1;" transform=" translate(-7052, -16419.5)" d="M 7425 15712 c -67 -36 -161 -81 -297 -81 c -311 0 -496 194 -496 445 c 0 200 135 344 352 444 c 159 73 228 139 228 249 c 0 114 -81 192 -234 192 c -116 0 -236 -27 -310 -75 l -55 237 c 68 43 212 85 354 85 c 335 0 524 -195 524 -463 c 0 -201 -103 -343 -333 -453 c -176 -86 -247 -136 -247 -246 c 0 -85 54 -192 200 -192 c 118 0 206 49 256 77 l 58 -219 z" stroke-linecap="round"/>
</g>
		<g transform="matrix(0.0452 0 0 0.0452 92.0053 -28.9078)" id="Angkasa_x0020_Pura_x0020_II.cdr">
<path style="stroke: none; stroke-width: 1; stroke-dasharray: none; stroke-linecap: butt; stroke-dashoffset: 0; stroke-linejoin: miter; stroke-miterlimit: 4; is-custom-font: none; font-file-url: none; fill: rgb(86,104,146); fill-rule: nonzero; opacity: 1;" transform=" translate(-10042, -16409)" d="M 9547 17188 l 285 0 l 0 -597 l 131 8 c 231 14 574 -71 574 -493 c 0 -141 -56 -265 -149 -343 c -98 -84 -245 -133 -440 -133 c -172 0 -304 43 -401 66 l 0 1492 z m 285 -1350 c 26 -6 79 -12 140 -12 c 165 0 278 90 269 283 c -10 225 -108 281 -293 281 c -45 0 -88 -2 -116 -8 l 0 -544 z" stroke-linecap="round"/>
</g>
		<g transform="matrix(0.0452 0 0 0.0452 143.4496 -27.8912)" id="Angkasa_x0020_Pura_x0020_II.cdr">
<path style="stroke: none; stroke-width: 1; stroke-dasharray: none; stroke-linecap: butt; stroke-dashoffset: 0; stroke-linejoin: miter; stroke-miterlimit: 4; is-custom-font: none; font-file-url: none; fill: rgb(86,104,146); fill-rule: nonzero; opacity: 1;" transform=" translate(-11180.5, -16431.5)" d="M 11697 15653 l -277 0 l 0 927 c 0 273 -92 387 -242 387 c -142 0 -237 -118 -237 -387 l 0 -927 l -277 0 l 0 901 c 0 451 183 656 507 656 c 325 0 526 -209 526 -658 l 0 -899 z" stroke-linecap="round"/>
</g>
		<g transform="matrix(0.0452 0 0 0.0452 332.0119 -28.3884)" id="Angkasa_x0020_Pura_x0020_II.cdr">
<path style="stroke: none; stroke-width: 1; stroke-dasharray: none; stroke-linecap: butt; stroke-dashoffset: 0; stroke-linejoin: miter; stroke-miterlimit: 4; is-custom-font: none; font-file-url: none; fill: rgb(86,104,146); fill-rule: nonzero; opacity: 1;" transform=" translate(-15353.5, -16420.5)" d="M 16012 17188 l 0 -135 l -213 0 l 0 -1265 l 213 0 l 0 -135 c -439 0 -878 0 -1317 0 l 0 135 l 214 0 l 0 1265 l -214 0 l 0 135 c 439 0 878 0 1317 0 z m -826 -135 l 0 -1265 l 336 0 l 0 1265 l -336 0 z" stroke-linecap="round"/>
</g>
		<g transform="matrix(0.0452 0 0 0.0452 -97.0725 -28.3884)" id="Angkasa_x0020_Pura_x0020_II.cdr">
<path style="stroke: none; stroke-width: 1; stroke-dasharray: none; stroke-linecap: butt; stroke-dashoffset: 0; stroke-linejoin: miter; stroke-miterlimit: 4; is-custom-font: none; font-file-url: none; fill: rgb(86,104,146); fill-rule: nonzero; opacity: 1;" transform=" translate(-5857.5, -16420.5)" d="M 6012 15653 l -303 0 l -498 1535 l 281 0 l 121 -394 l 487 0 l 114 394 l 290 0 l -492 -1535 z m -337 952 l 178 -629 l 185 629 l -363 0 z" stroke-linecap="round"/>
</g>
		<g transform="matrix(0.0452 0 0 0.0452 10.6053 -28.3884)" id="Angkasa_x0020_Pura_x0020_II.cdr">
<path style="stroke: none; stroke-width: 1; stroke-dasharray: none; stroke-linecap: butt; stroke-dashoffset: 0; stroke-linejoin: miter; stroke-miterlimit: 4; is-custom-font: none; font-file-url: none; fill: rgb(86,104,146); fill-rule: nonzero; opacity: 1;" transform=" translate(-8240.5, -16420.5)" d="M 8394 15653 l -302 0 l -498 1535 l 280 0 l 122 -394 l 487 0 l 114 394 l 290 0 l -493 -1535 z m -336 952 l 177 -629 l 186 629 l -363 0 z" stroke-linecap="round"/>
</g>
		<g transform="matrix(0.0452 0 0 0.0452 256.8226 -28.3884)" id="Angkasa_x0020_Pura_x0020_II.cdr">
<path style="stroke: none; stroke-width: 1; stroke-dasharray: none; stroke-linecap: butt; stroke-dashoffset: 0; stroke-linejoin: miter; stroke-miterlimit: 4; is-custom-font: none; font-file-url: none; fill: rgb(86,104,146); fill-rule: nonzero; opacity: 1;" transform=" translate(-13689.5, -16420.5)" d="M 13844 15653 l -303 0 l -498 1535 l 280 0 l 122 -394 l 487 0 l 114 394 l 290 0 l -492 -1535 z m -337 952 l 178 -629 l 185 629 l -363 0 z" stroke-linecap="round"/>
</g>
		<g transform="matrix(0.0452 0 0 0.0452 201.807 -28.9078)" id="Angkasa_x0020_Pura_x0020_II.cdr">
<path style="stroke: none; stroke-width: 1; stroke-dasharray: none; stroke-linecap: butt; stroke-dashoffset: 0; stroke-linejoin: miter; stroke-miterlimit: 4; is-custom-font: none; font-file-url: none; fill: rgb(86,104,146); fill-rule: nonzero; opacity: 1;" transform=" translate(-12472, -16409)" d="M 11958 17188 l 285 0 l 0 -631 l 24 1 l 402 628 l 317 2 l -438 -678 c 160 -9 389 -140 401 -392 c 7 -142 -57 -277 -149 -355 c -99 -84 -246 -133 -441 -133 c -171 0 -304 43 -401 66 l 0 1492 z m 285 -1350 c 26 -6 80 -12 140 -12 c 165 0 279 112 270 306 c -10 225 -109 280 -294 280 c -44 0 -88 -2 -116 -8 l 0 -566 z" stroke-linecap="round"/>
</g>
		<g transform="matrix(0.0452 0 0 0.0452 -150.7098 -28.3884)" id="Angkasa_x0020_Pura_x0020_II.cdr">
<polygon style="stroke: none; stroke-width: 1; stroke-dasharray: none; stroke-linecap: butt; stroke-dashoffset: 0; stroke-linejoin: miter; stroke-miterlimit: 4; is-custom-font: none; font-file-url: none; fill: rgb(86,104,146); fill-rule: nonzero; opacity: 1;" points="519.5,767.5 193.5,767.5 -230.5,38.5 -234.5,767.5 -519.5,767.5 -519.5,-767.5 -234.5,-767.5 -234.5,-109.5 187.5,-767.5 493.5,-767.5 7.5,-57.5 "/>
</g>
		<g transform="matrix(0.0452 0 0 0.0452 1.4241 39.8779)" id="Angkasa_x0020_Pura_x0020_II.cdr">
<path style="stroke: none; stroke-width: 1; stroke-dasharray: none; stroke-linecap: butt; stroke-dashoffset: 0; stroke-linejoin: miter; stroke-miterlimit: 4; is-custom-font: none; font-file-url: none; fill: rgb(86,104,146); fill-rule: nonzero; opacity: 1;" transform=" translate(-8037.5, -17931.5)" d="M 8007 18034 l -24 -35 c 18 -15 30 -27 34 -34 c 4 -7 6 -15 6 -23 c 0 -8 -5 -17 -15 -28 c -9 -10 -14 -21 -14 -33 c 0 -35 16 -52 48 -52 c 16 0 28 6 37 17 c 9 11 13 26 13 44 c 0 59 -28 107 -85 144 z" stroke-linecap="round"/>
</g>
		<g transform="matrix(0.0452 0 0 0.0452 -181.1038 49.8669)" id="Angkasa_x0020_Pura_x0020_II.cdr">
<polygon style="stroke: none; stroke-width: 1; stroke-dasharray: none; stroke-linecap: butt; stroke-dashoffset: 0; stroke-linejoin: miter; stroke-miterlimit: 4; is-custom-font: none; font-file-url: none; fill: rgb(86,104,146); fill-rule: nonzero; opacity: 1;" points="-56,306.5 56,306.5 56,-306.5 -56,-306.5 "/>
</g>
		<g transform="matrix(0.0452 0 0 0.0452 -136.7742 49.8896)" id="Angkasa_x0020_Pura_x0020_II.cdr">
<path style="stroke: none; stroke-width: 1; stroke-dasharray: none; stroke-linecap: butt; stroke-dashoffset: 0; stroke-linejoin: miter; stroke-miterlimit: 4; is-custom-font: none; font-file-url: none; fill: rgb(86,104,146); fill-rule: nonzero; opacity: 1;" transform=" translate(-4979, -18153)" d="M 4756 18457 c 29 4 72 8 125 8 c 101 0 181 -25 234 -75 c 44 -43 87 -119 87 -251 c 0 -110 -32 -186 -87 -234 c -48 -42 -113 -64 -210 -64 c -56 0 -108 5 -149 13 l 0 603 z m 110 -518 c 12 -3 30 -5 53 -5 c 103 0 167 68 167 207 c 0 161 -71 230 -177 230 c -15 0 -31 0 -43 -3 l 0 -429 z" stroke-linecap="round"/>
</g>
		<g transform="matrix(0.0452 0 0 0.0452 -111.9669 49.8444)" id="Angkasa_x0020_Pura_x0020_II.cdr">
<path style="stroke: none; stroke-width: 1; stroke-dasharray: none; stroke-linecap: butt; stroke-dashoffset: 0; stroke-linejoin: miter; stroke-miterlimit: 4; is-custom-font: none; font-file-url: none; fill: rgb(86,104,146); fill-rule: nonzero; opacity: 1;" transform=" translate(-5528, -18152)" d="M 5532 17836 c -151 0 -246 135 -246 319 c 0 177 86 313 238 313 c 144 0 246 -109 246 -323 c 0 -163 -78 -309 -238 -309 z m -3 97 c 85 0 125 104 125 217 c 0 123 -43 221 -126 221 c -82 0 -126 -99 -126 -219 c 0 -112 40 -219 127 -219 z" stroke-linecap="round"/>
</g>
		<g transform="matrix(0.0452 0 0 0.0452 -63.2352 49.8669)" id="Angkasa_x0020_Pura_x0020_II.cdr">
<polygon style="stroke: none; stroke-width: 1; stroke-dasharray: none; stroke-linecap: butt; stroke-dashoffset: 0; stroke-linejoin: miter; stroke-miterlimit: 4; is-custom-font: none; font-file-url: none; fill: rgb(86,104,146); fill-rule: nonzero; opacity: 1;" points="161.5,207.5 -50.5,207.5 -50.5,37.5 137.5,37.5 137.5,-59.5 -50.5,-59.5 -50.5,-207.5 149.5,-207.5 149.5,-306.5 -161.5,-306.5 -161.5,306.5 161.5,306.5 "/>
</g>
		<g transform="matrix(0.0452 0 0 0.0452 -29.4829 49.8669)" id="Angkasa_x0020_Pura_x0020_II.cdr">
<polygon style="stroke: none; stroke-width: 1; stroke-dasharray: none; stroke-linecap: butt; stroke-dashoffset: 0; stroke-linejoin: miter; stroke-miterlimit: 4; is-custom-font: none; font-file-url: none; fill: rgb(86,104,146); fill-rule: nonzero; opacity: 1;" points="-55.5,306.5 55.5,306.5 55.5,-306.5 -55.5,-306.5 "/>
</g>
		<g transform="matrix(0.0452 0 0 0.0452 67.9828 49.8669)" id="Angkasa_x0020_Pura_x0020_II.cdr">
<polygon style="stroke: none; stroke-width: 1; stroke-dasharray: none; stroke-linecap: butt; stroke-dashoffset: 0; stroke-linejoin: miter; stroke-miterlimit: 4; is-custom-font: none; font-file-url: none; fill: rgb(86,104,146); fill-rule: nonzero; opacity: 1;" points="-55.5,306.5 55.5,306.5 55.5,-306.5 -55.5,-306.5 "/>
</g>
		<g transform="matrix(0.0452 0 0 0.0452 129.2122 49.8444)" id="Angkasa_x0020_Pura_x0020_II.cdr">
<path style="stroke: none; stroke-width: 1; stroke-dasharray: none; stroke-linecap: butt; stroke-dashoffset: 0; stroke-linejoin: miter; stroke-miterlimit: 4; is-custom-font: none; font-file-url: none; fill: rgb(86,104,146); fill-rule: nonzero; opacity: 1;" transform=" translate(-10865.5, -18152)" d="M 10869 17836 c -151 0 -246 135 -246 319 c 0 177 86 313 239 313 c 143 0 246 -109 246 -323 c 0 -163 -79 -309 -239 -309 z m -3 97 c 85 0 125 104 125 217 c 0 123 -43 221 -125 221 c -82 0 -127 -99 -127 -219 c 0 -112 40 -219 127 -219 z" stroke-linecap="round"/>
</g>
		<g transform="matrix(0.0452 0 0 0.0452 174.1711 49.8669)" id="Angkasa_x0020_Pura_x0020_II.cdr">
<polygon style="stroke: none; stroke-width: 1; stroke-dasharray: none; stroke-linecap: butt; stroke-dashoffset: 0; stroke-linejoin: miter; stroke-miterlimit: 4; is-custom-font: none; font-file-url: none; fill: rgb(86,104,146); fill-rule: nonzero; opacity: 1;" points="175.5,-306.5 -175.5,-306.5 -175.5,-215.5 -55.5,-215.5 -55.5,306.5 55.5,306.5 55.5,-215.5 175.5,-215.5 "/>
</g>
		<g transform="matrix(0.0452 0 0 0.0452 203.9712 49.8444)" id="Angkasa_x0020_Pura_x0020_II.cdr">
<path style="stroke: none; stroke-width: 1; stroke-dasharray: none; stroke-linecap: butt; stroke-dashoffset: 0; stroke-linejoin: miter; stroke-miterlimit: 4; is-custom-font: none; font-file-url: none; fill: rgb(86,104,146); fill-rule: nonzero; opacity: 1;" transform=" translate(-12520, -18152)" d="M 12681 18349 c -20 10 -53 18 -84 18 c -93 0 -152 -75 -152 -213 c 0 -149 68 -218 153 -218 c 35 0 62 10 82 20 l 19 -96 c -14 -9 -50 -23 -106 -23 c -136 0 -252 109 -252 323 c 0 182 86 307 240 307 c 53 0 94 -12 114 -23 l -14 -95 z" stroke-linecap="round"/>
</g>
		<g transform="matrix(0.0452 0 0 0.0452 225.9098 49.8444)" id="Angkasa_x0020_Pura_x0020_II.cdr">
<path style="stroke: none; stroke-width: 1; stroke-dasharray: none; stroke-linecap: butt; stroke-dashoffset: 0; stroke-linejoin: miter; stroke-miterlimit: 4; is-custom-font: none; font-file-url: none; fill: rgb(86,104,146); fill-rule: nonzero; opacity: 1;" transform=" translate(-13005.5, -18152)" d="M 13010 17836 c -151 0 -247 135 -247 319 c 0 177 87 313 239 313 c 144 0 246 -109 246 -323 c 0 -163 -78 -309 -238 -309 z m -3 97 c 85 0 124 104 124 217 c 0 123 -42 221 -125 221 c -82 0 -126 -99 -126 -219 c 0 -112 40 -219 127 -219 z" stroke-linecap="round"/>
</g>
		<g transform="matrix(0.0452 0 0 0.0452 254.2193 49.8669)" id="Angkasa_x0020_Pura_x0020_II.cdr">
<path style="stroke: none; stroke-width: 1; stroke-dasharray: none; stroke-linecap: butt; stroke-dashoffset: 0; stroke-linejoin: miter; stroke-miterlimit: 4; is-custom-font: none; font-file-url: none; fill: rgb(86,104,146); fill-rule: nonzero; opacity: 1;" transform=" translate(-13632, -18152.5)" d="M 13886 17846 l -136 0 l -66 230 c -19 74 -37 148 -50 216 l -2 0 c -13 -70 -30 -141 -48 -216 l -63 -230 l -137 0 l -39 613 l 101 0 l 11 -236 c 4 -76 8 -167 9 -244 l 3 0 c 13 75 31 158 50 227 l 64 244 l 84 0 l 71 -248 c 19 -68 40 -150 57 -223 l 2 0 c -1 77 3 160 6 242 l 11 238 l 105 0 l -33 -613 z" stroke-linecap="round"/>
</g>
		<g transform="matrix(0.0452 0 0 0.0452 351.3679 49.8669)" id="Angkasa_x0020_Pura_x0020_II.cdr">
<path style="stroke: none; stroke-width: 1; stroke-dasharray: none; stroke-linecap: butt; stroke-dashoffset: 0; stroke-linejoin: miter; stroke-miterlimit: 4; is-custom-font: none; font-file-url: none; fill: rgb(86,104,146); fill-rule: nonzero; opacity: 1;" transform=" translate(-15782, -18152.5)" d="M 15882 17846 l -55 150 c -17 45 -31 84 -42 125 l -2 0 c -13 -42 -27 -80 -43 -124 l -57 -151 l -124 0 l 163 364 l 0 249 l 112 0 l 0 -253 l 171 -360 l -123 0 z" stroke-linecap="round"/>
</g>
		<g transform="matrix(0.0452 0 0 0.0452 -163.14 49.8895)" id="Angkasa_x0020_Pura_x0020_II.cdr">
<path style="stroke: none; stroke-width: 1; stroke-dasharray: none; stroke-linecap: butt; stroke-dashoffset: 0; stroke-linejoin: miter; stroke-miterlimit: 4; is-custom-font: none; font-file-url: none; fill: rgb(86,104,146); fill-rule: nonzero; opacity: 1;" transform=" translate(-4395.5, -18153)" d="M 4624 17847 l -103 0 l 1 416 l -241 -416 l -114 0 l 0 612 l 103 0 c 0 -153 7 -284 -3 -436 l 252 436 l 105 0 l 0 -612 z" stroke-linecap="round"/>
</g>
		<g transform="matrix(0.0452 0 0 0.0452 -87.1375 49.8895)" id="Angkasa_x0020_Pura_x0020_II.cdr">
<path style="stroke: none; stroke-width: 1; stroke-dasharray: none; stroke-linecap: butt; stroke-dashoffset: 0; stroke-linejoin: miter; stroke-miterlimit: 4; is-custom-font: none; font-file-url: none; fill: rgb(86,104,146); fill-rule: nonzero; opacity: 1;" transform=" translate(-6077.5, -18153)" d="M 6306 17847 l -103 0 l 1 416 l -240 -416 l -115 0 l 0 612 l 103 0 c 0 -153 7 -284 -3 -436 l 252 436 l 105 0 l 0 -612 z" stroke-linecap="round"/>
</g>
		<g transform="matrix(0.0452 0 0 0.0452 -44.9348 49.5281)" id="Angkasa_x0020_Pura_x0020_II.cdr">
<path style="stroke: none; stroke-width: 1; stroke-dasharray: none; stroke-linecap: butt; stroke-dashoffset: 0; stroke-linejoin: miter; stroke-miterlimit: 4; is-custom-font: none; font-file-url: none; fill: rgb(86,104,146); fill-rule: nonzero; opacity: 1;" transform=" translate(-7011.5, -18145)" d="M 7161 17861 c -27 -14 -65 -32 -119 -32 c -125 0 -199 77 -199 178 c 0 80 54 138 141 178 c 64 29 91 56 91 100 c 0 45 -32 76 -93 76 c -47 0 -95 -10 -125 -29 l -21 94 c 27 18 84 35 141 35 c 134 0 210 -79 210 -186 c 0 -81 -41 -137 -133 -181 c -71 -35 -99 -55 -99 -99 c 0 -34 21 -77 80 -77 c 47 0 82 20 102 31 l 24 -88 z" stroke-linecap="round"/>
</g>
		<g transform="matrix(0.0452 0 0 0.0452 107.2061 49.8895)" id="Angkasa_x0020_Pura_x0020_II.cdr">
<path style="stroke: none; stroke-width: 1; stroke-dasharray: none; stroke-linecap: butt; stroke-dashoffset: 0; stroke-linejoin: miter; stroke-miterlimit: 4; is-custom-font: none; font-file-url: none; fill: rgb(86,104,146); fill-rule: nonzero; opacity: 1;" transform=" translate(-10378.5, -18153)" d="M 10184 18459 l 112 0 l 0 -235 l 51 3 c 91 6 226 -28 226 -193 c 0 -56 -22 -105 -58 -135 c -39 -33 -97 -52 -174 -52 c -67 0 -119 17 -157 25 l 0 587 z m 112 -531 c 10 -2 31 -5 55 -5 c 65 0 109 36 106 112 c -4 88 -43 110 -116 110 c -17 0 -34 -1 -45 -3 l 0 -214 z" stroke-linecap="round"/>
</g>
		<g transform="matrix(0.0452 0 0 0.0452 85.2685 49.8895)" id="Angkasa_x0020_Pura_x0020_II.cdr">
<path style="stroke: none; stroke-width: 1; stroke-dasharray: none; stroke-linecap: butt; stroke-dashoffset: 0; stroke-linejoin: miter; stroke-miterlimit: 4; is-custom-font: none; font-file-url: none; fill: rgb(86,104,146); fill-rule: nonzero; opacity: 1;" transform=" translate(-9893, -18153)" d="M 9691 18459 l 112 0 l 0 -248 l 10 0 l 158 247 l 124 1 l -172 -267 c 63 -3 153 -55 158 -154 c 2 -55 -22 -109 -59 -139 c -39 -33 -96 -52 -173 -52 c -67 0 -119 17 -158 25 l 0 587 z m 112 -531 c 11 -2 32 -5 55 -5 c 65 0 110 45 106 121 c -4 88 -42 110 -115 110 c -18 0 -35 -1 -46 -3 l 0 -223 z" stroke-linecap="round"/>
</g>
		<g transform="matrix(0.0452 0 0 0.0452 -12.332 49.8669)" id="Angkasa_x0020_Pura_x0020_II.cdr">
<path style="stroke: none; stroke-width: 1; stroke-dasharray: none; stroke-linecap: butt; stroke-dashoffset: 0; stroke-linejoin: miter; stroke-miterlimit: 4; is-custom-font: none; font-file-url: none; fill: rgb(86,104,146); fill-rule: nonzero; opacity: 1;" transform=" translate(-7733, -18152.5)" d="M 7794 17846 l -121 0 l -198 613 l 112 0 l 48 -157 l 194 0 l 46 157 l 116 0 l -197 -613 z m -134 380 l 71 -251 l 74 251 l -145 0 z" stroke-linecap="round"/>
</g>
		<g transform="matrix(0.0452 0 0 0.0452 16.179 49.5281)" id="Angkasa_x0020_Pura_x0020_II.cdr">
<path style="stroke: none; stroke-width: 1; stroke-dasharray: none; stroke-linecap: butt; stroke-dashoffset: 0; stroke-linejoin: miter; stroke-miterlimit: 4; is-custom-font: none; font-file-url: none; fill: rgb(86,104,146); fill-rule: nonzero; opacity: 1;" transform=" translate(-8364, -18145)" d="M 8513 17861 c -26 -14 -64 -32 -119 -32 c -124 0 -198 77 -198 178 c 0 80 54 138 141 178 c 63 29 91 56 91 100 c 0 45 -32 76 -93 76 c -47 0 -95 -10 -125 -29 l -22 94 c 27 18 85 35 142 35 c 134 0 210 -79 210 -186 c 0 -81 -41 -137 -134 -181 c -70 -35 -98 -55 -98 -99 c 0 -34 21 -77 80 -77 c 47 0 82 20 102 31 l 23 -88 z" stroke-linecap="round"/>
</g>
		<g transform="matrix(0.0452 0 0 0.0452 50.2955 49.8669)" id="Angkasa_x0020_Pura_x0020_II.cdr">
<path style="stroke: none; stroke-width: 1; stroke-dasharray: none; stroke-linecap: butt; stroke-dashoffset: 0; stroke-linejoin: miter; stroke-miterlimit: 4; is-custom-font: none; font-file-url: none; fill: rgb(86,104,146); fill-rule: nonzero; opacity: 1;" transform=" translate(-9119, -18152.5)" d="M 9180 17846 l -121 0 l -198 613 l 112 0 l 48 -157 l 194 0 l 46 157 l 116 0 l -197 -613 z m -134 380 l 71 -251 l 74 251 l -145 0 z" stroke-linecap="round"/>
</g>
		<g transform="matrix(0.0452 0 0 0.0452 154.4479 49.8895)" id="Angkasa_x0020_Pura_x0020_II.cdr">
<path style="stroke: none; stroke-width: 1; stroke-dasharray: none; stroke-linecap: butt; stroke-dashoffset: 0; stroke-linejoin: miter; stroke-miterlimit: 4; is-custom-font: none; font-file-url: none; fill: rgb(86,104,146); fill-rule: nonzero; opacity: 1;" transform=" translate(-11424, -18153)" d="M 11222 18459 l 112 0 l 0 -248 l 9 0 l 158 247 l 125 1 l -172 -267 c 62 -3 153 -55 157 -154 c 3 -55 -22 -109 -58 -139 c -39 -33 -97 -52 -174 -52 c -67 0 -119 17 -157 25 l 0 587 z m 112 -531 c 10 -2 31 -5 55 -5 c 65 0 109 45 106 121 c -4 88 -43 110 -116 110 c -17 0 -34 -1 -45 -3 l 0 -223 z" stroke-linecap="round"/>
</g>
		<g transform="matrix(0.0452 0 0 0.0452 281.7136 49.8895)" id="Angkasa_x0020_Pura_x0020_II.cdr">
<path style="stroke: none; stroke-width: 1; stroke-dasharray: none; stroke-linecap: butt; stroke-dashoffset: 0; stroke-linejoin: miter; stroke-miterlimit: 4; is-custom-font: none; font-file-url: none; fill: rgb(86,104,146); fill-rule: nonzero; opacity: 1;" transform=" translate(-14240.5, -18153)" d="M 14046 18459 l 111 0 l 0 -235 l 52 3 c 91 6 226 -28 226 -193 c 0 -56 -22 -105 -59 -135 c -38 -33 -96 -52 -173 -52 c -67 0 -119 17 -157 25 l 0 587 z m 111 -531 c 11 -2 32 -5 56 -5 c 64 0 109 36 106 112 c -4 88 -43 110 -116 110 c -17 0 -34 -1 -46 -3 l 0 -214 z" stroke-linecap="round"/>
</g>
		<g transform="matrix(0.0452 0 0 0.0452 301.3477 49.8669)" id="Angkasa_x0020_Pura_x0020_II.cdr">
<path style="stroke: none; stroke-width: 1; stroke-dasharray: none; stroke-linecap: butt; stroke-dashoffset: 0; stroke-linejoin: miter; stroke-miterlimit: 4; is-custom-font: none; font-file-url: none; fill: rgb(86,104,146); fill-rule: nonzero; opacity: 1;" transform=" translate(-14675, -18152.5)" d="M 14736 17846 l -121 0 l -198 613 l 112 0 l 48 -157 l 194 0 l 46 157 l 116 0 l -197 -613 z m -134 380 l 71 -251 l 74 251 l -145 0 z" stroke-linecap="round"/>
</g>
		<g transform="matrix(0.0452 0 0 0.0452 327.5324 49.8895)" id="Angkasa_x0020_Pura_x0020_II.cdr">
<path style="stroke: none; stroke-width: 1; stroke-dasharray: none; stroke-linecap: butt; stroke-dashoffset: 0; stroke-linejoin: miter; stroke-miterlimit: 4; is-custom-font: none; font-file-url: none; fill: rgb(86,104,146); fill-rule: nonzero; opacity: 1;" transform=" translate(-15254.5, -18153)" d="M 15483 17847 l -103 0 l 2 416 l -241 -416 l -115 0 l 0 612 l 103 0 c 0 -153 7 -284 -3 -436 l 252 436 l 105 0 l 0 -612 z" stroke-linecap="round"/>
</g>
</g>
</g>
</g>
</g>
</svg>