<svg xmlns="http://www.w3.org/2000/svg" xmlns:xlink="http://www.w3.org/1999/xlink" version="1.1" width="1000" height="1000" viewBox="0 0 1000 1000" xml:space="preserve">
<desc>Created with Fabric.js 3.5.0</desc>
<defs>
</defs>
<rect x="0" y="0" width="100%" height="100%" fill="rgba(255,255,255,0)"/>
<g transform="matrix(1.2882 0 0 1.2882 500.0044 500.0016)" id="518768">
<g style="">
		<g transform="matrix(0.043 0 0 0.043 -242.8158 -66.9165)" id="Antam_x0020__x0028_Aneka_x0020_Tambang_x0029_.cdr">
<path style="stroke: none; stroke-width: 1; stroke-dasharray: none; stroke-linecap: butt; stroke-dashoffset: 0; stroke-linejoin: miter; stroke-miterlimit: 4; is-custom-font: none; font-file-url: none; fill: rgb(0,113,106); fill-rule: evenodd; opacity: 1;" transform=" translate(-3049, -13295.372)" d="M 3966 14534 c -20 -156 70 -623 115 -786 c 34 -122 72 -222 116 -332 c 26 -66 121 -249 158 -286 c 50 52 131 219 168 305 c 155 364 223 786 227 1195 l -784 -96 z m -2618 98 c 3 -286 39 -591 109 -850 c 34 -126 71 -239 120 -351 c 36 -86 116 -250 166 -301 c 93 92 236 473 275 622 c 42 164 135 625 113 781 l -783 99 z m 1172 -130 c -4 -202 23 -442 48 -640 c 46 -374 133 -741 262 -1085 c 33 -90 166 -393 219 -446 c 23 23 101 173 121 216 c 113 245 191 474 257 747 c 79 327 158 870 150 1208 c -459 -28 -598 -27 -1057 0 z m -246 -1133 l -106 -224 c -51 -100 -124 -219 -189 -306 c -25 -33 -50 -63 -74 -94 c -22 -28 -139 -156 -162 -170 l -214 230 c -153 209 -251 369 -353 640 c -143 379 -217 790 -218 1243 l -480 79 c -73 12 -442 68 -478 87 c 107 7 260 -9 371 -14 c 1423 -62 2793 -65 4218 -38 c 374 7 758 22 1132 38 c 113 5 268 21 377 14 c -36 -19 -401 -74 -474 -87 l -484 -79 c -2 -589 -146 -1257 -458 -1721 l -111 -158 c -44 -61 -162 -192 -216 -234 c -23 14 -140 142 -162 170 c -24 30 -46 57 -72 91 c -62 81 -144 216 -191 310 c -19 37 -38 72 -55 108 c -17 37 -31 79 -51 115 c -23 -77 -41 -162 -62 -240 c -64 -227 -145 -455 -242 -664 c -86 -182 -212 -411 -332 -564 l -118 -146 c -11 -14 -7 -11 -21 -20 l -103 118 c -58 76 -103 137 -156 221 c -207 336 -343 663 -453 1051 c -22 79 -39 166 -63 244 z" stroke-linecap="round"/>
</g>
		<g transform="matrix(0.043 0 0 0.043 -242.741 68.7505)" id="Antam_x0020__x0028_Aneka_x0020_Tambang_x0029_.cdr">
<path style="stroke: none; stroke-width: 1; stroke-dasharray: none; stroke-linecap: butt; stroke-dashoffset: 0; stroke-linejoin: miter; stroke-miterlimit: 4; is-custom-font: none; font-file-url: none; fill: rgb(240,133,25); fill-rule: evenodd; opacity: 1;" transform=" translate(-3050.2549, -16448.8089)" d="M 1743 17125 c 31 -25 53 -46 81 -81 c 14 -17 25 -24 42 -42 c 44 -47 141 -179 179 -236 c 43 -64 82 -137 122 -210 l 109 -225 c 72 319 176 637 302 907 c 93 197 256 487 400 646 c 21 23 49 64 71 81 c 58 -46 215 -274 257 -338 c 235 -348 419 -865 516 -1296 l 108 225 c 90 161 180 308 299 443 l 126 126 c 20 -11 70 -69 90 -89 c 221 -222 369 -509 487 -808 c 128 -326 232 -896 205 -1292 l -387 -2 c 3 325 -23 623 -94 922 c -42 180 -117 400 -203 557 l -98 157 c -51 -55 -142 -245 -174 -324 c -128 -319 -205 -701 -216 -1053 c -3 -84 3 -169 0 -255 c -25 -7 -358 -7 -392 -1 c -2 123 8 243 3 365 c -28 619 -138 1271 -395 1825 l -132 242 l -36 -56 c -329 -584 -460 -1329 -491 -2005 c -5 -125 7 -246 3 -371 l -393 -2 c -7 399 0 523 -91 924 c -31 133 -74 264 -122 383 c -33 80 -125 272 -176 328 l -97 -154 c -228 -416 -304 -1003 -298 -1482 l -388 1 c -9 443 59 918 204 1289 c 66 168 146 354 243 497 c 76 112 148 217 243 313 c 20 20 73 81 93 91 z" stroke-linecap="round"/>
</g>
		<g transform="matrix(0.043 0 0 0.043 33.2143 63.7358)" id="Antam_x0020__x0028_Aneka_x0020_Tambang_x0029_.cdr">
<path style="stroke: none; stroke-width: 1; stroke-dasharray: none; stroke-linecap: butt; stroke-dashoffset: 0; stroke-linejoin: miter; stroke-miterlimit: 4; is-custom-font: none; font-file-url: none; fill: rgb(0,113,106); fill-rule: evenodd; opacity: 1;" transform=" translate(-9464, -16332)" d="M 10385 17362 l -532 0 l 0 -1028 c 0 -218 -12 -358 -35 -422 c -23 -64 -60 -113 -112 -149 c -52 -35 -114 -53 -186 -53 c -94 0 -177 26 -251 76 c -74 51 -125 118 -152 201 c -28 83 -42 237 -42 463 l 0 912 l -532 0 l 0 -2017 l 494 0 l 0 296 c 176 -226 399 -339 667 -339 c 118 0 226 22 324 64 c 99 42 172 96 222 162 c 51 66 86 140 105 224 c 20 83 30 202 30 358 l 0 1252 z" stroke-linecap="round"/>
</g>
		<g transform="matrix(0.043 0 0 0.043 115.023 63.994)" id="Antam_x0020__x0028_Aneka_x0020_Tambang_x0029_.cdr">
<polygon style="stroke: none; stroke-width: 1; stroke-dasharray: none; stroke-linecap: butt; stroke-dashoffset: 0; stroke-linejoin: miter; stroke-miterlimit: 4; is-custom-font: none; font-file-url: none; fill: rgb(0,113,106); fill-rule: evenodd; opacity: 1;" points="-286.5,1024 -286.5,-634 -782.5,-634 -782.5,-1024 782.5,-1024 782.5,-634 265.5,-634 265.5,1024 "/>
</g>
		<g transform="matrix(0.043 0 0 0.043 308.54 63.7358)" id="Antam_x0020__x0028_Aneka_x0020_Tambang_x0029_.cdr">
<path style="stroke: none; stroke-width: 1; stroke-dasharray: none; stroke-linecap: butt; stroke-dashoffset: 0; stroke-linejoin: miter; stroke-miterlimit: 4; is-custom-font: none; font-file-url: none; fill: rgb(0,113,106); fill-rule: evenodd; opacity: 1;" transform=" translate(-15864, -16332)" d="M 14345 15345 l 502 0 l 0 275 c 180 -212 395 -318 644 -318 c 132 0 247 27 344 80 c 98 53 178 133 240 241 c 91 -108 189 -188 294 -241 c 105 -53 217 -80 337 -80 c 151 0 280 30 385 90 c 105 61 184 149 236 265 c 37 86 56 225 56 417 l 0 1288 l -546 0 l 0 -1151 c 0 -200 -19 -329 -57 -387 c -50 -76 -129 -114 -234 -114 c -76 0 -148 23 -216 68 c -67 46 -116 113 -146 200 c -30 88 -45 227 -45 417 l 0 967 l -546 0 l 0 -1104 c 0 -195 -10 -322 -29 -379 c -20 -57 -50 -99 -91 -127 c -40 -28 -96 -42 -166 -42 c -84 0 -160 22 -227 66 c -68 45 -116 108 -145 192 c -29 84 -44 222 -44 415 l 0 979 l -546 0 l 0 -2017 z" stroke-linecap="round"/>
</g>
		<g transform="matrix(0.043 0 0 0.043 -55.9903 62.9172)" id="Antam_x0020__x0028_Aneka_x0020_Tambang_x0029_.cdr">
<path style="stroke: none; stroke-width: 1; stroke-dasharray: none; stroke-linecap: butt; stroke-dashoffset: 0; stroke-linejoin: miter; stroke-miterlimit: 4; is-custom-font: none; font-file-url: none; fill: rgb(0,113,106); fill-rule: nonzero; opacity: 1;" transform=" translate(-7390.5, -16313)" d="M 7735 16457 l -207 0 c -87 0 -162 7 -224 19 c -62 13 -112 33 -151 59 c -39 26 -67 57 -85 94 c -18 37 -27 79 -27 126 c 0 81 26 144 77 190 c 50 46 121 69 212 69 c 76 0 146 -19 210 -58 c 64 -39 129 -96 195 -171 l 0 -328 z m 536 827 c 0 20 -8 36 -22 47 c -14 12 -37 20 -68 25 c -31 6 -77 8 -138 8 c -65 0 -112 -2 -142 -8 c -29 -5 -51 -13 -62 -25 c -13 -11 -19 -27 -19 -47 l 0 -153 c -79 85 -169 150 -271 197 c -101 48 -214 71 -338 71 c -102 0 -196 -13 -281 -40 c -86 -26 -160 -66 -222 -118 c -63 -53 -112 -118 -146 -196 c -35 -78 -52 -169 -52 -272 c 0 -113 22 -210 66 -292 c 44 -84 110 -152 197 -206 c 87 -54 194 -94 324 -120 c 129 -25 279 -39 450 -39 l 188 0 l 0 -116 c 0 -61 -5 -114 -18 -159 c -12 -45 -32 -84 -60 -114 c -28 -30 -65 -52 -113 -67 c -46 -14 -104 -21 -173 -21 c -90 0 -172 10 -242 30 c -72 20 -135 42 -189 67 c -55 24 -100 47 -137 67 c -37 20 -67 30 -89 30 c -17 0 -31 -5 -42 -15 c -13 -10 -23 -25 -31 -43 c -8 -19 -14 -42 -18 -69 c -5 -28 -7 -58 -7 -90 c 0 -45 4 -81 11 -107 c 7 -25 21 -48 41 -70 c 20 -20 55 -43 106 -68 c 50 -25 109 -49 177 -70 c 68 -22 142 -40 221 -53 c 81 -14 163 -21 248 -21 c 151 0 280 15 388 44 c 107 30 195 76 264 137 c 69 61 120 140 152 236 c 31 96 47 211 47 343 l 0 1297 z" stroke-linecap="round"/>
</g>
		<g transform="matrix(0.043 0 0 0.043 193.6214 62.9172)" id="Antam_x0020__x0028_Aneka_x0020_Tambang_x0029_.cdr">
<path style="stroke: none; stroke-width: 1; stroke-dasharray: none; stroke-linecap: butt; stroke-dashoffset: 0; stroke-linejoin: miter; stroke-miterlimit: 4; is-custom-font: none; font-file-url: none; fill: rgb(0,113,106); fill-rule: nonzero; opacity: 1;" transform=" translate(-13192.5, -16313)" d="M 13537 16457 l -207 0 c -88 0 -162 7 -224 19 c -62 13 -112 33 -151 59 c -39 26 -67 57 -85 94 c -18 37 -27 79 -27 126 c 0 81 26 144 76 190 c 51 46 122 69 213 69 c 76 0 146 -19 210 -58 c 64 -39 129 -96 195 -171 l 0 -328 z m 536 827 c 0 20 -8 36 -22 47 c -15 12 -37 20 -68 25 c -31 6 -77 8 -138 8 c -65 0 -112 -2 -142 -8 c -29 -5 -51 -13 -62 -25 c -13 -11 -19 -27 -19 -47 l 0 -153 c -80 85 -169 150 -271 197 c -101 48 -214 71 -338 71 c -102 0 -196 -13 -282 -40 c -85 -26 -159 -66 -221 -118 c -63 -53 -112 -118 -146 -196 c -35 -78 -52 -169 -52 -272 c 0 -113 22 -210 66 -292 c 44 -84 109 -152 196 -206 c 87 -54 195 -94 325 -120 c 129 -25 279 -39 450 -39 l 188 0 l 0 -116 c 0 -61 -6 -114 -18 -159 c -12 -45 -33 -84 -61 -114 c -28 -30 -64 -52 -112 -67 c -46 -14 -104 -21 -173 -21 c -91 0 -172 10 -242 30 c -72 20 -135 42 -189 67 c -55 24 -101 47 -137 67 c -37 20 -67 30 -90 30 c -16 0 -30 -5 -42 -15 c -12 -10 -22 -25 -30 -43 c -8 -19 -14 -42 -18 -69 c -5 -28 -7 -58 -7 -90 c 0 -45 4 -81 11 -107 c 7 -25 21 -48 41 -70 c 20 -20 55 -43 106 -68 c 50 -25 109 -49 177 -70 c 68 -22 141 -40 221 -53 c 80 -14 163 -21 248 -21 c 151 0 280 15 388 44 c 106 30 195 76 264 137 c 69 61 120 140 151 236 c 32 96 48 211 48 343 l 0 1297 z" stroke-linecap="round"/>
</g>
</g>
</g>
</svg>