<svg xmlns="http://www.w3.org/2000/svg" xmlns:xlink="http://www.w3.org/1999/xlink" version="1.1" width="1000" height="1000" viewBox="0 0 1000 1000" xml:space="preserve">
<desc>Created with Fabric.js 3.5.0</desc>
<defs>
</defs>
<rect x="0" y="0" width="100%" height="100%" fill="rgba(255,255,255,0)"/>
<g transform="matrix(1.0369 0 0 1.0369 500.0074 500.0074)" id="721874">
<g style="" vector-effect="non-scaling-stroke">
		<g transform="matrix(1 0 0 1 -450 -450)">
<rect style="stroke: none; stroke-width: 1; stroke-dasharray: none; stroke-linecap: butt; stroke-dashoffset: 0; stroke-linejoin: miter; stroke-miterlimit: 4; is-custom-font: none; font-file-url: none; fill: rgb(255,255,255); fill-opacity: 0; fill-rule: nonzero; opacity: 1;" x="-50" y="-50" rx="0" ry="0" width="100" height="100"/>
</g>
		<g transform="matrix(3.4168 0 0 3.4168 75.8229 102.0836)" id="path1">
<path style="stroke: none; stroke-width: 1; stroke-dasharray: none; stroke-linecap: butt; stroke-dashoffset: 0; stroke-linejoin: miter; stroke-miterlimit: 4; is-custom-font: none; font-file-url: none; fill: rgb(129,131,133); fill-rule: evenodd; opacity: 1;" vector-effect="non-scaling-stroke" transform=" translate(-163.9272, -171.6086)" d="M 50.0161 168.1284 C 50.1386 167.3658 49.9306 167.3947 49.4292 167.2399 C 49.3032 167.2191 49.2663 167.1059 49.331 166.9834 L 49.4696 166.6529 C 49.5551 166.5547 49.6244 166.4773 49.7145 166.4773 L 52.7474 166.4773 C 52.8988 166.4773 52.9473 166.5836 52.8618 166.7997 L 52.7636 167.0238 C 52.7024 167.1983 52.6169 167.2191 52.5268 167.2595 C 52.2125 167.3531 51.8994 167.4432 51.7966 168.1284 L 50.8272 174.6783 C 50.6319 175.9458 50.8064 176.215 51.4465 176.215 L 52.2622 176.215 C 53.2685 176.215 53.5701 174.7638 53.7619 174.8736 L 54.0842 175.0122 C 54.1374 175.0122 54.1536 175.085 54.1374 175.1543 L 53.941 176.5003 C 53.8682 176.8909 53.6475 177.0214 53.3413 177.0214 L 47.9942 177.0214 C 47.8521 177.0214 47.807 176.9313 47.9006 176.7118 L 47.9942 176.4876 C 48.0762 176.3455 48.1282 176.2958 48.2264 176.2716 C 48.5199 176.1653 48.8538 176.0844 48.9439 175.3785 L 50.0161 168.1284 Z Z M 57.1553 172.9995 L 58.9889 168.8343 L 59.0178 168.8343 L 59.4868 172.9995 L 57.1553 172.9995 Z Z M 62.3522 176.2681 C 61.9652 176.126 61.7445 176.0775 61.6428 175.2745 C 61.2396 172.8239 60.8028 169.8453 60.4204 166.9349 C 60.4204 166.6945 60.3719 166.4785 60.2251 166.4785 L 58.2113 166.4785 C 58.0888 166.4785 57.971 166.5027 57.9132 166.6529 L 57.8277 166.8655 C 57.6244 167.2202 58.1339 167.1301 58.3661 167.4363 C 58.4516 167.5865 58.6792 167.8072 58.3858 168.4669 L 55.4141 175.0653 C 55.1691 175.5911 54.9612 175.97 54.5545 176.1653 C 54.3627 176.267 54.224 176.2958 54.1512 176.4507 L 54.0172 176.8031 C 53.8832 177.0884 54.0946 177.0226 54.2252 177.0226 L 55.9617 177.0226 C 56.0877 177.0226 56.1374 176.9047 56.1986 176.8227 L 56.3534 176.5454 C 56.5649 176.223 55.6764 176.297 55.9617 175.6569 L 56.7405 173.9608 L 59.6301 173.9608 L 59.793 175.4073 C 59.8947 176.4276 59.3447 176.126 59.1726 176.4888 L 59.0386 176.7453 C 58.9565 176.9371 58.99 177.0226 59.1483 177.0226 L 61.9975 177.0226 C 62.0795 177.0226 62.1812 176.9821 62.254 176.8597 L 62.4458 176.4969 C 62.4943 176.4276 62.4782 176.297 62.3522 176.2681 Z Z M 72.5821 175.3796 C 72.4839 176.1341 72.7045 176.126 73.1933 176.2681 C 73.3238 176.297 73.34 176.4276 73.2869 176.5408 L 73.1112 176.8597 C 73.0581 176.981 72.9888 177.026 72.8871 177.026 L 69.8623 177.026 C 69.7109 177.026 69.6786 176.9325 69.7525 176.7083 L 69.8623 176.4923 C 69.9351 176.3455 70.009 176.297 70.0991 176.2681 C 70.4169 176.1664 70.7022 176.0809 70.8201 175.3796 L 71.6959 169.4247 L 71.6751 169.3877 L 67.9293 176.6956 C 67.8276 176.8874 67.7664 177.026 67.6844 177.026 L 67.481 177.026 C 67.4117 177.026 67.3504 176.8146 67.3181 176.5489 L 65.83 169.5183 L 65.8057 169.5183 L 64.9553 175.3796 C 64.8328 176.1341 65.0281 176.126 65.5423 176.2681 C 65.6971 176.297 65.6971 176.4276 65.6197 176.5408 L 65.4729 176.8585 C 65.4163 176.981 65.3424 177.026 65.2569 177.026 L 63.2107 177.026 C 63.0316 177.026 63.0154 176.9325 63.1252 176.7083 L 63.2107 176.4923 C 63.2673 176.3455 63.3285 176.297 63.4394 176.2681 C 63.7572 176.1664 64.0553 176.0809 64.1569 175.3796 L 65.2372 168.0475 C 65.0743 167.6154 64.663 167.3219 64.4134 167.2156 C 64.2586 167.159 64.2586 167.0643 64.3199 166.9464 L 64.4712 166.6321 C 64.492 166.5062 64.5856 166.4808 64.6792 166.4808 L 66.44 166.4808 C 66.7254 166.4808 66.9253 166.6321 66.9946 167.0631 L 68.4411 174.0578 L 72.0852 166.9857 C 72.277 166.6552 72.4723 166.4808 72.7253 166.4808 L 74.6456 166.4808 C 74.7923 166.4808 74.8409 166.5871 74.7634 166.7985 L 74.656 167.0643 C 74.5751 167.1994 74.5139 167.2445 74.3914 167.2965 C 74.0575 167.3947 73.7802 167.4559 73.6785 168.1734 L 72.5821 175.3796 Z Z M 78.1568 176.3525 C 77.5214 176.3525 77.0315 176.1364 77.2071 175.011 L 77.6762 171.7667 L 78.4549 171.7667 C 79.4578 171.7667 79.9096 172.8227 79.9096 173.7309 C 79.9096 174.6933 79.5017 176.3525 78.1568 176.3525 Z Z M 78.3937 167.2179 L 79.1227 167.2179 C 79.9096 167.2179 80.2724 167.8049 80.2724 168.624 C 80.2724 170.1041 79.4289 170.9718 78.5566 170.9718 L 77.8102 170.9718 L 78.3925 167.2179 L 78.3937 167.2179 Z Z M 79.9789 171.2653 L 79.9789 171.2167 C 80.8801 170.9718 81.9685 170.0879 81.9685 168.624 C 81.9685 167.2422 81.1944 166.4796 79.7674 166.4796 L 76.0748 166.4796 C 76.0263 166.4796 75.9489 166.549 75.8876 166.6911 L 75.7317 167.0666 C 75.6427 167.2017 75.7478 167.2422 75.8865 167.3 C 76.3602 167.4051 76.5266 167.6535 76.4492 168.2208 L 75.2718 176.059 C 75.199 176.4946 75.2718 176.7522 75.4428 176.8539 C 75.9731 177.1266 76.6698 177.2167 77.7212 177.2167 C 80.8593 177.2167 81.7074 175.1543 81.7074 173.7482 C 81.7074 173.2837 81.5236 171.4906 79.9789 171.2664 Z M 79.9789 171.2653 L 79.9789 171.2653 L 79.9789 171.2653 Z Z M 84.8327 172.9995 L 86.6917 168.8343 L 86.7079 168.8343 L 87.1481 172.9995 L 84.8327 172.9995 Z Z M 90.0169 176.2681 C 89.6253 176.126 89.4138 176.0775 89.3156 175.2745 C 88.9286 172.8239 88.4595 169.8453 88.1013 166.9349 C 88.1013 166.6945 88.0447 166.4785 87.8852 166.4785 L 85.8714 166.4785 C 85.7616 166.4785 85.6519 166.5027 85.5779 166.6529 L 85.4924 166.8655 C 85.2891 167.2202 85.8182 167.1301 86.0181 167.4363 C 86.1163 167.5865 86.3613 167.8072 86.0678 168.4669 L 83.1042 175.0653 C 82.835 175.5911 82.6236 175.97 82.2192 176.1653 C 82.0401 176.267 81.8934 176.2958 81.8321 176.4507 L 81.6935 176.8031 C 81.5629 177.0884 81.779 177.0226 81.8934 177.0226 L 83.6461 177.0226 C 83.7639 177.0226 83.8171 176.9047 83.8783 176.8227 L 84.0378 176.5454 C 84.2169 176.223 83.3445 176.297 83.6345 175.6569 L 84.4052 173.9608 L 87.2867 173.9608 L 87.4739 175.4073 C 87.5594 176.4276 87.0175 176.126 86.8338 176.4888 L 86.7194 176.7453 C 86.6259 176.9371 86.6906 177.0226 86.813 177.0226 L 89.683 177.0226 C 89.7766 177.0226 89.8621 176.9821 89.9395 176.8597 L 90.1151 176.4969 C 90.1683 176.4276 90.1278 176.297 90.0169 176.2681 Z Z M 97.988 174.2346 L 98.0042 174.2346 L 98.9007 168.1284 C 99.0232 167.367 98.836 167.3947 98.3103 167.2399 C 98.1717 167.2202 98.1717 167.1059 98.241 166.988 L 98.3831 166.6576 C 98.4444 166.5513 98.501 166.4819 98.6073 166.4819 L 100.6454 166.4819 C 100.7967 166.4819 100.8372 166.5836 100.7551 166.8043 L 100.6454 167.0238 C 100.5761 167.1994 100.5148 167.2202 100.4259 167.2607 C 100.1162 167.3543 99.81 167.4478 99.7003 168.1284 L 98.4605 176.587 C 98.3993 176.855 98.2895 177.0272 98.1058 177.0272 L 97.2705 177.0272 C 97.1237 177.0272 97.0175 176.929 96.769 176.3467 L 93.594 169.0793 L 93.5813 169.0793 L 92.6686 175.3761 C 92.5703 176.1341 92.7587 176.126 93.2717 176.2693 C 93.4022 176.2982 93.423 176.4287 93.3618 176.5385 L 93.1908 176.8562 C 93.1261 176.9787 93.0649 177.0272 92.9666 177.0272 L 90.9412 177.0272 C 90.7737 177.0272 90.7252 176.9336 90.8349 176.7048 L 90.9412 176.4888 C 90.9863 176.3467 91.0753 176.297 91.1654 176.2693 C 91.4716 176.1676 91.7766 176.0821 91.854 175.3761 L 92.9505 168.044 C 92.8037 167.6165 92.3924 167.3231 92.1475 167.2202 C 91.988 167.1636 91.9927 167.0654 92.0331 166.9476 L 92.2041 166.6298 C 92.2411 166.5074 92.3139 166.4831 92.404 166.4831 L 94.3762 166.4831 C 94.6408 166.5074 94.7425 166.7974 94.9066 167.107 L 97.988 174.2346 Z Z M 108.4073 176.2138 C 108.338 176.6459 108.256 177.0122 108.0041 177.0122 L 106.8383 177.0122 C 106.6188 177.0122 106.7043 176.6009 106.7366 176.4495 L 106.7805 176.2138 L 106.7401 176.1768 C 106.4628 176.6944 105.4761 177.2121 104.7389 177.2121 C 102.0654 177.2121 100.9192 174.6078 100.9192 172.5454 C 100.9192 169.8349 102.6234 166.3098 106.442 166.3098 C 107.7499 166.3098 108.5783 166.8436 108.851 167.0677 C 108.9654 167.1451 108.933 167.2595 108.9295 167.3647 L 108.7297 168.7061 C 108.7297 168.7546 108.6881 168.7835 108.6603 168.8401 L 108.4073 169.0816 C 108.13 169.3346 108.1508 167.1659 106.3126 167.1659 C 103.944 167.1659 102.8233 170.2312 102.8233 172.3999 C 102.8233 174.5801 103.7441 176.178 105.0971 176.178 C 106.4501 176.178 107.1063 174.8412 107.1063 173.9608 C 107.1063 173.5853 107.0613 173.3253 106.7355 173.1982 C 106.5517 172.9868 106.2791 172.9984 106.3854 172.7707 L 106.5402 172.4692 C 106.6176 172.3224 106.7031 172.2739 106.8383 172.2739 L 108.7297 172.2739 C 108.9665 172.2739 108.9376 172.4207 108.9295 172.6737 L 108.4073 176.2138 Z Z M 163.2341 175.3796 C 163.1244 176.1341 163.3277 176.126 163.8372 176.2681 C 163.9794 176.297 163.9794 176.4276 163.9147 176.5408 L 163.7841 176.8597 C 163.7067 176.981 163.6293 177.026 163.5357 177.026 L 160.4993 177.026 C 160.3572 177.026 160.3283 176.9325 160.4057 176.7083 L 160.4993 176.4923 C 160.5606 176.3455 160.6414 176.297 160.7316 176.2681 C 161.0377 176.1664 161.3508 176.0809 161.4571 175.3796 L 162.3375 169.4247 L 162.3214 169.3877 L 158.5675 176.6956 C 158.4728 176.8874 158.3953 177.026 158.3064 177.026 L 158.1435 177.026 C 158.0453 177.026 158.0014 176.8146 157.9517 176.5489 L 156.4843 169.5183 L 156.4554 169.5183 L 155.5912 175.3796 C 155.4814 176.1341 155.6767 176.126 156.1943 176.2681 C 156.3364 176.297 156.3364 176.4276 156.2764 176.5408 L 156.1169 176.8585 C 156.0395 176.981 155.9783 177.026 155.9009 177.026 L 153.8466 177.026 C 153.679 177.026 153.6467 176.9325 153.7449 176.7083 L 153.8466 176.4923 C 153.8951 176.3455 153.9806 176.297 154.0707 176.2681 C 154.3723 176.1664 154.69 176.0809 154.7755 175.3796 L 155.872 168.0475 C 155.7171 167.6154 155.3012 167.3219 155.0528 167.2156 C 154.9014 167.159 154.9014 167.0643 154.9546 166.9464 L 155.1059 166.6321 C 155.1545 166.5062 155.2284 166.4808 155.3255 166.4808 L 157.0655 166.4808 C 157.3751 166.4808 157.5588 166.6321 157.6443 167.0631 L 159.0793 174.0578 L 162.7431 166.9857 C 162.8979 166.6552 163.1221 166.4808 163.3462 166.4808 L 165.2699 166.4808 C 165.4571 166.4808 165.4733 166.5871 165.3843 166.7985 L 165.3046 167.0643 C 165.2226 167.1994 165.1371 167.2445 165.0192 167.2965 C 164.6807 167.3947 164.4404 167.4559 164.326 168.1734 L 163.2341 175.3796 Z Z M 167.6639 172.9995 L 169.5068 168.8343 L 169.5114 168.8343 L 169.9909 172.9995 L 167.6639 172.9995 Z Z M 172.8481 176.2681 C 172.4611 176.126 172.2497 176.0775 172.1272 175.2745 C 171.7598 172.8239 171.2872 169.8453 170.929 166.9349 C 170.929 166.6945 170.8713 166.4785 170.7292 166.4785 L 168.7038 166.4785 C 168.5928 166.4785 168.4623 166.5027 168.4184 166.6529 L 168.3236 166.8655 C 168.1203 167.2202 168.6344 167.1301 168.8378 167.4363 C 168.9475 167.5865 169.1879 167.8072 168.8863 168.4669 L 165.9274 175.0653 C 165.6743 175.5911 165.471 175.97 165.0389 176.1653 C 164.8794 176.267 164.7211 176.2958 164.668 176.4507 L 164.5212 176.8007 C 164.3872 177.0861 164.5906 177.0203 164.7211 177.0203 L 166.4658 177.0203 C 166.5917 177.0203 166.6368 176.9024 166.7061 176.8204 L 166.8609 176.5431 C 167.0527 176.2207 166.1596 176.2947 166.4531 175.6546 L 167.2156 173.9585 L 170.1133 173.9585 L 170.289 175.405 C 170.3906 176.4276 169.8568 176.126 169.6616 176.4888 L 169.5472 176.7453 C 169.4652 176.9371 169.5056 177.0226 169.6616 177.0226 L 172.4946 177.0226 C 172.5963 177.0226 172.6783 176.9821 172.7638 176.8597 L 172.951 176.4969 C 172.996 176.4276 172.9672 176.297 172.8493 176.2681 Z M 172.8481 176.2681 L 172.8481 176.2681 L 172.8481 176.2681 Z Z M 176.9879 171.3126 L 177.0122 171.3612 L 180.6066 166.4819 L 182.0093 166.4819 L 181.9238 167.1105 C 181.8914 167.5299 181.1866 167.5876 180.2565 168.7488 L 178.349 171.092 C 179.1843 172.877 180.3386 175.241 180.5985 175.6973 C 180.8308 176.1248 181.0792 176.3455 181.0387 176.4957 L 180.974 177.026 L 179.5113 177.026 C 179.1855 177.026 178.9001 176.7407 178.5408 175.9134 L 176.9186 171.903 L 176.8897 171.903 L 176.401 175.3796 C 176.2623 176.1341 176.4703 176.126 176.9879 176.2646 C 177.1185 176.2935 177.1266 176.4276 177.078 176.5385 L 176.8978 176.8562 C 176.8447 176.9821 176.7961 177.0272 176.6944 177.0272 L 173.6373 177.0272 C 173.5148 177.0272 173.4536 176.9371 173.5472 176.7095 L 173.6373 176.4934 C 173.7228 176.3467 173.7678 176.2935 173.8903 176.2646 C 174.1884 176.1664 174.4934 176.0775 174.6032 175.3796 L 175.6754 168.1249 C 175.7898 167.3623 175.5899 167.3959 175.0804 167.2445 C 174.9579 167.2202 174.9579 167.1105 174.9983 166.988 L 175.174 166.6576 C 175.2225 166.5478 175.2675 166.4819 175.3738 166.4819 L 178.4148 166.4819 C 178.5662 166.4819 178.5904 166.5882 178.513 166.7997 L 178.431 167.0204 C 178.349 167.1994 178.2796 167.2202 178.1699 167.2607 C 177.8683 167.3508 177.5621 167.4444 177.4732 168.1249 L 176.9879 171.3126 Z Z M 184.1791 172.9995 L 186.0092 168.8343 L 186.0416 168.8343 L 186.5187 172.9995 L 184.1791 172.9995 Z Z M 189.3633 176.2681 C 188.989 176.126 188.7567 176.0775 188.6632 175.2745 C 188.2715 172.8239 187.8186 169.8453 187.4442 166.9349 C 187.4442 166.6945 187.3992 166.4785 187.257 166.4785 L 185.2316 166.4785 C 185.0999 166.4785 184.9948 166.5027 184.9336 166.6529 L 184.84 166.8655 C 184.6401 167.2202 185.1577 167.1301 185.3691 167.4363 C 185.4673 167.5865 185.703 167.8072 185.4142 168.4669 L 182.4425 175.0653 C 182.1895 175.5911 181.9896 175.97 181.5748 176.1653 C 181.3796 176.267 181.2525 176.2958 181.1635 176.4507 L 181.0376 176.8007 C 180.907 177.0861 181.1196 177.0203 181.2536 177.0203 L 182.9936 177.0203 C 183.1196 177.0203 183.1612 176.9024 183.2224 176.8204 L 183.3934 176.5431 C 183.5852 176.2207 182.6967 176.2947 182.9775 175.6546 L 183.7597 173.9585 L 186.662 173.9585 L 186.8134 175.405 C 186.9358 176.4241 186.3651 176.1225 186.1941 176.4853 L 186.0624 176.7453 C 185.985 176.9371 186.0092 177.0226 186.1721 177.0226 L 189.0329 177.0226 C 189.1022 177.0226 189.1923 176.9821 189.2813 176.8597 L 189.465 176.4969 C 189.5054 176.4276 189.4939 176.297 189.3633 176.2681 Z Z M 197.3344 174.2346 L 197.3633 174.2346 L 198.2679 168.1284 C 198.3777 167.367 198.1697 167.3947 197.6683 167.2399 C 197.5296 167.2202 197.5296 167.1059 197.5631 166.988 L 197.7388 166.6576 C 197.7954 166.5513 197.8612 166.4819 197.9756 166.4819 L 200.0056 166.4819 C 200.157 166.4819 200.2055 166.5836 200.1038 166.8043 L 200.0045 167.0238 C 199.9513 167.1994 199.8612 167.2202 199.7723 167.2607 C 199.4661 167.3543 199.1564 167.4478 199.0548 168.1284 L 197.8069 176.587 C 197.77 176.855 197.6359 177.0272 197.4649 177.0272 L 196.6296 177.0272 C 196.454 177.0272 196.3846 176.929 196.1073 176.3467 L 192.9728 169.0793 L 192.9404 169.0793 L 192.023 175.3761 C 191.9087 176.1341 192.1212 176.126 192.6308 176.2693 C 192.7567 176.2982 192.7856 176.4287 192.7082 176.5385 L 192.5568 176.8562 C 192.4921 176.9787 192.4309 177.0272 192.3246 177.0272 L 190.2749 177.0272 C 190.1571 177.0272 190.0912 176.9336 190.1767 176.7048 L 190.2749 176.4888 C 190.365 176.3467 190.4136 176.297 190.5118 176.2693 C 190.8006 176.1676 191.1149 176.0821 191.2131 175.3761 L 192.3257 168.044 C 192.1455 167.6154 191.7457 167.3219 191.4939 167.2202 C 191.3344 167.1625 191.3587 167.0654 191.3829 166.9464 L 191.5505 166.6287 C 191.6152 166.5062 191.6764 166.4819 191.77 166.4819 L 193.7307 166.4819 C 193.9884 166.5062 194.1016 166.7962 194.2402 167.1059 L 197.3344 174.2346 Z Z M 201.9814 172.9995 L 203.8242 168.8343 L 203.8647 168.8343 L 204.3337 172.9995 L 201.9814 172.9995 Z Z M 207.1829 176.2681 C 206.7959 176.126 206.5671 176.0775 206.4781 175.2745 C 206.0865 172.8239 205.6255 169.8453 205.2511 166.9349 C 205.2511 166.6945 205.2095 166.4785 205.0432 166.4785 L 203.0374 166.4785 C 202.9115 166.4785 202.8052 166.5027 202.752 166.6529 L 202.6584 166.8655 C 202.447 167.2202 202.9808 167.1301 203.1841 167.4363 C 203.2858 167.5865 203.5227 167.8072 203.2165 168.4669 L 200.2529 175.0653 C 199.9918 175.5911 199.7919 175.97 199.3852 176.1653 C 199.2061 176.267 199.0548 176.2958 198.9935 176.4507 L 198.8387 176.8007 C 198.7324 177.0861 198.9242 177.0203 199.0548 177.0203 L 200.8156 177.0203 C 200.93 177.0203 200.9623 176.9024 201.0235 176.8204 L 201.1992 176.5431 C 201.391 176.2207 200.5186 176.2947 200.8075 175.6546 L 201.5735 173.9585 L 204.4551 173.9585 L 204.6307 175.405 C 204.737 176.4276 204.1824 176.126 204.0033 176.4888 L 203.8854 176.7453 C 203.7919 176.9371 203.8242 177.0226 203.9744 177.0226 L 206.8398 177.0226 C 206.9334 177.0226 207.0431 176.9821 207.0928 176.8597 L 207.2719 176.4969 C 207.3285 176.4276 207.3123 176.297 207.1818 176.2681 Z M 207.1829 176.2681 L 207.1829 176.2681 L 207.1829 176.2681 Z Z M 215.1517 174.2346 L 215.1806 174.2346 L 216.0818 168.1284 C 216.2077 167.367 215.9997 167.3947 215.4821 167.2399 C 215.3516 167.2202 215.3516 167.1059 215.4093 166.988 L 215.548 166.6576 C 215.6335 166.5513 215.6993 166.4819 215.7929 166.4819 L 217.8264 166.4819 C 217.9685 166.4819 218.0182 166.5836 217.9281 166.8043 L 217.8264 167.0238 C 217.7686 167.1994 217.6912 167.2202 217.5896 167.2607 C 217.3042 167.3543 216.9737 167.4478 216.9009 168.1284 L 215.6369 176.587 C 215.6 176.855 215.474 177.0272 215.2788 177.0272 L 214.455 177.0272 C 214.2921 177.0272 214.2019 176.929 213.9327 176.3467 L 210.7901 169.0793 L 210.7612 169.0793 L 209.8438 175.3761 C 209.7537 176.1341 209.942 176.126 210.4469 176.2693 C 210.5809 176.2982 210.6064 176.4287 210.537 176.5385 L 210.3695 176.8562 C 210.3291 176.9787 210.247 177.0272 210.1407 177.0272 L 208.1073 177.0272 C 207.9559 177.0272 207.9074 176.9336 208.0137 176.7048 L 208.1073 176.4888 C 208.1847 176.3467 208.2413 176.297 208.3233 176.2693 C 208.6491 176.1676 208.931 176.0821 209.0489 175.3761 L 210.1407 168.044 C 209.9859 167.6165 209.5862 167.3231 209.3054 167.2202 C 209.154 167.1636 209.1748 167.0654 209.2199 166.9476 L 209.362 166.6298 C 209.4267 166.5074 209.5007 166.4831 209.5908 166.4831 L 211.563 166.4831 C 211.8265 166.5062 211.9397 166.7962 212.083 167.1059 L 215.1517 174.2346 Z Z M 224.2735 176.3525 C 223.6496 176.3525 223.1528 176.1364 223.3238 175.011 L 223.8044 171.7667 L 224.5785 171.7667 C 225.5826 171.7667 226.0181 172.8227 226.0181 173.7309 C 226.0181 174.6933 225.6114 176.3525 224.2735 176.3525 Z Z M 224.5023 167.2179 L 225.2359 167.2179 C 226.0181 167.2179 226.3971 167.8049 226.3971 168.624 C 226.3971 170.1041 225.5375 170.9718 224.686 170.9718 L 223.9119 170.9718 L 224.5034 167.2179 L 224.5023 167.2179 Z Z M 226.0713 171.2653 L 226.0713 171.2167 C 227.0048 170.9718 228.0886 170.0879 228.0886 168.624 C 228.0886 167.2422 227.3226 166.4796 225.8714 166.4796 L 222.203 166.4796 C 222.1383 166.4796 222.0644 166.549 221.9916 166.6922 L 221.8322 167.0666 C 221.7467 167.2017 221.8657 167.2422 222.0124 167.3 C 222.4769 167.4051 222.6432 167.6535 222.5658 168.2208 L 221.4081 176.059 C 221.3261 176.4946 221.4081 176.7522 221.5549 176.8539 C 222.0771 177.1266 222.79 177.2167 223.8287 177.2167 C 226.9921 177.2167 227.831 175.1543 227.831 173.7482 C 227.831 173.2837 227.6311 171.4906 226.0701 171.2664 Z M 226.0713 171.2653 L 226.0713 171.2653 L 226.0713 171.2653 Z Z M 234.9978 166.4819 C 235.2104 166.4819 235.304 166.6576 235.2301 167.0238 L 235.0753 168.1203 C 235.0753 168.1653 235.0383 168.1977 235.0186 168.2462 L 234.7656 168.5039 C 234.501 168.765 234.5368 167.2976 233.787 167.2976 L 232.315 167.2976 L 231.7812 170.8597 L 234.263 170.8597 C 234.4144 170.8597 234.4467 170.9418 234.3855 171.092 L 234.1567 171.6338 C 234.0747 171.7852 233.9568 171.8175 233.7858 171.8175 L 231.6253 171.8175 L 231.1931 174.6748 C 231.0141 175.9469 231.1643 176.2115 231.809 176.2115 L 232.7587 176.2115 C 233.7535 176.2115 234.0747 174.7649 234.263 174.8747 L 234.5808 175.0134 C 234.6293 175.0134 234.6455 175.0861 234.6293 175.1555 L 234.419 176.4923 C 234.3866 176.8886 234.1544 177.0272 233.8529 177.0272 L 229.5929 177.0272 C 229.3075 177.0272 229.0915 177.0399 229.2301 175.9146 L 230.3878 168.2277 C 230.4733 167.6535 230.3058 167.4086 229.8413 167.2988 C 229.6819 167.2422 229.5767 167.2006 229.6738 167.0666 L 229.8205 166.6911 C 229.8783 166.5478 229.9603 166.4819 230.0054 166.4819 L 234.9978 166.4819 Z Z M 239.2335 171.5264 L 238.5079 171.5264 L 239.1318 167.2225 L 239.8944 167.2225 C 240.6523 167.2214 241.0232 167.9886 241.0232 168.9221 C 241.0232 170.4057 240.196 171.5264 239.2335 171.5264 Z M 242.8903 168.9221 C 242.8903 167.6061 242.3161 166.4808 240.5911 166.4808 L 236.8499 166.4808 C 236.7933 166.4808 236.7113 166.5536 236.642 166.6922 L 236.4825 167.0666 C 236.3843 167.2017 236.523 167.2422 236.6662 167.3 C 237.1388 167.4051 237.3017 167.6535 237.2243 168.2243 L 236.1486 175.3785 C 236.0423 176.0786 235.7327 176.1641 235.423 176.2704 C 235.3248 176.2947 235.2474 176.3444 235.1943 176.4865 L 235.0961 176.706 C 235.014 176.9348 235.0394 177.0203 235.2104 177.0203 L 238.2272 177.0203 C 238.3335 177.0203 238.382 176.9752 238.4271 176.8574 L 238.6061 176.5396 C 238.6674 176.4299 238.6674 176.2947 238.516 176.2704 C 238.0146 176.1283 237.8031 176.1364 237.9372 175.3773 L 238.3727 172.3652 L 239.1919 172.3652 L 240.3288 176.5674 C 240.4062 176.8562 240.6015 177.0203 240.7771 177.0203 L 242.5137 177.0203 L 242.5137 176.5396 C 242.1474 176.1364 241.6252 174.4645 240.7367 172.1422 C 241.9233 171.6777 242.8892 170.3814 242.8892 168.9221 Z M 242.8903 168.9221 L 242.8903 168.9221 L 242.8903 168.9221 Z Z M 252.6592 175.3796 C 252.5563 176.1341 252.7608 176.126 253.2623 176.2681 C 253.3882 176.297 253.4171 176.4276 253.3593 176.5408 L 253.193 176.8597 C 253.1352 176.981 253.0578 177.026 252.9526 177.026 L 249.9359 177.026 C 249.7603 177.026 249.7407 176.9325 249.8458 176.7083 L 249.9359 176.4923 C 249.9971 176.3455 250.0746 176.297 250.1473 176.2681 C 250.4489 176.1664 250.7909 176.0809 250.881 175.3796 L 251.7661 169.4247 L 251.7533 169.3877 L 247.9949 176.6956 C 247.9128 176.8874 247.8239 177.026 247.7418 177.026 L 247.55 177.026 C 247.4772 177.026 247.4276 176.8146 247.3744 176.5489 L 245.9151 169.5183 L 245.8828 169.5183 L 245.0451 175.3796 C 244.8984 176.1341 245.1064 176.126 245.6159 176.2681 C 245.7673 176.297 245.7673 176.4276 245.706 176.5408 L 245.5547 176.8585 C 245.5015 176.981 245.4241 177.026 245.3259 177.026 L 243.2762 177.026 C 243.1087 177.026 243.081 176.9325 243.178 176.7083 L 243.2762 176.4923 C 243.3248 176.3455 243.4149 176.297 243.505 176.2681 C 243.8146 176.1664 244.1046 176.0809 244.2179 175.3796 L 245.3271 168.0475 C 245.148 167.6154 244.732 167.3219 244.4709 167.2156 C 244.3288 167.159 244.3288 167.0643 244.3808 166.9464 L 244.5437 166.6321 C 244.5922 166.5062 244.6535 166.4808 244.7551 166.4808 L 246.4836 166.4808 C 246.7979 166.4808 246.9804 166.6321 247.0786 167.0631 L 248.5055 174.0578 L 252.1693 166.9857 C 252.3322 166.6552 252.5321 166.4808 252.777 166.4808 L 254.7088 166.4808 C 254.8845 166.4808 254.9249 166.5871 254.8186 166.7985 L 254.7088 167.0643 C 254.6603 167.1994 254.5667 167.2445 254.4558 167.2965 C 254.1219 167.3947 253.8573 167.4559 253.7672 168.1734 L 252.6592 175.3796 Z Z M 262.0872 172.8239 C 261.6597 175.6569 260.5181 177.2132 258.4719 177.2132 C 256.2663 177.2132 255.3131 175.5344 255.7406 172.7419 L 256.4177 168.1238 C 256.5355 167.3658 256.3275 167.3947 255.7903 167.2433 C 255.6678 167.2191 255.6678 167.1093 255.7418 166.9868 L 255.9093 166.6564 C 255.9544 166.5501 256.0433 166.4808 256.1126 166.4808 L 259.1328 166.4808 C 259.3038 166.4808 259.3362 166.5871 259.2391 166.7985 L 259.1317 167.0204 C 259.0832 167.1994 259.0138 167.2191 258.9237 167.2607 C 258.606 167.3496 258.3252 167.4432 258.2189 168.1249 L 257.4725 172.9833 C 257.1791 174.8088 257.6805 175.9954 258.9607 175.9954 C 260.1958 175.9954 260.9699 174.8088 261.2796 172.743 L 261.9924 168.1249 C 262.1022 167.367 261.8861 167.3959 261.3847 167.2445 C 261.238 167.2202 261.238 167.1105 261.3073 166.988 L 261.4586 166.6576 C 261.5199 166.5513 261.5649 166.4819 261.6909 166.4819 L 263.7244 166.4819 C 263.8838 166.4819 263.9196 166.5882 263.8468 166.7997 L 263.7255 167.0204 C 263.6677 167.1994 263.5903 167.2191 263.4968 167.2607 C 263.1836 167.3496 262.8648 167.4432 262.792 168.1249 L 262.0872 172.8239 Z Z M 267.4863 175.3796 C 267.3846 176.1341 267.5672 176.126 268.0686 176.2681 C 268.2073 176.297 268.2119 176.4276 268.1541 176.5408 L 268.012 176.8597 C 267.9473 176.981 267.8734 177.026 267.7833 177.026 L 264.7584 177.026 C 264.5909 177.026 264.5551 176.9325 264.6244 176.7083 L 264.7584 176.4923 C 264.807 176.3455 264.8809 176.297 264.9745 176.2681 C 265.2888 176.1664 265.5903 176.0809 265.6839 175.3796 L 266.8624 167.4432 L 264.4777 167.4432 C 264.2246 167.4432 264.0421 167.3612 264.2131 167.0677 L 264.6856 166.2485 C 264.7758 166.0776 264.7954 165.9505 264.9098 166.0198 L 265.0646 166.1642 C 265.2645 166.3306 265.6516 166.4819 266.235 166.4819 L 271.3661 166.4819 C 271.5175 166.4819 271.5903 166.6079 271.4805 166.7962 L 271.1951 167.2607 C 271.0449 167.4398 270.934 167.4432 270.7549 167.4432 L 268.6521 167.4432 L 267.4863 175.3796 Z Z M 278.2084 172.8239 C 277.797 175.6569 276.6474 177.2132 274.6093 177.2132 C 272.4002 177.2132 271.4586 175.5344 271.8745 172.7419 L 272.5342 168.1238 C 272.681 167.3658 272.4892 167.3947 271.9427 167.2433 C 271.8121 167.2191 271.8121 167.1093 271.8733 166.9868 L 272.0409 166.6564 C 272.094 166.5501 272.1749 166.4808 272.265 166.4808 L 275.2933 166.4808 C 275.4447 166.4808 275.4805 166.5871 275.3753 166.7985 L 275.2933 167.0204 C 275.2321 167.1994 275.172 167.2191 275.0692 167.2607 C 274.7352 167.3496 274.4337 167.4432 274.3355 168.1249 L 273.6018 172.9833 C 273.321 174.8088 273.8213 175.9954 275.0853 175.9954 C 276.3366 175.9954 277.1234 174.8088 277.4331 172.743 L 278.1101 168.1249 C 278.2361 167.367 278.02 167.3959 277.5186 167.2445 C 277.3799 167.2202 277.3799 167.1105 277.4493 166.988 L 277.6041 166.6576 C 277.6607 166.5513 277.7058 166.4819 277.8121 166.4819 L 279.8502 166.4819 C 280.0131 166.4819 280.0454 166.5882 279.9484 166.7997 L 279.8502 167.0204 C 279.8097 167.1994 279.7323 167.2191 279.6387 167.2607 C 279.3129 167.3496 279.0194 167.4432 278.9051 168.1249 L 278.2084 172.8239 Z" stroke-linecap="round"/>
</g>
		<g transform="matrix(3.4168 0 0 3.4168 -0.0185 -0.147)" id="path2">
<path style="stroke: none; stroke-width: 1; stroke-dasharray: none; stroke-linecap: butt; stroke-dashoffset: 0; stroke-linejoin: miter; stroke-miterlimit: 4; is-custom-font: none; font-file-url: none; fill: rgb(1,83,156); fill-rule: evenodd; opacity: 1;" vector-effect="non-scaling-stroke" transform=" translate(-141.7323, -141.6908)" d="M 10.2833 148.6981 C 9.3983 156.8864 2.2337 155.582 2.2337 155.582 L 2.8738 159.0713 L 27.8349 159.0713 L 28.9845 155.7252 C 21.2931 155.954 23.449 150.0026 23.449 150.0026 C 23.449 150.0026 29.7586 117.0323 29.8071 116.889 C 30.7858 111.8677 37.3761 113.0092 37.3761 113.0092 L 36.6875 109.3536 L 11.8408 109.3536 L 10.4636 112.9653 C 10.4636 112.9653 17.2007 112.1831 16.3977 117.5996 C 16.3815 117.6562 10.214 149.1268 10.214 149.1268 Z M 10.2833 148.6981 L 10.2833 148.6981 L 10.2833 148.6981 Z Z M 47.9468 123.8803 L 48.8318 119.5268 L 32.1249 121.7151 L 31.6361 124.4257 C 31.6361 124.4257 37.2895 123.0034 35.3334 130.5435 L 31.0457 152.4601 L 42.3489 152.4601 L 46.8815 129.4713 C 46.8815 129.4713 47.2928 126.1819 51.7111 126.0432 C 51.7111 126.0432 56.5984 126.1206 55.0247 132.8866 L 51.0675 152.5283 L 67.8034 150.4451 L 68.2436 147.8281 C 68.2436 147.8281 62.3696 148.8795 64.135 143.5936 L 66.8455 129.0588 C 66.8455 129.0588 68.2112 120.7723 62.8883 119.476 C 62.886 119.4783 56.8895 116.9433 47.9468 123.8803 Z Z M 85.1123 152.6796 C 85.1123 152.6796 76.1129 154.0984 72.1707 150.2175 C 72.1707 150.2175 64.9807 144.7398 71.9223 131.3291 C 78.8639 117.9231 94.2503 119.6966 94.2503 119.6966 L 95.0579 115.4494 C 95.0579 115.4494 95.8239 111.5696 89.2902 112.2744 L 90.1914 109.3963 L 107.9509 107.1341 L 100.7205 143.8663 C 100.7205 143.8663 99.1353 148.3943 106.4385 147.8767 L 105.981 150.3885 L 87.8679 152.7362 L 93.4808 123.8699 C 93.4808 123.8699 87.1065 122.2108 83.2382 131.5533 C 83.2382 131.5533 76.0644 148.794 86.307 149.9113 L 85.8829 152.4509 L 85.1123 152.6796 Z Z M 130.2962 137.6526 C 127.6307 151.8905 121.6597 149.7669 121.6597 149.7669 C 121.6597 149.7669 116.2998 149.1233 119.2957 134.6659 C 122.2547 120.5147 127.3742 122.4222 127.3742 122.4222 C 130.0108 122.584 132.5781 125.8121 130.2962 137.6526 Z Z M 126.9132 118.5609 C 116.8983 118.4997 107.7765 126.317 106.5541 136.0628 C 105.3317 145.7877 112.4523 153.7114 122.4788 153.7564 C 132.5019 153.7969 141.6271 145.9552 142.8426 136.2176 C 144.0616 126.5042 136.9524 118.6013 126.9132 118.5609 Z Z M 187.7412 137.6526 C 185.0306 151.8905 179.0919 149.7669 179.0919 149.7669 C 179.0919 149.7669 173.7239 149.1233 176.7199 134.6659 C 179.6546 120.5147 184.803 122.4222 184.803 122.4222 C 187.4442 122.584 190.0069 125.8121 187.7412 137.6526 Z M 184.3455 118.5609 C 174.3155 118.4997 165.2006 126.317 163.9747 136.0628 C 162.7604 145.7877 169.8927 153.7114 179.9041 153.7564 C 189.9468 153.7969 199.0779 145.9552 200.2795 136.2176 C 201.51 126.5042 194.3812 118.6013 184.3466 118.5609 Z M 184.3455 118.5609 L 184.3455 118.5609 L 184.3455 118.5609 Z Z M 227.2417 137.6526 C 224.5312 151.8905 218.589 149.7669 218.589 149.7669 C 218.589 149.7669 213.2372 149.1233 216.2285 134.6659 C 219.1713 120.5135 224.307 122.4211 224.307 122.4211 C 226.9436 122.584 229.4959 125.8121 227.2417 137.6526 Z Z M 223.846 118.5609 C 213.8149 118.4997 204.6931 126.317 203.4822 136.0628 C 202.2633 145.7877 209.3886 153.7114 219.4197 153.7564 C 229.4381 153.7969 238.5599 145.9552 239.7754 136.2176 C 241.0024 126.5042 233.8771 118.6013 223.846 118.5609 Z Z M 161.2434 123.5915 C 161.2434 123.5915 161.4306 124.4268 157.82 141.0321 C 154.2209 157.6085 150.5283 162.4797 150.5283 162.4797 C 141.5128 179.2398 127.7024 177.0388 127.7024 177.0388 C 121.0173 177.0388 115.1848 171.4143 115.1848 165.7691 C 115.1848 159.9609 120.4962 155.5993 127.1882 155.5993 L 141.0217 155.5831 C 141.0217 155.5831 141.262 155.4687 140.1494 159.0967 L 126.8947 159.0967 C 122.2813 159.0967 119.4725 163.2099 119.4725 166.1238 C 119.4725 169.5888 123.536 173.293 127.6157 173.293 C 127.6157 173.293 131.6342 173.7043 134.5203 172.356 C 139.5821 169.9758 142.2846 162.5894 142.2846 162.5894 C 143.9807 159.1417 146.4948 146.0858 146.4382 146.2695 C 146.4382 146.2695 147.9136 140.005 150.229 123.7706 L 149.6467 123.7706 L 144.169 123.7706 L 145.1222 120.004 C 149.5323 119.3639 151.2285 116.487 151.2285 116.487 C 151.2285 116.487 156.3595 109.2438 159.7102 107.4668 C 167.4952 103.3906 173.4825 110.8417 173.4825 110.8417 L 165.657 117.7798 C 163.0158 115.0046 161.9886 114.3114 161.9886 114.3114 C 159.4213 111.825 157.4318 114.7192 157.4318 114.7192 C 155.5323 119.9601 161.9886 119.7163 161.9886 119.7163 L 169.4351 119.7163 L 168.4288 123.5915 L 161.2434 123.5915 Z Z M 117.6805 155.5831 L 32.5454 155.5831 L 31.4894 159.1417 L 113.848 159.1417 C 113.848 159.1417 114.4916 156.8876 117.6793 155.5831 Z M 117.6805 155.5831 L 117.6805 155.5831 L 117.6805 155.5831 Z Z M 156.9511 155.5831 L 279.3118 155.5831 L 278.488 159.1417 L 155.6836 159.1417 C 155.6836 159.1417 156.69 157.5323 156.9511 155.5831 Z Z M 258.4049 152.6796 C 258.4049 152.6796 249.3929 154.0984 245.431 150.2175 C 245.431 150.2175 238.2653 144.7398 245.2115 131.3291 C 252.145 117.9231 267.5152 119.6966 267.5152 119.6966 L 268.3586 115.4494 C 268.3586 115.4494 269.1131 111.5696 262.5713 112.2744 L 263.4794 109.3963 L 281.2309 107.1341 L 274.0039 143.8674 C 274.0039 143.8674 272.4187 148.3954 279.7219 147.8778 L 279.2748 150.3885 L 261.1652 152.7362 L 266.7607 123.8699 C 266.7607 123.8699 260.3945 122.2108 256.5136 131.5533 C 256.5136 131.5533 249.3524 148.794 259.6031 149.9113 L 259.1721 152.4509 L 258.4049 152.6796 Z" stroke-linecap="round"/>
</g>
</g>
</g>
</svg>