<svg xmlns="http://www.w3.org/2000/svg" xmlns:xlink="http://www.w3.org/1999/xlink" version="1.1" width="1000" height="1000" viewBox="0 0 1000 1000" xml:space="preserve">
<desc>Created with Fabric.js 3.5.0</desc>
<defs>
</defs>
<rect x="0" y="0" width="100%" height="100%" fill="rgba(255,255,255,0)"/>
<g transform="matrix(1.0789 0 0 1.0789 500.0014 500.0017)" id="534941">
<g style="">
		<g transform="matrix(3.3003 0 0 3.3003 -0.003 -95.3476)" id="866129">
<g style="">
		<g transform="matrix(0.0337 0 0 0.0337 0.0602 0.0602)" id="Jasa_x0020_Marga.cdr">
<path style="stroke: none; stroke-width: 1; stroke-dasharray: none; stroke-linecap: butt; stroke-dashoffset: 0; stroke-linejoin: miter; stroke-miterlimit: 4; is-custom-font: none; font-file-url: none; fill: rgb(1,59,192); fill-rule: evenodd; opacity: 1;" transform=" translate(-10500, -13641)" d="M 10500 11134 c 1384 0 2507 1123 2507 2507 c 0 1384 -1123 2507 -2507 2507 c -1384 0 -2507 -1123 -2507 -2507 c 0 -1384 1123 -2507 2507 -2507 z" stroke-linecap="round"/>
</g>
		<g transform="matrix(0.0337 0 0 0.0337 0.0602 0.0602)" id="Jasa_x0020_Marga.cdr">
<path style="stroke: none; stroke-width: 1; stroke-dasharray: none; stroke-linecap: butt; stroke-dashoffset: 0; stroke-linejoin: miter; stroke-miterlimit: 4; is-custom-font: none; font-file-url: none; fill: rgb(1,59,192); fill-rule: evenodd; opacity: 1;" transform=" translate(-10500, -13641)" d="M 10500 11134 c 1384 0 2507 1123 2507 2507 c 0 1384 -1123 2507 -2507 2507 c -1384 0 -2507 -1123 -2507 -2507 c 0 -1384 1123 -2507 2507 -2507 z" stroke-linecap="round"/>
</g>
		<g transform="matrix(0.0337 0 0 0.0337 12.624 -12.3944)" id="Jasa_x0020_Marga.cdr">
<path style="stroke: none; stroke-width: 1; stroke-dasharray: none; stroke-linecap: butt; stroke-dashoffset: 0; stroke-linejoin: miter; stroke-miterlimit: 4; is-custom-font: none; font-file-url: none; fill: rgb(253,209,0); fill-rule: evenodd; opacity: 1;" transform=" translate(-10873.5, -13271.5)" d="M 12804 12652 c -213 -67 -423 -117 -631 -155 c -15 -111 -33 -220 -53 -330 c 169 42 339 92 510 152 c 66 106 125 217 174 333 z m -1663 -1435 c 105 28 207 62 306 102 c 102 343 176 678 225 1031 c 55 402 74 839 72 1267 c 0 341 -89 633 -321 882 c -230 248 -558 403 -923 403 c -696 0 -1261 -565 -1261 -1261 c 0 -567 375 -1004 889 -1147 c 361 -100 760 -56 1131 -27 c 8 122 14 220 18 341 c -324 -17 -760 -55 -1081 37 c -368 106 -622 387 -622 796 c 0 511 415 926 926 926 c 215 0 413 -73 570 -196 c 294 -230 322 -619 314 -996 c -4 -184 -6 -366 -9 -526 c -5 -209 -21 -423 -48 -643 c -39 -318 -101 -648 -186 -989 z m 371 130 c 119 53 234 114 342 184 c 84 270 150 539 200 819 c 59 323 94 670 115 1016 c 16 273 -10 546 -92 795 c -217 660 -774 1165 -1577 1165 c -930 0 -1685 -755 -1685 -1685 c 0 -930 755 -1653 1685 -1653 c 250 -3 490 6 731 28 c 8 125 17 248 25 372 c -131 -13 -261 -25 -392 -32 c -173 -9 -365 -20 -537 1 c -651 81 -1153 611 -1153 1284 c 0 732 628 1326 1326 1326 c 609 0 1116 -409 1270 -967 c 56 -206 54 -411 40 -625 c -11 -184 -21 -366 -32 -526 c -13 -209 -38 -423 -75 -643 c -46 -278 -109 -564 -191 -859 z m 1319 1369 c 40 102 74 207 101 315 c -244 -72 -483 -120 -720 -152 c -7 -111 -18 -218 -31 -323 c 224 41 446 94 650 160 z" stroke-linecap="round"/>
</g>
</g>
</g>
		<g transform="matrix(2.3159 0 0 2.3159 0.0071 301.356)" id="165449">
<g style="">
		<g transform="matrix(0.0337 0 0 0.0337 0.1005 -12.764)" id="Jasa_x0020_Marga.cdr">
<path style="stroke: none; stroke-width: 1; stroke-dasharray: none; stroke-linecap: butt; stroke-dashoffset: 0; stroke-linejoin: miter; stroke-miterlimit: 4; is-custom-font: none; font-file-url: none; fill: rgb(1,59,192); fill-rule: evenodd; opacity: 1;" transform=" translate(-10500, -17255)" d="M 6866 17807 l 262 0 l 178 -750 l 178 750 l 261 0 l -177 -746 c -18 -74 -33 -140 -51 -212 c -32 -85 -114 -146 -210 -146 c -102 0 -188 67 -216 160 c -17 71 -33 137 -51 212 l -174 732 z m 6553 -1104 c 14 0 29 0 43 1 l 314 0 l 0 256 c -127 0 -243 0 -357 0 c -163 0 -295 132 -295 295 c 0 162 132 294 295 294 c 26 0 51 -3 74 -9 l 0 -286 l 283 0 l 0 553 l -283 0 l 0 -5 c -24 3 -49 5 -74 5 c -305 0 -552 -247 -552 -552 c 0 -305 247 -552 552 -552 z m -1289 0 l -204 0 l 0 1104 l 282 0 l 0 -846 l 208 0 c 75 0 137 61 137 137 c 0 75 -62 137 -137 137 l -162 0 l 291 572 l 277 0 l -202 -396 c 114 -65 190 -188 190 -329 c 0 -209 -170 -379 -379 -379 l -301 0 z m 1693 1104 l 262 0 l 178 -750 l 178 750 l 261 0 l -177 -746 c -18 -74 -33 -140 -50 -212 c -33 -85 -115 -146 -211 -146 c -102 0 -188 67 -216 160 c -17 71 -33 137 -51 212 l -174 732 z m -4337 0 l 262 0 l 178 -750 l 105 442 c 25 106 61 217 202 217 c 156 0 182 -132 209 -246 l 99 -413 l 178 750 l 261 0 l -178 -746 c -17 -74 -33 -140 -50 -212 c -32 -85 -114 -146 -211 -146 c -101 0 -187 67 -215 160 c -17 71 -33 137 -51 212 l -42 176 l -45 -190 c -18 -74 -33 -140 -50 -212 c -33 -85 -115 -146 -211 -146 c -102 0 -188 67 -216 160 c -17 71 -33 137 -50 212 l -175 732 z m 1514 0 l 261 0 l 178 -750 l 179 750 l 261 0 l -178 -746 c -17 -74 -33 -140 -50 -212 c -32 -85 -114 -146 -211 -146 c -101 0 -187 67 -215 160 c -17 71 -33 137 -51 212 l -174 732 z m -2428 0 l 261 0 l 179 -750 l 178 750 l 261 0 l -178 -746 c -17 -74 -33 -140 -50 -212 c -32 -85 -114 -146 -211 -146 c -101 0 -187 67 -215 160 c -17 71 -33 137 -51 212 l -174 732 z m -492 -1104 c 149 0 298 0 446 0 l 0 250 l -115 0 l -305 0 l -26 4 c -39 11 -68 47 -68 90 c 0 52 42 94 94 94 l 119 0 c 114 0 164 -2 242 69 c 68 63 111 153 111 253 c 0 190 -154 344 -344 344 c -149 0 -297 0 -446 0 l 0 -250 l 115 0 l 306 0 l 25 -4 c 39 -11 68 -47 68 -90 c 0 -52 -42 -94 -93 -94 l -143 0 c -95 0 -167 -12 -236 -86 c -58 -62 -94 -145 -94 -236 c 0 -190 154 -344 344 -344 z m -1235 0 l -282 0 l 0 784 c 0 34 -28 63 -63 63 l -202 0 l 0 257 l 290 0 c 142 0 257 -116 257 -257 l 0 -847 z" stroke-linecap="round"/>
</g>
		<g transform="matrix(0.0337 0 0 0.0337 0.102 22.129)" id="Jasa_x0020_Marga.cdr">
<path style="stroke: none; stroke-width: 1; stroke-dasharray: none; stroke-linecap: butt; stroke-dashoffset: 0; stroke-linejoin: miter; stroke-miterlimit: 4; is-custom-font: none; font-file-url: none; fill: rgb(1,59,192); fill-rule: evenodd; opacity: 1;" transform=" translate(-10500, -18291.5)" d="M 6249 18039 l 0 397 l 29 0 l 0 -397 l -29 0 z m 254 397 l 28 0 l 0 -175 c 0 -9 2 -19 4 -26 c 11 -36 45 -64 84 -64 c 59 0 79 46 79 97 l 0 168 l 28 0 l 0 -170 c 0 -106 -72 -120 -99 -120 c -46 0 -82 26 -97 58 l -1 0 l -2 -51 l -27 0 c 2 22 3 42 3 68 l 0 215 z m 633 -419 l 0 180 l -1 0 c -12 -25 -44 -51 -93 -51 c -69 0 -127 59 -127 154 c 0 84 52 142 122 142 c 53 0 86 -29 101 -60 l 1 0 l 2 54 l 26 0 c -2 -20 -3 -45 -3 -66 l 0 -353 l -28 0 z m 0 304 c 0 9 -1 16 -3 24 c -12 47 -50 74 -91 74 c -67 0 -99 -59 -99 -122 c 0 -73 39 -127 101 -127 c 46 0 80 31 89 69 c 2 8 3 18 3 26 l 0 56 z m 354 -175 c -71 0 -134 54 -134 151 c 0 88 56 145 129 145 c 63 0 136 -45 136 -151 c 0 -86 -53 -145 -131 -145 z m -1 24 c 75 0 104 71 104 123 c 0 73 -47 126 -106 126 c -58 0 -103 -53 -103 -124 c 0 -61 33 -125 105 -125 z m 324 266 l 28 0 l 0 -175 c 0 -9 2 -19 4 -26 c 11 -36 45 -64 85 -64 c 58 0 78 46 78 97 l 0 168 l 28 0 l 0 -170 c 0 -106 -72 -120 -99 -120 c -46 0 -82 26 -97 58 l -1 0 l -2 -51 l -26 0 c 1 22 2 42 2 68 l 0 215 z m 649 -145 c 1 -5 1 -9 1 -17 c 0 -40 -18 -128 -110 -128 c -73 0 -128 59 -128 154 c 0 83 51 142 132 142 c 50 0 79 -13 89 -19 l -7 -21 c -16 7 -37 15 -78 15 c -59 0 -108 -35 -108 -126 l 209 0 z m -208 -22 c 6 -44 33 -99 95 -99 c 68 0 85 60 84 99 l -179 0 z m 379 153 c 19 12 45 20 72 20 c 58 0 95 -33 95 -81 c 0 -43 -27 -66 -73 -84 c -38 -16 -58 -29 -58 -58 c 0 -26 19 -49 55 -49 c 28 0 46 10 56 17 l 11 -23 c -14 -10 -37 -18 -62 -18 c -55 0 -88 36 -88 77 c 0 34 26 60 72 77 c 41 17 60 33 60 64 c 0 30 -21 54 -66 54 c -26 0 -49 -10 -64 -19 l -10 23 z m 390 14 l 0 -283 l -28 0 l 0 283 l 28 0 z m -14 -389 c -13 0 -23 12 -23 25 c 0 13 9 24 22 24 c 15 0 23 -11 23 -24 c 0 -13 -9 -25 -22 -25 z m 405 211 c 0 -50 -16 -112 -97 -112 c -26 0 -58 8 -84 25 l 9 20 c 21 -14 47 -21 72 -21 c 67 -1 72 55 72 83 l 0 8 c -115 -1 -173 38 -173 103 c 0 38 26 78 84 78 c 45 0 76 -25 90 -47 l 1 0 l 5 41 l 25 0 c -3 -22 -4 -45 -4 -67 l 0 -111 z m -28 87 c 0 5 -1 11 -3 17 c -9 28 -36 57 -84 57 c -29 0 -56 -19 -56 -59 c 0 -68 81 -77 143 -76 l 0 61 z m 515 -306 l 0 397 l 28 0 l 0 -199 l 220 0 l 0 199 l 28 0 l 0 -397 l -28 0 l 0 175 l -220 0 l 0 -175 l -28 0 z m 529 397 l 0 -283 l -29 0 l 0 283 l 29 0 z m -15 -389 c -13 0 -23 12 -23 25 c 0 13 9 24 22 24 c 15 0 24 -11 24 -24 c 0 -13 -10 -25 -23 -25 z m 455 179 c 0 -29 1 -52 3 -73 l -26 0 l -2 48 l -1 0 c -12 -24 -40 -55 -96 -55 c -62 0 -127 52 -127 151 c 0 77 50 139 121 139 c 51 0 84 -26 99 -55 l 1 0 l 0 40 c 0 84 -43 114 -102 114 c -37 0 -65 -10 -85 -23 l -10 22 c 22 17 58 25 90 25 c 32 0 70 -9 96 -34 c 24 -22 39 -58 39 -131 l 0 -168 z m -28 93 c 0 9 -2 20 -5 30 c -14 40 -49 63 -88 63 c -66 0 -100 -55 -100 -118 c 0 -75 42 -124 102 -124 c 46 0 76 30 87 64 c 3 8 4 17 4 28 l 0 57 z m 243 117 l 29 0 l 0 -173 c 0 -12 0 -19 3 -28 c 13 -35 46 -64 86 -64 c 57 0 77 46 77 97 l 0 168 l 29 0 l 0 -171 c 0 -105 -72 -119 -99 -119 c -21 0 -40 6 -57 17 c -16 9 -30 25 -38 41 l -1 0 l 0 -187 l -29 0 l 0 419 z m 396 -283 l 87 283 l 25 0 l 56 -157 c 12 -32 23 -64 31 -97 l 1 0 c 8 32 18 62 29 96 l 54 158 l 24 0 l 94 -283 l -28 0 l -50 160 c -12 34 -21 63 -26 89 l -2 0 c -7 -26 -16 -55 -27 -89 l -54 -160 l -27 0 l -57 161 c -11 32 -21 62 -28 88 l -1 0 c -6 -27 -15 -55 -24 -88 l -48 -161 l -29 0 z m 756 105 c 0 -50 -16 -112 -98 -112 c -25 0 -57 8 -83 25 l 9 20 c 21 -14 47 -21 71 -21 c 68 -1 73 55 73 83 l 0 8 c -116 -1 -173 38 -173 103 c 0 38 26 78 83 78 c 46 0 77 -25 91 -47 l 1 0 l 4 41 l 26 0 c -3 -22 -4 -45 -4 -67 l 0 -111 z m -28 87 c 0 5 -1 11 -3 17 c -10 28 -37 57 -84 57 c -29 0 -56 -19 -56 -59 c 0 -68 81 -77 143 -76 l 0 61 z m 195 -192 l 105 262 c 2 6 3 10 3 12 c 0 3 -1 7 -3 13 c -14 34 -33 57 -47 71 c -17 16 -36 26 -50 31 l 9 24 c 7 -2 27 -11 49 -29 c 38 -33 62 -85 96 -173 l 85 -211 l -30 0 l -69 183 c -9 23 -16 46 -22 63 l -1 0 c -6 -18 -13 -41 -21 -61 l -74 -185 l -30 0 z m 957 246 c -23 11 -56 18 -90 18 c -106 0 -168 -69 -168 -177 c 0 -114 66 -184 173 -184 c 34 0 62 7 82 17 l 9 -23 c -12 -7 -41 -18 -92 -18 c -125 0 -201 90 -201 208 c 0 140 92 202 188 202 c 49 0 87 -10 107 -20 l -8 -23 z m 301 -253 c -70 0 -133 54 -133 151 c 0 88 56 145 129 145 c 63 0 136 -45 136 -151 c 0 -86 -53 -145 -132 -145 z m 0 24 c 75 0 104 71 104 123 c 0 73 -47 126 -106 126 c -58 0 -103 -53 -103 -124 c 0 -61 32 -125 105 -125 z m 323 266 l 29 0 l 0 -156 c 0 -10 0 -19 2 -28 c 8 -45 35 -78 74 -78 c 5 0 10 0 14 1 l 0 -27 c -4 -1 -8 -2 -12 -2 c -38 0 -68 29 -80 64 l -2 0 l -1 -57 l -26 0 c 2 28 2 56 2 85 l 0 198 z m 298 116 l 29 0 l 0 -162 l 1 0 c 19 34 55 52 96 52 c 68 0 128 -52 128 -152 c 0 -83 -49 -144 -122 -144 c -48 0 -83 23 -104 61 l -1 0 l -2 -54 l -27 0 c 2 27 2 55 2 90 l 0 309 z m 29 -283 c 0 -8 2 -17 4 -24 c 12 -47 52 -75 94 -75 c 64 0 99 57 99 121 c 0 75 -37 128 -102 128 c -43 0 -81 -29 -93 -72 c -2 -7 -2 -15 -2 -23 l 0 -55 z m 414 173 c 15 0 25 -12 25 -26 c 0 -16 -10 -27 -24 -27 c -14 0 -24 11 -24 27 c -1 14 9 26 23 26 z" stroke-linecap="round"/>
</g>
</g>
</g>
</g>
</g>
</svg>