<svg xmlns="http://www.w3.org/2000/svg" xmlns:xlink="http://www.w3.org/1999/xlink" version="1.1" width="1000" height="1000" viewBox="0 0 1000 1000" xml:space="preserve">
<desc>Created with Fabric.js 3.5.0</desc>
<defs>
</defs>
<rect x="0" y="0" width="100%" height="100%" fill="rgba(255,255,255,0)"/>
<g transform="matrix(5.0975 0 0 5.0975 500.0017 500.0008)" id="890369">
<g style="">
		<g transform="matrix(0.0336 0 0 0.0336 -43.5999 0.0054)" id="__x0023_Layer_x0020_1">
<path style="stroke: none; stroke-width: 1; stroke-dasharray: none; stroke-linecap: butt; stroke-dashoffset: 0; stroke-linejoin: miter; stroke-miterlimit: 4; is-custom-font: none; font-file-url: none; fill: rgb(45,42,112); fill-rule: nonzero; opacity: 1;" transform=" translate(-9202.1479, -14850)" d="M 9899 15477 l -447 -734 l 992 -963 l -783 0 c -62 0 -121 24 -165 66 l -695 679 l 79 -745 l -708 0 l -211 2013 c -7 63 39 120 102 127 c 5 0 9 0 13 0 l 579 0 l 48 -452 l 213 -206 l 376 593 c 25 41 70 65 118 65 l 267 0 l 222 -443 z" stroke-linecap="round"/>
</g>
		<g transform="matrix(0.0336 0 0 0.0336 28.156 0.0054)" id="__x0023_Layer_x0020_1">
<path style="stroke: none; stroke-width: 1; stroke-dasharray: none; stroke-linecap: butt; stroke-dashoffset: 0; stroke-linejoin: miter; stroke-miterlimit: 4; is-custom-font: none; font-file-url: none; fill: rgb(237,107,35); fill-rule: nonzero; opacity: 1;" transform=" translate(-11338, -14850)" d="M 10391 15920 l 958 -582 l 122 494 c 13 52 59 88 112 88 l 621 0 l -277 -934 l 1055 -642 l 4 -43 l -3308 1619 l 713 0 z m 1436 -1269 l 0 0 l -258 -871 l -610 0 c -127 0 -243 71 -300 185 l -872 1734 l 3206 -1462 l 5 -50 l -1171 464 z m -1030 408 l 0 0 l 214 -452 l 56 -125 c 9 -19 32 -28 51 -19 c 11 5 19 14 22 25 l 97 397 l -440 174 z" stroke-linecap="round"/>
</g>
		<g transform="matrix(0.0336 0 0 0.0336 69.1694 0.0054)" id="__x0023_Layer_x0020_1">
<path style="stroke: none; stroke-width: 1; stroke-dasharray: none; stroke-linecap: butt; stroke-dashoffset: 0; stroke-linejoin: miter; stroke-miterlimit: 4; is-custom-font: none; font-file-url: none; fill: rgb(45,42,112); fill-rule: nonzero; opacity: 1;" transform=" translate(-12559, -14850)" d="M 12606 13780 c -173 0 -317 130 -335 301 l -43 412 l 770 -306 l 42 -407 l -434 0 z m -528 2140 l 0 0 l 741 0 l 163 -1576 l -789 480 l -115 1096 z" stroke-linecap="round"/>
</g>
</g>
</g>
</svg>