<svg xmlns="http://www.w3.org/2000/svg" xmlns:xlink="http://www.w3.org/1999/xlink" version="1.1" width="1000" height="1000" viewBox="0 0 1000 1000" xml:space="preserve">
<desc>Created with Fabric.js 3.5.0</desc>
<defs>
</defs>
<rect x="0" y="0" width="100%" height="100%" fill="rgba(255,255,255,0)"/>
<g transform="matrix(0.3712 0 0 0.3712 500.0205 500.0184)" id="644210">
<g style="" vector-effect="non-scaling-stroke">
		<g transform="matrix(1 0 0 1 0 0)" id="_1968039578976">
<polygon style="stroke: none; stroke-width: 1; stroke-dasharray: none; stroke-linecap: butt; stroke-dashoffset: 0; stroke-linejoin: miter; stroke-miterlimit: 4; is-custom-font: none; font-file-url: none; fill: rgb(247,217,21); fill-rule: evenodd; opacity: 1;" points="0,-1080 602,-668 1204,-255 974,412 744,1080 0,1080 -744,1080 -974,412 -1204,-255 -602,-668 "/>
</g>
		<g transform="matrix(1 0 0 1 0 0)" id="_1968039578976">
<polygon style="stroke: none; stroke-width: 1; stroke-dasharray: none; stroke-linecap: butt; stroke-dashoffset: 0; stroke-linejoin: miter; stroke-miterlimit: 4; is-custom-font: none; font-file-url: none; fill: rgb(1,99,22); fill-rule: evenodd; opacity: 1;" points="0,-982 548,-607 1095,-232 886,375 677,982 0,982 -677,982 -886,375 -1095,-232 -548,-607 "/>
</g>
		<g transform="matrix(1 0 0 1 -439.1567 -2.7108)" id="_1968039578976">
<path style="stroke: none; stroke-width: 1; stroke-dasharray: none; stroke-linecap: butt; stroke-dashoffset: 0; stroke-linejoin: miter; stroke-miterlimit: 4; is-custom-font: none; font-file-url: none; fill: rgb(140,159,51); fill-rule: evenodd; opacity: 1;" transform=" translate(-764.8432, -1077.2892)" d="M 788 1612 c -14 3 -26 9 -36 18 c -35 -65 -70 -98 -104 -102 c -26 -2 -43 0 -68 16 c -34 22 -70 3 -58 -37 c -33 -24 -20 -75 30 -70 c 27 -37 71 -13 70 29 c -1 19 12 36 36 48 c 9 5 10 0 4 -12 c -30 -60 -55 -96 -79 -102 c -24 -6 -41 -3 -53 5 c -45 32 -79 -9 -59 -45 c -23 -29 -10 -65 35 -55 c 8 -38 61 -27 66 13 c 5 31 -9 40 18 72 c 9 9 14 3 8 -11 c -6 -17 -5 -42 -14 -73 c -11 -42 -35 -69 -65 -75 c -13 -2 -22 7 -31 12 c -29 16 -67 -20 -37 -52 c -24 -28 0 -65 44 -43 c 25 -27 67 -6 53 35 c -8 24 -6 40 4 49 c 7 7 14 14 22 21 c -2 -40 -2 -74 0 -102 c 1 -10 -7 -21 -17 -38 c -23 -38 -34 -17 -69 -25 c -32 -7 -42 -48 -14 -66 c -22 -36 17 -69 55 -36 c 31 -18 64 11 50 47 c -10 28 -26 24 -19 54 c 2 7 6 15 12 24 c 4 7 6 6 7 -3 c 4 -35 10 -64 16 -87 c 2 -10 1 -21 -5 -31 c -7 -13 -12 -24 -17 -32 c -8 -15 -25 -20 -44 -24 c -25 -7 -31 -53 2 -61 c -7 -36 38 -55 64 -20 c 36 -8 50 33 27 53 c -20 18 -30 41 -22 72 c 4 14 10 14 12 1 c 5 -29 16 -55 30 -82 c 5 -9 4 -20 2 -29 c -4 -18 -6 -32 -7 -41 c -3 -15 -12 -26 -27 -31 c -33 -13 -26 -56 9 -59 c 3 -45 65 -42 68 -3 c 33 1 36 32 18 45 c -27 19 -43 34 -45 51 c -3 24 -2 32 3 27 c 28 -31 49 -55 65 -72 c 8 -10 12 -23 13 -39 c 1 -28 -8 -44 -29 -58 c -32 -21 -21 -70 23 -67 c 16 -37 63 -28 61 10 c 35 12 29 43 5 56 c -33 17 -50 36 -49 58 c 0 11 -1 11 6 4 c 26 -28 52 -48 75 -66 c 6 -5 9 -11 10 -22 c 1 -28 -1 -42 -7 -45 c -46 -23 -24 -79 30 -67 c 20 -45 75 -22 60 22 c 37 12 23 65 -10 66 c -23 2 -31 -3 -42 9 c -16 20 -22 26 -13 22 c 33 -15 67 -33 106 -47 c 16 -6 19 -24 19 -36 c 1 -37 55 -41 65 -11 c 46 -5 50 49 17 62 c 1 34 -40 45 -55 23 c -13 -20 -15 -33 -49 -22 c -35 10 -70 30 -107 57 c 62 5 76 -5 85 -23 c 13 -29 63 -24 58 13 c 41 7 29 47 0 54 c 5 32 -49 34 -60 7 c -26 -59 -117 -52 -175 17 c -9 11 -7 17 5 16 c 35 -5 55 -29 65 -51 c 10 -20 42 -22 51 6 c 47 -6 48 55 6 56 c 3 24 -35 38 -51 17 c -25 -31 -94 -24 -127 15 c -24 27 -38 49 -41 69 c 29 -6 45 -22 49 -48 c 5 -36 51 -53 63 -21 c 46 0 49 39 18 56 c 5 27 -39 44 -53 29 c -26 -29 -75 -14 -105 29 c -14 18 -19 45 -25 75 c 31 -11 43 -30 39 -58 c -2 -10 0 -19 4 -25 c 14 -20 40 -21 49 -5 c 38 -21 67 27 36 48 c 14 29 -20 61 -50 42 c -14 -9 -22 -14 -37 -8 c -36 14 -55 34 -60 66 c -2 18 -7 38 -9 63 c 25 -15 36 -31 30 -46 c -7 -14 -9 -26 -6 -34 c 7 -19 21 -22 39 -11 c 33 -30 70 2 49 37 c 16 14 9 35 -14 43 c -16 6 -30 2 -40 -3 c -8 -4 -14 -2 -20 2 c -28 18 -40 36 -39 56 c 1 14 -2 36 1 66 c 2 12 10 12 16 1 c 11 -19 12 -36 5 -50 c -18 -34 7 -59 37 -49 c 38 -33 79 7 51 37 c 23 12 6 47 -22 43 c -24 -3 -40 1 -56 17 c -18 20 -28 33 -20 85 c 9 60 20 77 27 55 c 9 -28 12 -43 2 -47 c -37 -30 -33 -64 4 -70 c 21 -41 70 -27 72 13 c 33 5 24 60 -9 62 c -25 2 -36 7 -45 25 c -14 27 -20 47 -4 79 c 33 66 48 90 51 70 c 3 -18 -1 -31 -12 -41 c -42 -38 -35 -71 5 -69 c 16 -54 72 -40 66 7 c 38 6 34 43 -9 65 c -23 11 -35 24 -37 44 c -1 14 6 26 20 40 c 19 19 36 37 54 52 z" stroke-linecap="round"/>
</g>
		<g transform="matrix(1 0 0 1 415.1243 8)" id="_1968039578976">
<path style="stroke: none; stroke-width: 1; stroke-dasharray: none; stroke-linecap: butt; stroke-dashoffset: 0; stroke-linejoin: miter; stroke-miterlimit: 4; is-custom-font: none; font-file-url: none; fill: rgb(228,161,8); fill-rule: evenodd; opacity: 1;" transform=" translate(-1619.1243, -1088)" d="M 1636 1638 c 6 -16 6 -26 1 -31 c 11 -13 23 -25 33 -37 l 0 -1 c -49 -7 -57 -79 -21 -121 c 3 6 2 12 1 20 c -2 14 5 26 14 36 c 17 19 21 38 13 55 c 0 1 0 2 0 2 c 10 -11 19 -23 27 -35 c -36 -1 -55 -70 -35 -115 c 3 5 3 11 4 20 c 1 14 8 24 17 33 c 17 16 23 34 20 52 c 0 1 0 1 0 2 c 8 -10 15 -21 21 -32 c -1 -2 -1 -4 -2 -6 c -38 1 -57 -69 -37 -115 c 3 5 3 11 4 20 c 1 13 8 24 17 32 c 16 17 23 34 19 53 c 1 2 2 5 4 8 c 7 -11 13 -22 18 -33 c -2 -4 -4 -7 -5 -10 c -38 3 -60 -66 -43 -113 c 4 4 4 11 6 19 c 2 14 9 24 18 32 c 17 16 25 33 22 51 c 1 3 3 7 7 12 c 6 -13 12 -26 18 -39 c -2 -3 -3 -5 -4 -7 c -38 6 -67 -60 -54 -109 c 4 4 5 11 7 19 c 3 14 12 23 22 30 c 18 14 27 30 26 49 c 1 2 3 5 6 9 c 6 -16 12 -32 17 -48 c -1 -1 -2 -2 -2 -3 c -37 11 -73 -52 -66 -101 c 4 3 6 10 9 18 c 5 13 14 21 25 27 c 20 11 31 27 32 45 c 1 2 2 3 4 5 c 4 -15 7 -29 10 -44 c -2 -2 -3 -4 -5 -5 c -34 14 -74 -49 -72 -101 c 5 3 7 10 10 18 c 6 13 16 21 27 26 c 20 11 32 26 35 45 c 1 2 3 5 6 7 c 3 -15 5 -30 6 -45 c 0 -2 0 -3 0 -5 c -1 -1 -2 -2 -3 -3 c -33 18 -80 -41 -82 -93 c 4 3 7 9 12 17 c 7 13 17 19 29 24 c 21 8 34 22 39 41 c 1 1 3 3 6 5 c 1 -15 1 -31 0 -46 c -3 -2 -6 -4 -8 -6 c -30 22 -83 -30 -92 -82 c 5 3 9 8 14 15 c 8 12 20 17 31 20 c 22 6 37 18 44 36 c 2 2 6 5 11 7 c -1 -14 -2 -29 -4 -43 c -1 0 -1 -1 -1 -1 c -31 26 -93 -25 -108 -79 c 6 2 11 8 17 15 c 10 11 23 16 36 18 c 24 4 41 16 50 34 c 1 1 3 2 5 3 c -2 -14 -5 -28 -8 -42 c -2 -1 -4 -2 -5 -3 c -29 28 -94 -19 -111 -73 c 6 2 10 7 17 14 c 11 11 24 15 37 16 c 24 3 42 14 52 32 c 2 1 4 3 8 4 c -4 -15 -9 -31 -14 -46 c -1 -1 -3 -1 -4 -2 c -26 30 -96 -11 -118 -62 c 6 1 11 6 18 12 c 12 10 25 13 38 13 c 25 0 43 9 56 26 c 1 1 4 2 7 3 c -6 -16 -12 -33 -19 -49 l -1 0 c -20 34 -95 6 -126 -41 c 6 0 12 4 20 9 c 13 8 27 8 40 6 c 24 -4 44 2 59 16 c 1 1 2 1 4 2 c -6 -12 -12 -24 -18 -36 c -21 33 -96 5 -127 -42 c 7 0 13 5 21 9 c 13 8 27 8 40 6 c 24 -4 44 2 58 17 c 1 0 2 0 2 1 c -7 -13 -14 -25 -22 -36 c -21 27 -94 8 -127 -30 c 6 -1 13 2 21 6 c 14 6 28 5 40 2 c 22 -5 41 -3 56 7 c -5 -8 -11 -16 -17 -24 c -2 0 -4 0 -6 -1 c -18 33 -95 14 -129 -26 c 6 0 12 3 21 6 c 14 6 27 6 40 3 c 24 -6 44 -3 60 9 c 2 1 4 1 8 1 c -10 -11 -19 -23 -30 -34 c -5 1 -10 1 -14 1 c -13 30 -87 21 -123 -9 c 5 -1 12 1 20 3 c 14 4 26 1 38 -3 c 21 -7 41 -6 57 3 c 3 0 9 0 16 -2 c -7 -7 -13 -13 -20 -20 c -5 1 -10 3 -13 3 c -23 16 -103 16 -118 -3 c 5 -1 10 -3 18 -2 c 14 2 20 -6 30 -11 c 19 -9 43 -2 60 4 c 3 0 10 3 16 3 c -9 -9 -19 -18 -29 -26 c -4 1 -8 2 -11 3 c -22 18 -102 22 -118 3 c 5 -2 10 -4 18 -3 c 14 1 20 -8 30 -14 c 18 -11 43 -4 59 1 c 3 0 8 2 14 3 c -15 -12 -30 -23 -46 -34 c -2 1 -3 1 -5 1 c -6 31 -77 36 -116 14 c 5 -2 11 -1 19 0 c 14 0 25 -4 35 -10 c 19 -11 37 -13 53 -8 c 2 0 4 0 7 -1 c -10 -7 -20 -13 -31 -20 c -4 1 -8 2 -11 2 c -8 30 -82 32 -122 9 c 6 -2 12 -1 20 0 c 14 1 26 -2 37 -8 c 20 -10 39 -11 56 -5 c 3 0 7 -1 12 -3 c -8 -4 -16 -8 -24 -12 c -1 -1 -1 -1 -1 -2 c -2 0 -5 0 -8 -1 c -4 1 -8 1 -10 1 c -9 20 -73 20 -107 3 c 5 -1 11 0 18 1 c 12 1 22 -1 32 -4 c 18 -6 34 -7 49 -3 c 2 0 6 0 11 -1 c -7 -4 -12 -6 -16 -6 c -19 5 -38 0 -58 -15 c -10 -8 -22 -14 -37 -14 c -8 0 -15 1 -21 -2 c 46 -24 123 -11 127 27 c 4 1 10 3 17 6 c 1 0 1 0 2 0 c 0 -3 0 -5 2 -6 c -1 -2 -2 -3 -3 -4 c -16 -5 -26 -18 -27 -41 c -1 -11 -5 -22 -14 -30 c -6 -4 -11 -7 -13 -12 c 48 1 89 49 64 84 c 0 1 1 1 1 2 c 3 0 6 1 9 3 c 7 4 14 8 21 12 c 0 -2 -1 -4 -1 -6 c -13 -8 -18 -22 -13 -42 c 2 -10 2 -21 -4 -29 c -4 -6 -8 -9 -8 -14 c 41 13 64 65 33 89 c 1 2 1 5 2 8 c 11 8 23 15 34 23 c 0 -3 0 -5 -1 -7 c -12 -10 -15 -26 -9 -47 c 3 -11 4 -23 -2 -33 c -3 -6 -6 -10 -6 -16 c 40 19 58 78 25 101 c 0 2 1 5 1 8 c 11 9 23 18 33 26 c 0 -1 0 -3 0 -4 c -11 -12 -14 -30 -6 -53 c 4 -12 6 -25 1 -37 c -3 -7 -6 -12 -5 -18 c 38 24 52 92 18 114 c 0 2 0 3 0 5 c 10 8 19 16 29 25 c 1 -5 1 -9 1 -11 c -11 -13 -12 -31 -2 -52 c 6 -11 9 -23 5 -35 c -3 -7 -5 -12 -4 -17 c 39 27 48 92 8 110 c 0 3 0 7 0 12 c 9 9 18 18 26 27 c 1 -2 1 -3 0 -4 c -11 -14 -10 -33 3 -56 c 7 -12 12 -24 8 -37 c -2 -8 -5 -13 -3 -19 c 42 29 46 99 1 119 c -1 1 -1 3 -1 5 c 11 12 22 24 32 37 c 0 -2 0 -3 0 -4 c -10 -15 -9 -34 5 -56 c 8 -12 13 -25 10 -38 c -2 -7 -5 -13 -2 -19 c 40 31 41 103 -5 121 c 0 1 0 3 -1 5 c 9 11 17 22 25 34 c 1 -4 2 -7 2 -9 c -9 -14 -7 -32 9 -53 c 9 -10 15 -22 12 -35 c -1 -8 -3 -13 0 -19 c 38 34 34 102 -14 115 c 0 3 -1 7 -3 11 c 4 4 6 9 9 14 c 5 7 9 14 13 22 c 3 -4 4 -6 4 -9 c -6 -15 0 -30 18 -46 c 10 -8 17 -18 17 -30 c 0 -7 0 -13 3 -17 c 29 37 13 99 -32 102 c -1 2 -3 5 -5 9 c 8 13 14 27 20 41 c 4 -4 6 -8 6 -10 c -5 -15 1 -31 20 -46 c 10 -8 18 -17 18 -29 c 1 -7 0 -13 4 -17 c 27 38 9 99 -37 101 c -1 3 -3 7 -6 11 c 6 14 11 28 16 43 c 4 -4 6 -7 6 -10 c -3 -15 4 -30 22 -44 c 10 -7 18 -15 20 -27 c 1 -7 1 -13 5 -17 c 21 40 -1 100 -43 97 c -2 3 -4 7 -7 11 c 5 14 9 27 12 41 c 3 -3 5 -5 6 -7 c -2 -16 7 -31 26 -42 c 11 -6 19 -14 22 -26 c 2 -7 2 -13 6 -16 c 18 42 -9 99 -51 93 c -2 2 -4 5 -7 9 c 3 12 5 25 7 38 c 2 -2 3 -3 4 -4 c 0 -16 11 -29 32 -37 c 12 -4 22 -11 26 -22 c 3 -6 5 -12 9 -14 c 11 44 -26 96 -66 82 c -1 2 -2 3 -3 4 c 2 19 4 38 4 57 c 4 -3 6 -5 7 -6 c -1 -17 11 -30 34 -39 c 12 -5 23 -12 27 -23 c 3 -7 4 -12 9 -15 c 14 43 -23 97 -68 86 c -2 2 -5 5 -8 8 c 0 17 -1 34 -2 52 c 5 -3 8 -5 9 -7 c 1 -15 12 -27 35 -34 c 13 -4 24 -9 29 -20 c 3 -6 4 -11 9 -13 c 12 41 -28 89 -72 76 c -2 2 -6 5 -11 9 c -1 13 -3 27 -6 40 c 6 -2 9 -4 10 -5 c 3 -15 16 -25 39 -28 c 13 -2 24 -6 30 -16 c 4 -5 6 -10 12 -12 c 4 43 -41 84 -81 65 c -2 2 -6 4 -11 7 c -3 13 -6 26 -9 39 c 5 -2 9 -3 11 -5 c 5 -16 20 -25 43 -25 c 12 0 23 -2 31 -12 c 5 -6 8 -10 14 -11 c -5 48 -57 87 -91 58 c -2 2 -6 4 -11 6 c -5 16 -10 32 -16 48 c 3 0 5 -2 6 -3 c 7 -17 23 -26 49 -26 c 14 0 27 -3 36 -12 c 6 -6 10 -11 16 -13 c -6 52 -65 92 -103 62 c -2 1 -5 3 -9 4 c -4 11 -9 23 -14 34 c 0 0 1 -1 1 -1 c 10 -16 27 -22 53 -18 c 13 2 27 1 37 -8 c 7 -5 11 -9 17 -9 c -13 49 -77 81 -111 45 c 0 1 -1 1 -2 1 c -6 11 -12 22 -18 33 c 1 0 2 0 3 -1 c 10 -14 28 -18 52 -11 c 13 4 26 5 37 -2 c 7 -4 12 -8 18 -7 c -19 46 -84 68 -112 30 c -1 0 -2 0 -3 0 c -8 13 -15 25 -24 37 c 4 1 7 0 9 -1 c 11 -14 29 -18 53 -11 c 14 4 27 5 38 -2 c 7 -4 12 -8 18 -7 c -19 47 -86 69 -115 30 c -2 0 -5 1 -9 1 c -5 7 -10 14 -15 20 c 12 -3 26 -1 43 6 c 14 6 29 9 42 3 c 9 -4 15 -7 22 -6 c -27 48 -99 65 -129 25 c -15 18 -32 36 -49 53 z" stroke-linecap="round"/>
</g>
		<g transform="matrix(1 0 0 1 0 -563.5)" id="_1968039578976">
<polygon style="stroke: none; stroke-width: 1; stroke-dasharray: none; stroke-linecap: butt; stroke-dashoffset: 0; stroke-linejoin: miter; stroke-miterlimit: 4; is-custom-font: none; font-file-url: none; fill: rgb(238,188,3); fill-rule: evenodd; opacity: 1;" points="0,-146.5 38,-35.5 161,-34.5 62,34.5 100,146.5 0,77.5 -100,146.5 -62,34.5 -161,-34.5 -38,-34.5 "/>
</g>
		<g transform="matrix(1 0 0 1 0 0)" id="_1968039578976">
<path style="stroke: none; stroke-width: 1; stroke-dasharray: none; stroke-linecap: butt; stroke-dashoffset: 0; stroke-linejoin: miter; stroke-miterlimit: 4; is-custom-font: none; font-file-url: none; fill: rgb(0,0,0); fill-rule: evenodd; opacity: 1;" transform=" translate(-1204, -1080)" d="M 1204 98 l 548 375 l 547 375 l -209 607 l -209 607 l -677 0 l -677 0 l -209 -607 l -209 -607 l 547 -375 l 548 -375 z m -666 1598 c -48 11 -79 34 -93 71 c 60 -7 112 2 155 29 c 51 33 85 37 100 7 c 8 -16 -8 -40 -46 -72 c -19 -17 -18 -36 4 -55 l 51 -43 c -102 -45 -193 -55 -272 -30 c 45 25 78 56 101 93 z m 1333 0 c 47 11 78 34 93 71 c -60 -7 -112 2 -155 29 c -52 33 -85 37 -100 7 c -8 -16 8 -40 45 -72 c 20 -17 19 -36 -3 -55 l -51 -43 c 102 -45 192 -55 272 -30 c -45 25 -79 56 -101 93 z m -220 73 l 51 49 c 9 9 21 14 38 14 c 2 0 4 0 6 0 c 18 -1 41 -11 68 -28 c 20 -13 43 -22 67 -26 c 25 -5 53 -5 82 -2 l 7 1 l -95 276 l -671 0 l -671 0 l -95 -276 l 8 -1 c 29 -3 56 -3 81 2 c 25 4 48 13 68 26 c 27 17 50 27 68 28 c 2 0 4 0 6 0 c 16 0 29 -5 38 -14 l 51 -49 c 41 30 87 55 138 75 c 91 37 196 58 308 58 c 112 0 217 -21 309 -58 c 50 -20 97 -46 138 -75 z m 322 -2 l -1 -3 c -8 -20 -20 -36 -37 -49 c -14 -11 -30 -19 -50 -24 c 9 -14 21 -27 34 -39 c 16 -15 35 -29 57 -41 l 18 -10 l -19 -6 c -41 -13 -85 -17 -132 -12 c -46 5 -95 19 -147 42 l -4 2 l -88 -74 c -3 -4 -22 -22 -48 0 c -47 41 -102 73 -163 95 c -58 21 -122 33 -189 33 c -67 0 -130 -12 -189 -33 c -60 -22 -115 -54 -162 -94 c -26 -22 -45 -4 -49 0 l -87 73 l -4 -2 c -52 -23 -101 -37 -148 -42 c -46 -5 -90 -1 -131 12 l -19 6 l 17 10 c 22 12 41 26 58 41 c 13 12 24 25 34 39 c -20 5 -37 13 -50 24 c -17 13 -29 29 -37 49 l -2 4 l -109 -316 l -207 -601 l 542 -371 l 543 -372 l 543 372 l 542 371 l -207 601 l -109 315 z m -234 -90 c -111 130 -309 216 -535 216 c -225 0 -423 -86 -534 -215 l 140 -118 c 0 0 15 -18 37 0 c 94 81 219 130 357 130 c 138 0 264 -50 358 -130 c 21 -19 36 0 36 0 l 141 117 z" stroke-linecap="round"/>
</g>
		<g transform="matrix(1 0 0 1 0 137.9942)" id="_1968039578976">
<path style="stroke: none; stroke-width: 1; stroke-dasharray: none; stroke-linecap: butt; stroke-dashoffset: 0; stroke-linejoin: miter; stroke-miterlimit: 4; is-custom-font: none; font-file-url: none; fill: rgb(254,254,254); fill-rule: evenodd; opacity: 1;" transform=" translate(-1204, -1217.9942)" d="M 1751 1676 l -52 -43 c 102 -45 193 -55 273 -30 c -45 25 -79 56 -101 93 c 47 11 78 34 92 71 c -60 -7 -112 2 -154 29 c -52 33 -85 37 -100 7 c -9 -16 7 -40 45 -72 c 19 -17 19 -36 -3 -55 z m -248 -435 l -247 129 l 0 -4 l 245 -129 l -3 -4 l -293 154 l -1 0 l -1 0 l -293 -154 l -3 4 l 245 128 l 0 5 l -247 -129 l -12 22 l 261 145 l 3 2 l -3 2 l -155 88 l 26 29 l 178 -96 l 1 -1 l 1 1 l 178 96 l 26 -29 l -155 -88 l -3 -2 l 3 -2 l 261 -145 l -12 -22 z m -254 133 l -29 15 l -2 -4 l 31 -16 l 0 5 z m -90 -6 l 31 17 l -2 4 l -29 -16 l 0 -5 z m -639 95 c -9 18 5 30 18 33 c 5 1 9 4 2 8 c -9 8 -5 29 12 31 c 23 3 29 -15 22 -21 c -6 -7 -3 -11 2 -7 c 8 7 23 7 27 -6 c 4 -14 -1 -20 -20 -22 c -8 -1 -11 -12 -3 -11 c 16 4 23 2 24 -15 c 2 -19 -18 -23 -30 -18 c -6 3 -10 6 -11 11 c -1 6 -4 8 -11 5 c -16 -7 -28 2 -32 12 z m 557 -865 c -4 -16 -20 -16 -30 -11 c -4 2 -8 2 -7 -4 c 2 -10 -13 -21 -25 -14 c -16 10 -10 24 -2 25 c 7 1 8 5 2 5 c -9 0 -19 8 -14 18 c 5 11 11 12 25 3 c 6 -3 14 2 8 5 c -12 6 -16 11 -7 22 c 9 13 24 5 30 -4 c 2 -5 3 -9 1 -12 c -3 -4 -2 -8 5 -9 c 14 -4 17 -15 14 -24 z m -64 112 c 1 -16 -14 -21 -25 -20 c -4 0 -8 -1 -5 -6 c 6 -8 -5 -24 -19 -21 c -19 4 -18 19 -11 23 c 8 3 6 7 1 5 c -8 -3 -20 1 -19 12 c 1 12 7 15 23 12 c 7 -2 12 6 5 7 c -13 2 -18 5 -14 19 c 5 14 22 12 30 5 c 4 -4 6 -7 5 -11 c -1 -5 1 -8 8 -7 c 14 1 21 -9 21 -18 z m -112 -164 c -20 -9 -32 4 -35 15 c -1 5 -4 8 -9 2 c -8 -9 -31 -7 -33 9 c -2 20 16 27 23 21 c 7 -5 11 -2 7 2 c -7 7 -7 21 7 25 c 15 5 21 1 23 -16 c 1 -8 13 -10 11 -2 c -3 14 -1 20 17 23 c 20 2 24 -15 19 -27 c -3 -6 -6 -9 -12 -10 c -6 -2 -8 -5 -5 -11 c 7 -14 -2 -26 -13 -31 z m -133 63 c -19 -6 -28 8 -28 20 c 0 5 -3 8 -8 3 c -9 -7 -28 -1 -28 15 c 1 20 19 24 24 17 c 5 -6 10 -4 7 1 c -5 8 -3 21 10 23 c 14 2 18 -3 17 -20 c 0 -8 10 -12 10 -4 c -1 14 2 21 18 20 c 18 -1 19 -19 13 -29 c -4 -6 -7 -9 -12 -9 c -6 0 -9 -3 -7 -10 c 5 -15 -5 -24 -16 -27 z m 143 147 c -2 -16 -18 -17 -28 -14 c -5 2 -9 1 -6 -4 c 3 -9 -11 -21 -24 -15 c -17 8 -13 22 -5 23 c 7 2 7 6 2 5 c -9 -1 -20 5 -17 15 c 4 11 10 12 25 6 c 6 -3 13 3 7 5 c -13 5 -17 9 -10 20 c 8 13 24 7 30 -1 c 3 -4 5 -8 3 -11 c -2 -4 -1 -7 6 -8 c 14 -2 19 -13 17 -21 z m -263 -44 c -19 1 -23 17 -19 28 c 1 5 0 9 -7 6 c -10 -4 -26 9 -20 23 c 7 19 25 16 27 8 c 3 -8 8 -7 7 -1 c -3 9 4 21 17 19 c 13 -3 16 -9 9 -25 c -2 -8 6 -14 8 -7 c 4 13 9 18 24 12 c 16 -7 11 -24 1 -31 c -5 -4 -9 -6 -14 -5 c -5 2 -8 0 -9 -7 c -1 -15 -13 -21 -24 -20 z m 161 133 c -5 -17 -21 -17 -31 -11 c -4 2 -8 2 -7 -4 c 2 -10 -13 -22 -25 -13 c -16 11 -10 26 -2 27 c 8 0 9 4 3 5 c -9 0 -19 9 -14 19 c 6 12 12 12 26 3 c 6 -4 14 1 8 5 c -12 7 -15 12 -6 24 c 10 13 24 4 29 -6 c 2 -5 3 -10 1 -14 c -3 -4 -2 -7 4 -9 c 14 -5 17 -17 14 -26 z m -255 -1 c -20 6 -20 24 -13 35 c 2 5 2 10 -5 8 c -12 -2 -26 15 -16 29 c 13 19 30 12 31 3 c 0 -9 6 -10 6 -4 c 0 11 10 22 22 17 c 14 -6 14 -14 4 -30 c -5 -7 2 -16 6 -9 c 8 14 14 18 27 8 c 16 -11 6 -29 -6 -34 c -6 -3 -11 -4 -15 -1 c -5 3 -9 1 -11 -6 c -5 -16 -20 -19 -30 -16 z m 191 91 c -10 -15 -25 -9 -32 -1 c -3 3 -7 5 -8 -2 c -1 -10 -19 -16 -28 -4 c -11 15 -1 27 7 25 c 7 -2 9 2 4 4 c -8 3 -15 15 -7 23 c 9 10 15 8 25 -5 c 4 -6 14 -3 9 2 c -9 11 -11 17 1 25 c 14 9 25 -4 26 -15 c 1 -5 1 -10 -3 -13 c -4 -3 -4 -7 1 -10 c 12 -9 11 -22 5 -29 z m -260 56 c -17 13 -9 31 1 39 c 5 4 7 8 -1 10 c -12 2 -19 25 -4 35 c 20 12 34 -1 31 -11 c -3 -9 2 -11 4 -5 c 4 10 19 17 28 7 c 11 -11 9 -19 -8 -30 c -7 -5 -4 -17 3 -11 c 13 10 20 12 29 -4 c 10 -17 -6 -30 -19 -30 c -7 -1 -12 0 -16 5 c -3 5 -8 5 -13 -1 c -11 -14 -26 -12 -35 -4 z m 203 50 c -14 -10 -27 0 -31 10 c -2 4 -5 7 -8 1 c -4 -10 -24 -10 -28 5 c -6 18 8 26 15 22 c 6 -4 9 -1 5 2 c -7 6 -10 19 1 24 c 11 6 17 3 22 -13 c 2 -7 12 -7 9 -1 c -5 13 -5 19 9 23 c 16 5 23 -11 20 -22 c -1 -6 -3 -10 -7 -11 c -5 -2 -6 -6 -2 -11 c 8 -12 3 -23 -5 -29 z m -1 105 c -15 -10 -28 0 -32 10 c -2 4 -5 7 -9 1 c -5 -9 -25 -9 -29 5 c -6 18 8 26 15 22 c 7 -4 10 -1 6 2 c -8 6 -10 19 0 24 c 12 6 18 3 24 -13 c 2 -7 12 -7 9 -1 c -5 13 -5 19 10 23 c 17 5 24 -11 21 -22 c -1 -6 -3 -10 -7 -11 c -6 -2 -7 -5 -3 -11 c 9 -12 4 -23 -5 -29 z m -231 6 c -14 14 -5 30 6 36 c 4 3 6 7 -1 9 c -11 4 -14 25 1 33 c 19 9 30 -5 27 -13 c -4 -8 0 -11 3 -6 c 5 9 19 14 26 4 c 9 -12 6 -19 -10 -27 c -8 -4 -6 -15 0 -11 c 13 8 20 9 27 -6 c 7 -17 -9 -27 -21 -26 c -7 0 -11 1 -14 6 c -2 5 -7 6 -12 1 c -11 -12 -25 -8 -32 0 z m 218 97 c -19 -4 -27 13 -26 25 c 1 6 -1 10 -7 5 c -10 -7 -29 3 -26 20 c 3 21 21 22 26 15 c 4 -8 9 -6 6 -1 c -4 9 0 24 13 24 c 14 1 18 -6 16 -24 c -2 -8 8 -14 9 -6 c 1 16 4 22 21 19 c 18 -4 17 -23 9 -33 c -5 -5 -8 -8 -14 -8 c -5 1 -8 -2 -7 -9 c 2 -17 -9 -26 -20 -27 z m -202 71 c -12 17 0 32 13 37 c 5 2 8 6 1 10 c -11 5 -10 29 7 34 c 23 6 32 -11 27 -19 c -6 -8 -2 -11 2 -6 c 7 8 23 11 30 -2 c 6 -14 2 -20 -17 -26 c -9 -3 -9 -15 -1 -12 c 15 6 23 6 27 -11 c 5 -20 -14 -27 -27 -24 c -7 2 -12 4 -14 9 c -2 6 -6 8 -13 3 c -14 -10 -28 -3 -35 7 z m 257 64 c -17 -3 -24 12 -23 23 c 0 5 -2 9 -7 5 c -9 -7 -26 2 -23 17 c 3 19 19 20 23 14 c 4 -7 8 -6 6 -1 c -4 8 0 22 11 22 c 13 0 17 -6 14 -22 c -1 -8 8 -12 9 -5 c 1 14 4 19 18 16 c 17 -3 16 -20 8 -29 c -3 -5 -7 -7 -11 -7 c -6 1 -8 -2 -7 -8 c 2 -15 -8 -23 -18 -25 z m -72 292 l 52 -43 c -102 -45 -193 -55 -273 -30 c 45 25 79 56 101 93 c -47 11 -78 34 -92 71 c 60 -7 112 2 154 29 c 52 33 85 37 100 7 c 9 -16 -7 -40 -45 -72 c -19 -17 -19 -36 3 -55 z m 1081 1 c -111 130 -309 216 -534 216 c -225 0 -423 -86 -534 -215 l 140 -118 c 0 0 15 -18 37 0 c 93 81 219 130 357 130 c 138 0 263 -50 357 -130 c 22 -19 37 0 37 0 l 140 117 z" stroke-linecap="round"/>
</g>
		<g transform="matrix(1 0 0 1 -150 30.5)" id="_1968039578976">
<linearGradient id="SVGID_3" gradientUnits="userSpaceOnUse" gradientTransform="matrix(1 0 0 1 0 0)" x1="900.016" y1="1078.24" x2="1207.12" y2="1143.52">
<stop offset="0%" style="stop-color:rgb(236,164,0);stop-opacity: 1"/>
<stop offset="23.1373%" style="stop-color:rgb(237,168,4);stop-opacity: 1"/>
<stop offset="34.902%" style="stop-color:rgb(243,198,39);stop-opacity: 1"/>
<stop offset="41.9608%" style="stop-color:rgb(236,164,0);stop-opacity: 1"/>
<stop offset="47.8431%" style="stop-color:rgb(245,205,46);stop-opacity: 1"/>
<stop offset="74.902%" style="stop-color:rgb(244,199,40);stop-opacity: 1"/>
<stop offset="90.1961%" style="stop-color:rgb(237,167,4);stop-opacity: 1"/>
<stop offset="100%" style="stop-color:rgb(236,164,0);stop-opacity: 1"/>
</linearGradient>
<path style="stroke: none; stroke-width: 1; stroke-dasharray: none; stroke-linecap: butt; stroke-dashoffset: 0; stroke-linejoin: miter; stroke-miterlimit: 4; is-custom-font: none; font-file-url: none; fill: url(#SVGID_3); fill-rule: evenodd; opacity: 1;" transform=" translate(-1054, -1110.5)" d="M 903 1172 c 119 -1 215 52 302 127 l 0 -300 c -65 -44 -136 -73 -214 -77 l -88 250 z" stroke-linecap="round"/>
</g>
		<g transform="matrix(1 0 0 1 152 30.5)" id="_1968039578976">
<linearGradient id="SVGID_4" gradientUnits="userSpaceOnUse" gradientTransform="matrix(1 0 0 1 0 0)" x1="1202" y1="1078.24" x2="1509.11" y2="1143.52">
<stop offset="0%" style="stop-color:rgb(236,164,0);stop-opacity: 1"/>
<stop offset="23.1373%" style="stop-color:rgb(237,168,4);stop-opacity: 1"/>
<stop offset="34.902%" style="stop-color:rgb(243,198,39);stop-opacity: 1"/>
<stop offset="41.9608%" style="stop-color:rgb(236,164,0);stop-opacity: 1"/>
<stop offset="47.8431%" style="stop-color:rgb(245,205,46);stop-opacity: 1"/>
<stop offset="74.902%" style="stop-color:rgb(244,199,40);stop-opacity: 1"/>
<stop offset="90.1961%" style="stop-color:rgb(237,167,4);stop-opacity: 1"/>
<stop offset="100%" style="stop-color:rgb(236,164,0);stop-opacity: 1"/>
</linearGradient>
<path style="stroke: none; stroke-width: 1; stroke-dasharray: none; stroke-linecap: butt; stroke-dashoffset: 0; stroke-linejoin: miter; stroke-miterlimit: 4; is-custom-font: none; font-file-url: none; fill: url(#SVGID_4); fill-rule: evenodd; opacity: 1;" transform=" translate(-1356, -1110.5)" d="M 1507 1172 c -120 -1 -216 52 -302 127 l 0 -300 c 64 -44 135 -73 213 -77 l 89 250 z" stroke-linecap="round"/>
</g>
		<g transform="matrix(1 0 0 1 1 181.9931)" id="_1968039578976">
<path style="stroke: none; stroke-width: 1; stroke-dasharray: none; stroke-linecap: butt; stroke-dashoffset: 0; stroke-linejoin: miter; stroke-miterlimit: 4; is-custom-font: none; font-file-url: none; fill: rgb(216,159,7); fill-rule: evenodd; opacity: 1;" transform=" translate(-1205, -1261.993)" d="M 903 1172 l 5 55 c 117 10 203 52 259 125 l 75 0 c 56 -73 142 -115 259 -125 l 6 -55 c -120 -1 -216 52 -302 127 c -87 -75 -183 -128 -302 -127 z" stroke-linecap="round"/>
</g>
		<g transform="matrix(1 0 0 1 -123.5 -7.1985)" id="_1968039578976">
<path style="stroke: none; stroke-width: 1; stroke-dasharray: none; stroke-linecap: butt; stroke-dashoffset: 0; stroke-linejoin: miter; stroke-miterlimit: 4; is-custom-font: none; font-file-url: none; fill: rgb(0,0,0); fill-rule: evenodd; opacity: 1;" transform=" translate(-1080.5, -1072.8015)" d="M 1060 1001 c -3 -3 -7 -1 -10 3 c 2 -1 3 -1 4 -1 c 2 -1 3 0 4 1 c 2 3 5 3 9 2 c 4 -1 5 1 6 3 c 1 4 6 4 12 3 c 4 -1 6 0 8 3 c 1 4 5 5 12 5 c 1 0 2 2 4 3 c 3 5 8 5 14 4 c 6 -1 9 2 12 6 c 3 4 8 5 16 2 c -8 0 -14 -2 -16 -6 c -3 -6 -6 -7 -13 -5 c -5 2 -9 -1 -12 -6 c -2 -4 -6 -5 -12 -4 c -3 0 -4 -2 -5 -5 c -1 -3 -6 -4 -13 -2 c -3 0 -4 -1 -5 -3 c -2 -3 -6 -3 -11 -1 c -2 1 -2 0 -4 -2 z m -23 74 c -3 -3 -7 -1 -10 3 c 1 -1 3 -1 4 -2 c 2 0 3 0 4 2 c 2 3 5 3 9 2 c 5 -1 6 1 7 3 c 1 4 6 4 12 3 c 4 -1 7 0 8 3 c 2 5 6 6 13 6 c 1 0 3 1 4 3 c 3 5 9 5 15 4 c 6 -1 10 2 13 7 c 2 4 8 4 16 2 c -8 -1 -14 -3 -16 -7 c -3 -6 -7 -7 -14 -5 c -6 2 -10 -1 -13 -7 c -2 -4 -6 -5 -13 -4 c -2 0 -3 -2 -4 -4 c -2 -4 -7 -5 -14 -3 c -3 0 -4 -1 -6 -3 c -2 -4 -6 -3 -11 -1 c -1 1 -2 -1 -4 -2 z m -15 35 c -4 -3 -9 -1 -12 4 c 2 -1 3 -2 5 -2 c 2 0 3 0 5 2 c 2 3 6 2 10 1 c 5 -1 6 1 7 3 c 2 4 8 5 15 3 c 4 -1 7 0 9 3 c 2 4 7 6 14 5 c 2 0 4 2 5 3 c 4 5 10 6 18 4 c 6 -1 11 1 14 6 c 3 5 10 5 19 2 c -9 -1 -16 -2 -19 -7 c -3 -5 -8 -7 -16 -4 c -6 2 -11 -1 -14 -7 c -3 -4 -8 -5 -15 -4 c -3 1 -4 -2 -5 -4 c -2 -4 -8 -4 -16 -2 c -4 0 -5 -1 -7 -3 c -3 -4 -7 -3 -12 -1 c -2 2 -3 0 -5 -2 z m 28 -73 c -3 -3 -7 -1 -10 2 c 2 0 3 -1 4 -1 c 2 0 3 0 4 2 c 2 3 5 2 9 1 c 4 -1 5 1 6 4 c 2 3 7 4 12 2 c 4 0 7 1 8 4 c 1 4 5 5 12 5 c 1 0 3 1 4 3 c 3 4 8 5 15 4 c 5 -1 8 1 11 6 c 3 4 8 4 16 2 c -8 -1 -14 -3 -16 -6 c -2 -6 -6 -7 -13 -5 c -5 1 -9 -1 -12 -7 c -2 -4 -6 -4 -12 -4 c -3 0 -3 -2 -4 -4 c -2 -3 -7 -4 -14 -3 c -3 1 -4 0 -5 -2 c -2 -4 -6 -3 -11 -1 c -1 1 -2 -1 -4 -2 z" stroke-linecap="round"/>
</g>
		<g transform="matrix(1 0 0 1 125 -7.1985)" id="_1968039578976">
<path style="stroke: none; stroke-width: 1; stroke-dasharray: none; stroke-linecap: butt; stroke-dashoffset: 0; stroke-linejoin: miter; stroke-miterlimit: 4; is-custom-font: none; font-file-url: none; fill: rgb(0,0,0); fill-rule: evenodd; opacity: 1;" transform=" translate(-1329, -1072.8015)" d="M 1349 1001 c 3 -3 7 -1 10 3 c -2 -1 -3 -1 -4 -1 c -2 -1 -3 0 -4 1 c -2 3 -5 3 -9 2 c -4 -1 -5 1 -6 3 c -1 4 -6 4 -12 3 c -4 -1 -6 0 -7 3 c -2 4 -6 5 -12 5 c -2 0 -3 2 -4 3 c -4 5 -9 5 -15 4 c -6 -1 -9 2 -12 6 c -2 4 -8 5 -15 2 c 7 0 13 -2 15 -6 c 3 -6 6 -7 13 -5 c 6 2 9 -1 12 -6 c 2 -4 6 -5 13 -4 c 2 0 3 -2 4 -5 c 1 -3 6 -4 13 -2 c 3 0 4 -1 6 -3 c 2 -3 5 -3 10 -1 c 2 1 2 0 4 -2 z m 23 74 c 3 -3 8 -1 10 3 c -1 -1 -2 -1 -4 -2 c -2 0 -3 0 -4 2 c -2 3 -5 3 -9 2 c -5 -1 -6 1 -6 3 c -2 4 -7 4 -13 3 c -4 -1 -7 0 -8 3 c -2 5 -6 6 -13 6 c -1 0 -2 1 -4 3 c -3 5 -8 5 -15 4 c -6 -1 -9 2 -12 7 c -3 4 -9 4 -17 2 c 8 -1 14 -3 16 -7 c 3 -6 7 -7 14 -5 c 6 2 10 -1 13 -7 c 2 -4 6 -5 13 -4 c 2 0 3 -2 4 -4 c 2 -4 7 -5 14 -3 c 3 0 5 -1 6 -3 c 2 -4 6 -3 11 -1 c 2 1 2 -1 4 -2 z m 15 35 c 4 -3 9 -1 12 4 c -2 -1 -3 -2 -5 -2 c -2 0 -3 0 -5 2 c -2 3 -6 2 -10 1 c -5 -1 -6 1 -7 3 c -2 4 -8 5 -15 3 c -4 -1 -7 0 -9 3 c -2 4 -7 6 -14 5 c -2 0 -4 2 -5 3 c -4 5 -10 6 -18 4 c -6 -1 -11 1 -14 6 c -3 5 -10 5 -19 2 c 9 -1 16 -2 19 -7 c 3 -5 8 -7 16 -4 c 6 2 11 -1 14 -7 c 3 -4 8 -5 15 -4 c 3 1 4 -2 5 -4 c 2 -4 8 -4 16 -2 c 4 0 6 -1 7 -3 c 3 -4 7 -3 12 -1 c 2 2 3 0 5 -2 z m -28 -73 c 3 -3 7 -1 10 2 c -2 0 -3 -1 -4 -1 c -2 0 -3 0 -4 2 c -2 3 -5 2 -9 1 c -4 -1 -5 1 -6 4 c -2 3 -7 4 -12 2 c -4 0 -6 1 -8 4 c -1 4 -5 5 -12 5 c -1 0 -2 1 -4 3 c -3 4 -8 5 -14 4 c -6 -1 -9 1 -12 6 c -3 4 -8 4 -16 2 c 8 -1 14 -3 16 -6 c 2 -6 6 -7 13 -5 c 5 1 9 -1 12 -7 c 2 -4 6 -4 12 -4 c 3 0 4 -2 4 -4 c 2 -3 7 -4 14 -3 c 3 1 4 0 5 -2 c 2 -4 6 -3 11 -1 c 1 1 2 -1 4 -2 z" stroke-linecap="round"/>
</g>
		<g transform="matrix(1 0 0 1 -127.2071 8.9183)" id="_1968039578976">
<path style="stroke: none; stroke-width: 1; stroke-dasharray: none; stroke-linecap: butt; stroke-dashoffset: 0; stroke-linejoin: miter; stroke-miterlimit: 4; is-custom-font: none; font-file-url: none; fill: rgb(183,142,0); fill-rule: nonzero; opacity: 1;" transform=" translate(-1076.7929, -1088.9184)" d="M 996 1143 c 32 3 61 9 88 19 c 26 10 51 23 74 39 l 10 -177 c -18 -12 -37 -23 -57 -32 c -20 -9 -40 -16 -63 -18 l 0 0 l -1 0 l 0 0 c -6 -1 -13 -2 -15 5 l -43 137 l 0 0 c -2 4 -2 7 -3 11 c 0 4 0 7 1 10 c 2 3 3 4 6 5 c 1 1 2 1 3 1 z m 87 23 c -27 -10 -56 -17 -87 -20 c -2 0 -3 0 -4 0 c -4 -2 -6 -4 -8 -8 c -1 -3 -2 -7 -1 -11 c 0 -4 1 -8 2 -12 l 0 0 l 43 -137 c 3 -10 12 -8 19 -8 l 2 0 c 22 3 44 10 64 19 c 20 9 39 20 58 33 l 0 0 l 0 1 l -10 182 l 0 3 l -2 -2 c -24 -17 -49 -30 -76 -40 z" stroke-linecap="round"/>
</g>
		<g transform="matrix(1 0 0 1 128.2071 8.9183)" id="_1968039578976">
<path style="stroke: none; stroke-width: 1; stroke-dasharray: none; stroke-linecap: butt; stroke-dashoffset: 0; stroke-linejoin: miter; stroke-miterlimit: 4; is-custom-font: none; font-file-url: none; fill: rgb(183,142,0); fill-rule: nonzero; opacity: 1;" transform=" translate(-1332.2071, -1088.9184)" d="M 1413 1143 c -32 3 -61 9 -88 19 c -26 10 -50 23 -74 39 l -10 -177 c 19 -12 37 -23 57 -32 c 20 -9 41 -16 63 -18 l 0 0 l 1 0 l 0 0 c 6 -1 13 -2 15 5 l 44 137 l 0 0 c 1 4 2 7 2 11 c 0 4 0 7 -1 10 c -1 3 -3 4 -6 5 c -1 1 -2 1 -3 1 z m -87 23 c 27 -10 56 -17 87 -20 c 2 0 3 0 4 0 c 4 -2 6 -4 8 -8 c 1 -3 2 -7 1 -11 c 0 -4 -1 -8 -2 -12 l 0 0 l -43 -137 c -3 -10 -12 -8 -19 -8 l -1 0 c -23 3 -44 10 -65 19 c -20 9 -39 20 -57 33 l -1 0 l 0 1 l 10 182 l 0 3 l 3 -2 c 24 -17 49 -30 75 -40 z" stroke-linecap="round"/>
</g>
		<g transform="matrix(1 0 0 1 -0.5 303.5)" id="_1968039578976">
<path style="stroke: none; stroke-width: 1; stroke-dasharray: none; stroke-linecap: butt; stroke-dashoffset: 0; stroke-linejoin: miter; stroke-miterlimit: 4; is-custom-font: none; font-file-url: none; fill: rgb(0,0,0); fill-rule: evenodd; opacity: 1;" transform=" translate(-1203.5, -1383.5)" d="M 752 1699 l -23 -17 l 64 -85 l 24 17 l -65 85 z m 155 -522 l 5 46 c 57 5 108 18 150 39 c 44 21 79 50 108 86 l 70 0 c 28 -36 64 -65 107 -86 c 43 -21 93 -34 150 -39 l 5 -46 c -57 0 -109 13 -157 34 c -49 23 -95 54 -138 92 l -2 2 l -3 -2 c -43 -38 -89 -69 -138 -92 c -48 -21 -99 -34 -157 -34 z m 122 167 l -140 -78 l -2 -1 l 1 -2 l 19 -34 l 1 -2 l -5 -55 l 88 -250 c 78 4 149 33 214 77 c 64 -44 135 -73 213 -77 l 89 250 l -6 55 l -1 1 l 1 1 l 19 34 l 1 2 l -2 1 l -140 78 l 37 155 l -2 2 l -29 32 l -1 1 l -2 -1 l -178 -96 l -178 96 l -2 1 l -1 -1 l -29 -32 l -2 -2 l 37 -155 z m 171 -343 l -1 -1 c -31 -21 -64 -38 -98 -50 c -34 -13 -70 -21 -107 -23 l -85 241 l -2 4 c 117 1 211 52 295 125 l 0 -294 l -2 -2 z m 302 171 l -2 -4 l -85 -241 c -37 2 -73 10 -107 23 c -34 12 -67 29 -98 50 l -1 1 l -2 2 l 0 294 c 85 -73 179 -124 295 -125 z m 1 69 l -247 129 l 0 -4 l 245 -129 l -3 -4 l -293 154 l -1 0 l -1 0 l -293 -154 l -3 4 l 245 128 l 0 5 l -247 -129 l -12 22 l 261 145 l 3 2 l -3 2 l -155 88 l 26 29 l 178 -96 l 1 -1 l 1 1 l 178 96 l 26 -29 l -155 -88 l -3 -2 l 3 -2 l 261 -145 l -12 -22 z m -254 133 l -29 15 l -2 -4 l 31 -16 l 0 5 z m -90 -6 l 31 17 l -2 4 l -29 -16 l 0 -5 z m -339 377 l -27 -18 l 12 -39 l -21 34 l -25 -16 l 57 -90 l 24 15 l -18 30 l 29 -23 l 23 14 l -41 32 l -13 61 z m 72 36 l -26 -13 l 23 -46 l -8 -3 l -22 46 l -26 -13 l 47 -96 l 26 13 l -19 38 l 7 4 l 19 -39 l 26 13 l -47 96 z m 67 26 l -51 -19 l 38 -100 l 27 10 l -33 87 l 24 9 l -5 13 z m 84 23 l -28 -7 l 2 -29 l -13 -3 l -11 27 l -29 -7 l 46 -99 l 36 9 l -3 109 z m -25 -51 l 3 -32 l -11 30 l 8 2 z m 38 10 l 26 4 l -3 24 c 0 3 1 4 5 5 c 3 0 5 -1 6 -3 l 1 -13 c 1 -4 -2 -9 -7 -15 c -11 -11 -18 -18 -21 -22 c -2 -4 -3 -8 -3 -12 l 2 -11 c 2 -14 14 -19 36 -16 c 20 2 30 10 28 22 l -3 19 l -26 -4 l 3 -19 c 0 -2 -1 -4 -4 -4 c -4 0 -6 1 -6 5 l -1 7 c 0 4 2 9 8 15 c 11 11 18 19 21 23 c 2 4 3 8 3 13 l -2 14 c -2 14 -14 19 -37 16 c -21 -3 -31 -11 -29 -24 l 3 -24 z m 100 54 l 4 -106 l 34 1 c 8 0 15 2 21 5 c 6 3 9 8 9 15 l -1 15 c 0 7 -6 12 -17 15 c 12 3 18 8 17 16 l 0 20 c -1 8 -4 13 -10 16 c -5 3 -12 5 -20 5 l -37 -2 z m 40 -68 l 0 -18 c 0 -4 -2 -5 -8 -6 l -1 30 c 6 0 9 -2 9 -6 z m -2 50 l 1 -27 c 0 -4 -3 -5 -8 -6 l -1 39 c 5 0 8 -2 8 -6 z m 94 13 l -57 5 l -9 -106 l 57 -5 l 1 14 l -27 2 l 2 29 l 25 -2 l 1 13 l -25 2 l 3 37 l 28 -2 l 1 13 z m 86 -16 l -29 6 c -3 -3 -7 -11 -9 -25 l 0 0 l -2 -6 c -1 -9 -2 -13 -2 -13 c -1 -4 -4 -5 -10 -4 l 10 50 l -28 6 l -22 -104 l 35 -8 c 8 -1 16 -1 22 0 c 7 2 11 6 12 13 l 3 12 c 1 8 -3 15 -15 20 c 13 0 20 5 22 14 l 2 11 c 3 17 7 26 11 28 z m -47 -62 l -4 -17 c 0 -4 -4 -5 -10 -4 l 6 28 c 6 -1 9 -3 8 -7 z m 129 36 l -28 9 l -13 -26 l -12 4 l 4 28 l -28 9 l -11 -108 l 36 -11 l 52 95 z m -47 -31 l -14 -29 l 6 32 l 8 -3 z m 146 -16 l -23 11 l -27 -54 l 13 61 l -18 9 l -42 -47 l 26 54 l -20 10 l -47 -96 l 34 -16 l 36 44 l -14 -55 l 35 -17 l 47 96 z m 75 -48 l -25 15 l -19 -21 l -11 6 l 11 27 l -25 16 l -38 -103 l 32 -19 l 75 79 z m -54 -18 l -20 -25 l 13 30 l 7 -5 z m 102 -22 l -43 34 l -65 -84 l 23 -18 l 57 73 l 20 -15 l 8 10 z" stroke-linecap="round"/>
</g>
</g>
</g>
</svg>