<svg xmlns="http://www.w3.org/2000/svg" xmlns:xlink="http://www.w3.org/1999/xlink" version="1.1" width="1000" height="1000" viewBox="0 0 1000 1000" xml:space="preserve">
<desc>Created with Fabric.js 3.5.0</desc>
<defs>
</defs>
<rect x="0" y="0" width="100%" height="100%" fill="rgba(255,255,255,0)"/>
<g transform="matrix(0.3627 0 0 0.3627 500.0146 500.0125)" id="75539">
<path style="stroke: none; stroke-width: 1; stroke-dasharray: none; stroke-linecap: butt; stroke-dashoffset: 0; stroke-linejoin: miter; stroke-miterlimit: 4; is-custom-font: none; font-file-url: none; fill: rgb(73,86,120); fill-rule: evenodd; opacity: 1;" vector-effect="non-scaling-stroke" transform=" translate(-1255.5, -1079.9371)" d="M 1328 1247 l 106 -107 c 25 -24 64 -24 89 0 l 148 149 c 50 50 50 132 0 183 l -12 12 c -50 50 -132 50 -183 0 l -148 -149 c -24 -24 -24 -64 0 -88 z m -1264 626 l 0 110 l 125 -130 c 6 -7 11 -11 15 -14 c 5 -3 10 -5 17 -5 c 9 0 17 3 23 8 c 5 6 8 12 8 20 c 0 9 -5 19 -14 28 l -78 73 l 89 128 c 7 9 11 17 15 23 c 3 7 4 14 4 20 c 0 7 -2 13 -8 18 c -5 5 -13 8 -22 8 c -9 0 -17 -2 -22 -6 c -6 -4 -10 -9 -14 -15 c -4 -6 -8 -12 -11 -17 l -75 -116 l -52 50 l 0 65 c 0 13 -3 23 -9 29 c -6 7 -14 10 -23 10 c -6 0 -11 -2 -16 -4 c -5 -3 -9 -7 -12 -12 c -2 -4 -3 -9 -3 -14 c -1 -5 -1 -13 -1 -23 l 0 -234 c 0 -13 3 -23 9 -29 c 5 -6 13 -10 23 -10 c 9 0 17 3 23 10 c 6 6 9 16 9 29 z m 469 16 l -144 0 l 0 77 l 132 0 c 10 0 17 2 22 7 c 5 4 7 10 7 17 c 0 7 -2 13 -7 18 c -4 4 -12 6 -22 6 l -132 0 l 0 90 l 149 0 c 10 0 17 2 22 7 c 5 5 8 11 8 19 c 0 7 -3 13 -8 18 c -5 4 -12 7 -22 7 l -174 0 c -14 0 -24 -3 -30 -10 c -6 -6 -9 -16 -9 -29 l 0 -237 c 0 -10 2 -17 4 -23 c 3 -6 7 -10 13 -12 c 6 -3 13 -4 22 -4 l 169 0 c 10 0 18 2 22 6 c 5 5 8 11 8 18 c 0 8 -3 14 -8 18 c -4 5 -12 7 -22 7 z m 192 218 l -50 -201 l 0 218 c 0 12 -3 21 -8 27 c -6 6 -13 9 -22 9 c -8 0 -15 -3 -21 -9 c -5 -6 -8 -15 -8 -27 l 0 -249 c 0 -14 4 -23 11 -28 c 7 -5 17 -7 29 -7 l 20 0 c 11 0 20 1 25 3 c 6 2 10 6 12 11 c 3 6 6 15 9 28 l 46 172 l 46 -172 c 3 -13 6 -22 8 -28 c 3 -5 7 -9 12 -11 c 6 -2 14 -3 26 -3 l 20 0 c 12 0 22 2 29 7 c 7 5 11 14 11 28 l 0 249 c 0 12 -3 21 -8 27 c -6 6 -13 9 -22 9 c -8 0 -15 -3 -21 -9 c -5 -6 -8 -15 -8 -27 l 0 -218 l -50 201 c -4 13 -6 23 -8 29 c -2 6 -6 11 -12 16 c -6 5 -13 8 -23 8 c -8 0 -14 -2 -19 -5 c -5 -3 -9 -7 -12 -12 c -3 -5 -5 -11 -7 -17 c -2 -6 -3 -12 -5 -19 z m 344 -234 l 122 185 l 0 -187 c 0 -12 3 -21 8 -28 c 5 -6 12 -9 21 -9 c 9 0 16 3 22 9 c 5 6 8 16 8 28 l 0 247 c 0 28 -12 42 -35 42 c -5 0 -11 -1 -15 -3 c -5 -1 -9 -4 -13 -7 c -4 -4 -8 -8 -11 -13 c -4 -5 -7 -10 -10 -15 l -120 -183 l 0 184 c 0 12 -3 21 -8 28 c -6 6 -13 9 -22 9 c -9 0 -16 -3 -22 -9 c -5 -7 -8 -16 -8 -28 l 0 -243 c 0 -10 1 -18 4 -24 c 2 -6 7 -12 13 -16 c 6 -4 13 -6 21 -6 c 5 0 10 1 14 3 c 4 2 8 4 11 8 c 3 3 6 7 9 12 c 4 5 7 10 11 16 z m 446 246 l -15 -40 l -128 0 l -15 41 c -6 15 -11 26 -15 32 c -4 5 -11 8 -20 8 c -8 0 -15 -3 -21 -9 c -7 -6 -10 -12 -10 -20 c 0 -4 1 -9 2 -13 c 2 -5 4 -11 8 -19 l 80 -205 c 2 -6 5 -13 8 -21 c 4 -8 7 -15 11 -20 c 3 -6 8 -10 14 -14 c 6 -3 13 -5 22 -5 c 9 0 16 2 22 5 c 6 4 11 8 15 13 c 3 6 6 11 9 17 c 2 7 6 15 10 25 l 82 203 c 6 15 9 27 9 34 c 0 7 -3 14 -9 20 c -6 6 -13 9 -22 9 c -5 0 -9 -1 -13 -3 c -3 -2 -6 -4 -9 -7 c -2 -3 -5 -8 -7 -14 c -3 -7 -6 -12 -8 -17 z m -126 -88 l 94 0 l -47 -129 l -47 129 z m 305 -158 l 0 110 l 126 -130 c 6 -7 11 -11 15 -14 c 4 -3 10 -5 17 -5 c 9 0 17 3 22 8 c 6 6 9 12 9 20 c 0 9 -5 19 -15 28 l -77 73 l 89 128 c 6 9 11 17 14 23 c 3 7 5 14 5 20 c 0 7 -3 13 -8 18 c -6 5 -13 8 -23 8 c -9 0 -16 -2 -21 -6 c -6 -4 -11 -9 -15 -15 c -4 -6 -7 -12 -10 -17 l -75 -116 l -53 50 l 0 65 c 0 13 -3 23 -9 29 c -6 7 -13 10 -23 10 c -5 0 -10 -2 -15 -4 c -6 -3 -9 -7 -12 -12 c -2 -4 -3 -9 -4 -14 c 0 -5 0 -13 0 -23 l 0 -234 c 0 -13 2 -23 8 -29 c 6 -6 13 -10 23 -10 c 10 0 18 3 23 10 c 6 6 9 16 9 29 z m 469 16 l -143 0 l 0 77 l 132 0 c 10 0 17 2 22 7 c 5 4 7 10 7 17 c 0 7 -2 13 -7 18 c -5 4 -12 6 -22 6 l -132 0 l 0 90 l 148 0 c 10 0 18 2 23 7 c 5 5 8 11 8 19 c 0 7 -3 13 -8 18 c -5 4 -13 7 -23 7 l -173 0 c -14 0 -24 -3 -30 -10 c -6 -6 -9 -16 -9 -29 l 0 -237 c 0 -10 1 -17 4 -23 c 3 -6 7 -10 13 -12 c 6 -3 13 -4 22 -4 l 168 0 c 11 0 18 2 23 6 c 5 5 7 11 7 18 c 0 8 -2 14 -7 18 c -5 5 -12 7 -23 7 z m 172 131 l -22 0 l 0 101 c 0 13 -3 23 -9 29 c -6 7 -14 10 -23 10 c -10 0 -18 -3 -24 -10 c -5 -7 -8 -16 -8 -29 l 0 -242 c 0 -14 3 -24 9 -30 c 6 -6 16 -9 30 -9 l 104 0 c 14 0 26 0 37 1 c 10 2 19 4 27 8 c 10 4 19 10 26 18 c 8 7 14 16 17 27 c 4 10 6 21 6 32 c 0 24 -6 42 -19 57 c -14 14 -34 24 -61 29 c 12 6 22 15 33 27 c 10 12 19 24 27 38 c 8 13 15 25 19 35 c 5 11 7 18 7 22 c 0 4 -1 9 -4 13 c -3 4 -6 7 -11 9 c -4 3 -10 4 -16 4 c -7 0 -13 -2 -18 -5 c -5 -4 -9 -8 -12 -13 c -4 -5 -9 -13 -15 -23 l -25 -42 c -9 -16 -18 -28 -25 -36 c -7 -8 -14 -14 -22 -17 c -7 -3 -17 -4 -28 -4 z m 37 -132 l -59 0 l 0 86 l 57 0 c 15 0 28 -1 39 -4 c 10 -2 18 -7 23 -13 c 6 -7 9 -15 9 -27 c 0 -8 -2 -16 -7 -23 c -4 -6 -10 -11 -18 -15 c -8 -3 -22 -4 -44 -4 z m -522 -1147 c 60 -59 156 -59 215 0 c 59 59 59 155 0 215 c -60 59 -156 59 -215 0 c -59 -59 -59 -155 0 -215 z m -482 -482 c 59 -59 60 -156 0 -215 c -59 -59 -155 -59 -214 1 c -60 59 -60 155 -1 214 c 60 60 156 59 215 0 z m -225 1190 c -59 59 -60 155 0 214 c 59 60 155 59 214 0 c 60 -59 60 -155 1 -215 c -60 -59 -156 -59 -215 1 z m -482 -483 c -60 60 -156 60 -215 1 c -59 -59 -59 -155 0 -215 c 60 -59 156 -59 215 0 c 59 59 59 155 0 214 z m 202 -40 l 106 107 c 24 24 24 64 0 88 l -149 148 c -50 51 -132 51 -182 0 l -12 -11 c -50 -51 -50 -133 0 -183 l 148 -149 c 25 -24 64 -24 89 0 z m 796 -702 l 12 12 c 50 50 50 133 0 183 c -127 127 -249 249 -376 376 c -22 22 -57 22 -79 0 c -59 -60 -119 -119 -178 -178 c 13 13 33 13 46 0 l 392 -393 c 51 -50 133 -50 183 0 z m -11 557 l -106 -106 c -24 -24 -24 -64 0 -88 l 149 -149 c 50 -50 132 -50 182 0 l 12 12 c 50 50 50 133 0 183 l -148 148 c -25 25 -64 25 -89 0 z m -796 703 l -12 -12 c -50 -51 -50 -133 0 -183 c 127 -127 249 -249 376 -376 c 22 -22 57 -22 79 0 c 59 59 119 118 178 178 c -13 -13 -33 -13 -46 0 l -392 393 c -51 50 -133 50 -183 0 z m 331 -1023 l -106 106 c -25 25 -64 25 -89 0 l -148 -148 c -50 -50 -50 -133 0 -183 l 12 -12 c 50 -50 132 -50 183 0 l 148 149 c 24 24 24 64 0 88 z m 702 797 l -12 11 c -50 51 -132 51 -182 0 c -127 -126 -250 -249 -376 -375 c -22 -22 -22 -58 0 -80 c 59 -59 118 -118 177 -177 c -12 12 -12 32 0 45 l 393 393 c 50 50 50 132 0 183 z m -1259 -808 l 12 -12 c 50 -50 132 -50 182 0 c 127 127 250 249 376 376 c 22 22 22 58 0 80 c -59 59 -118 118 -177 177 c 12 -12 12 -33 0 -45 l -393 -393 c -50 -50 -50 -133 0 -183 z" stroke-linecap="round"/>
</g>
</svg>