<svg xmlns="http://www.w3.org/2000/svg" xmlns:xlink="http://www.w3.org/1999/xlink" version="1.1" width="1000" height="1000" viewBox="0 0 1000 1000" xml:space="preserve">
<desc>Created with Fabric.js 3.5.0</desc>
<defs>
</defs>
<rect x="0" y="0" width="100%" height="100%" fill="rgba(255,255,255,0)"/>
<g transform="matrix(0.4144 0 0 0.4144 499.9544 499.9488)" id="925717">
<g style="" vector-effect="non-scaling-stroke">
		<g transform="matrix(1 0 0 1 0 0)" id="_2011356316816">
<rect style="stroke: none; stroke-width: 1; stroke-dasharray: none; stroke-linecap: butt; stroke-dashoffset: 0; stroke-linejoin: miter; stroke-miterlimit: 4; is-custom-font: none; font-file-url: none; fill: rgb(250,214,5); fill-rule: evenodd; opacity: 1;" x="-963" y="-1080" rx="0" ry="0" width="1926" height="2160"/>
</g>
		<g transform="matrix(1 0 0 1 0 0)" id="_2011356316816">
<path style="stroke: none; stroke-width: 1; stroke-dasharray: none; stroke-linecap: butt; stroke-dashoffset: 0; stroke-linejoin: miter; stroke-miterlimit: 4; is-custom-font: none; font-file-url: none; fill: rgb(37,24,90); fill-rule: evenodd; opacity: 1;" transform=" translate(-963, -1080)" d="M 0 0 l 1926 0 l 0 2160 l -1926 0 l 0 -2160 z m 61 66 l 1804 0 l 0 2028 l -1804 0 l 0 -2028 z" stroke-linecap="round"/>
</g>
		<g transform="matrix(1 0 0 1 0 0)" id="_2011356316816">
<path style="stroke: none; stroke-width: 1; stroke-dasharray: none; stroke-linecap: butt; stroke-dashoffset: 0; stroke-linejoin: miter; stroke-miterlimit: 4; is-custom-font: none; font-file-url: none; fill: rgb(37,24,90); fill-rule: evenodd; opacity: 1;" transform=" translate(-963, -1080)" d="M 121 2032 l 92 0 c -2 -15 -3 -31 -3 -47 c 0 -230 185 -417 413 -417 c 227 0 412 187 412 417 c 0 16 -1 32 -3 47 l 773 0 l 0 -629 l -100 0 c 2 15 3 29 3 44 c 0 187 -146 338 -326 338 c -179 0 -325 -151 -325 -338 l 0 -1319 l -678 0 l 0 128 c 295 0 535 246 535 549 c 0 304 -240 550 -535 550 l -258 0 l 0 677 z" stroke-linecap="round"/>
</g>
</g>
</g>
</svg>