<svg xmlns="http://www.w3.org/2000/svg" xmlns:xlink="http://www.w3.org/1999/xlink" version="1.1" width="1000" height="1000" viewBox="0 0 1000 1000" xml:space="preserve">
<desc>Created with Fabric.js 3.5.0</desc>
<defs>
</defs>
<rect x="0" y="0" width="100%" height="100%" fill="rgba(255,255,255,0)"/>
<g transform="matrix(1.0095 0 0 1.0095 499.9997 499.9995)" id="138774">
<g style="" vector-effect="non-scaling-stroke">
		<g transform="matrix(0.0378 0 0 0.0378 254.9584 -111.3531)" id="Telkom_x0020_Indonesia.cdr">
<path style="stroke: none; stroke-width: 1; stroke-dasharray: none; stroke-linecap: butt; stroke-dashoffset: 0; stroke-linejoin: miter; stroke-miterlimit: 4; is-custom-font: none; font-file-url: none; fill: rgb(254,254,254); fill-rule: nonzero; opacity: 1;" transform=" translate(-17245.5, -11903.5)" d="M 19082 14165 c 230 -426 360 -909 360 -1423 c 0 -1711 -1440 -3100 -3218 -3100 c -415 0 -812 76 -1175 215 c 36 309 105 619 202 923 c 243 -95 507 -147 787 -147 c 1143 0 2070 884 2070 1973 c 0 418 -136 806 -368 1125 c 415 202 873 347 1342 434 z" stroke-linecap="round"/>
</g>
		<g transform="matrix(0.0378 0 0 0.0378 233.5627 -100.8305)" id="Telkom_x0020_Indonesia.cdr">
<path style="stroke: none; stroke-width: 1; stroke-dasharray: none; stroke-linecap: butt; stroke-dashoffset: 0; stroke-linejoin: miter; stroke-miterlimit: 4; is-custom-font: none; font-file-url: none; fill: rgb(231,51,40); fill-rule: nonzero; opacity: 1;" transform=" translate(-16679.5, -12182)" d="M 16038 10633 c -280 0 -544 52 -787 147 c 326 1010 983 1955 1902 2606 c 181 129 379 243 587 345 c 232 -319 368 -707 368 -1125 c 0 -1089 -927 -1973 -2070 -1973 z" stroke-linecap="round"/>
</g>
		<g transform="matrix(0.0378 0 0 0.0378 325.4029 -174.4068)" id="Telkom_x0020_Indonesia.cdr">
<path style="stroke: none; stroke-width: 1; stroke-dasharray: none; stroke-linecap: butt; stroke-dashoffset: 0; stroke-linejoin: miter; stroke-miterlimit: 4; is-custom-font: none; font-file-url: none; fill: rgb(231,51,40); fill-rule: nonzero; opacity: 1;" transform=" translate(-19109.1078, -10234.9842)" d="M 20787 11708 c 760 -583 2679 -1842 2382 -2353 c -240 -411 -1290 86 -2474 730 c -931 508 -730 -105 -139 -1000 c 522 -787 1305 -1850 869 -2138 c -509 -335 -2067 1518 -2432 1884 c -364 365 -698 562 -515 -456 c 246 -1354 294 -2061 -11 -2147 c -37 -10 -74 -15 -109 -16 l -9 0 c -362 8 -635 571 -1211 1916 c -457 1067 -856 1256 -905 299 c -64 -1721 -501 -1326 -669 -1062 c -462 727 -619 1608 -515 2492 c 363 -139 760 -215 1175 -215 c 1778 0 3218 1389 3218 3100 c 0 514 -130 997 -360 1423 c 1015 186 2083 97 2889 -304 c 134 -67 460 -266 257 -542 c -405 -551 -1135 -262 -1915 -488 c -685 -198 -75 -704 474 -1123 z" stroke-linecap="round"/>
</g>
		<g transform="matrix(0.0378 0 0 0.0378 209.5514 -75.5764)" id="Telkom_x0020_Indonesia.cdr">
<path style="stroke: none; stroke-width: 1; stroke-dasharray: none; stroke-linecap: butt; stroke-dashoffset: 0; stroke-linejoin: miter; stroke-miterlimit: 4; is-custom-font: none; font-file-url: none; fill: rgb(117,116,117); fill-rule: nonzero; opacity: 1;" transform=" translate(-16044, -12850)" d="M 17740 13731 c -375 513 -997 850 -1702 850 c -1144 0 -2072 -884 -2072 -1975 c 0 -825 532 -1531 1285 -1826 c -97 -304 -166 -614 -202 -923 c -1196 452 -2043 1572 -2043 2885 c 0 1712 1441 3101 3218 3101 c 1244 0 2323 -682 2858 -1678 c -469 -87 -927 -232 -1342 -434 z" stroke-linecap="round"/>
</g>
		<g transform="matrix(0.0378 0 0 0.0378 -429.1593 -21.4793)" id="Telkom_x0020_Indonesia.cdr">
<path style="stroke: none; stroke-width: 1; stroke-dasharray: none; stroke-linecap: butt; stroke-dashoffset: 0; stroke-linejoin: miter; stroke-miterlimit: 4; is-custom-font: none; font-file-url: none; fill: rgb(0,0,0); fill-rule: nonzero; opacity: 1;" transform=" translate(855, -14281.5)" d="M 430 12954 c 0 -123 -107 -225 -233 -225 l -2105 0 c -125 0 -232 102 -232 225 c 0 121 104 221 232 221 l 808 0 l 0 2420 c 0 132 110 239 245 239 c 135 0 245 -107 245 -239 l 0 -2420 l 807 0 c 129 0 233 -100 233 -221 l 0 0 z" stroke-linecap="round"/>
</g>
		<g transform="matrix(0.0378 0 0 0.0378 -354.7033 -7.2699)" id="Telkom_x0020_Indonesia.cdr">
<path style="stroke: none; stroke-width: 1; stroke-dasharray: none; stroke-linecap: butt; stroke-dashoffset: 0; stroke-linejoin: miter; stroke-miterlimit: 4; is-custom-font: none; font-file-url: none; fill: rgb(0,0,0); fill-rule: nonzero; opacity: 1;" transform=" translate(-1115, -14657.5)" d="M 1124 13865 c 397 0 584 298 633 600 l -1279 0 c 67 -357 323 -600 646 -600 l 0 0 z m 9 -413 c -644 0 -1147 527 -1147 1201 l 0 9 c 0 685 512 1201 1190 1201 c 360 0 636 -108 894 -348 c 47 -40 75 -95 75 -156 c 0 -115 -99 -208 -220 -208 c -50 0 -96 17 -142 54 c -180 162 -370 236 -599 236 c -369 0 -638 -231 -706 -596 l 1538 0 c 126 0 228 -100 228 -222 c 0 -582 -382 -1171 -1111 -1171 l 0 0 z" stroke-linecap="round"/>
</g>
		<g transform="matrix(0.0378 0 0 0.0378 -291.5894 -24.2569)" id="Telkom_x0020_Indonesia.cdr">
<path style="stroke: none; stroke-width: 1; stroke-dasharray: none; stroke-linecap: butt; stroke-dashoffset: 0; stroke-linejoin: miter; stroke-miterlimit: 4; is-custom-font: none; font-file-url: none; fill: rgb(0,0,0); fill-rule: nonzero; opacity: 1;" transform=" translate(-2785, -14208)" d="M 2783 12582 c -131 0 -237 104 -237 233 l 0 2785 c 0 131 106 234 241 234 c 135 0 237 -102 237 -234 l 0 -2785 c 0 -129 -108 -233 -241 -233 l 0 0 z" stroke-linecap="round"/>
</g>
		<g transform="matrix(0.0378 0 0 0.0378 -227.0881 -24.2569)" id="Telkom_x0020_Indonesia.cdr">
<path style="stroke: none; stroke-width: 1; stroke-dasharray: none; stroke-linecap: butt; stroke-dashoffset: 0; stroke-linejoin: miter; stroke-miterlimit: 4; is-custom-font: none; font-file-url: none; fill: rgb(0,0,0); fill-rule: nonzero; opacity: 1;" transform=" translate(-4491.5, -14208)" d="M 4682 14528 l 685 -653 c 46 -44 87 -96 87 -176 c 0 -124 -98 -222 -224 -222 c -70 0 -129 27 -184 86 l -1087 1075 l 0 -1823 c 0 -129 -108 -233 -240 -233 c -130 0 -238 104 -238 233 l 0 2785 c 0 131 106 234 242 234 c 135 0 236 -102 236 -234 l 0 -388 l 385 -370 l 725 889 c 57 72 117 103 200 103 c 132 0 233 -96 233 -222 c 0 -57 -17 -100 -59 -153 l -761 -931 l 0 0 z" stroke-linecap="round"/>
</g>
		<g transform="matrix(0.0378 0 0 0.0378 -140.6493 -7.2699)" id="Telkom_x0020_Indonesia.cdr">
<path style="stroke: none; stroke-width: 1; stroke-dasharray: none; stroke-linecap: butt; stroke-dashoffset: 0; stroke-linejoin: miter; stroke-miterlimit: 4; is-custom-font: none; font-file-url: none; fill: rgb(0,0,0); fill-rule: nonzero; opacity: 1;" transform=" translate(-6778.5, -14657.5)" d="M 6025 14650 c 0 -440 322 -773 747 -773 c 426 0 761 343 761 780 l 0 9 c 0 437 -325 766 -752 766 c -423 0 -756 -340 -756 -775 l 0 -7 z m 756 -1198 c -697 0 -1242 529 -1242 1205 l 0 9 c 0 671 542 1197 1233 1197 c 699 0 1246 -529 1246 -1206 l 0 -7 c 0 -673 -544 -1198 -1237 -1198 l 0 0 z" stroke-linecap="round"/>
</g>
		<g transform="matrix(0.0378 0 0 0.0378 -16.1302 -7.818)" id="Telkom_x0020_Indonesia.cdr">
<path style="stroke: none; stroke-width: 1; stroke-dasharray: none; stroke-linecap: butt; stroke-dashoffset: 0; stroke-linejoin: miter; stroke-miterlimit: 4; is-custom-font: none; font-file-url: none; fill: rgb(0,0,0); fill-rule: nonzero; opacity: 1;" transform=" translate(-10073, -14643)" d="M 10939 13452 c -324 0 -581 122 -781 372 c -160 -241 -413 -372 -726 -372 c -311 0 -511 128 -651 276 l 0 -17 c 0 -131 -107 -234 -241 -234 c -132 0 -238 104 -238 234 l 0 1889 c 0 131 106 234 242 234 c 135 0 237 -102 237 -234 l 0 -1097 c 0 -358 231 -617 551 -617 c 321 0 505 211 505 578 l 0 1136 c 0 131 103 234 236 234 c 135 0 241 -103 241 -234 l 0 -1111 c 0 -360 219 -603 543 -603 c 328 0 509 208 509 587 l 0 1127 c 0 131 106 234 240 234 c 133 0 238 -103 238 -234 l 0 -1204 c 0 -583 -346 -944 -905 -944 l 0 0 z" stroke-linecap="round"/>
</g>
		<g transform="matrix(0.0378 0 0 0.0378 -389.1958 123.8814)" id="Telkom_x0020_Indonesia.cdr">
<path style="stroke: none; stroke-width: 1; stroke-dasharray: none; stroke-linecap: butt; stroke-dashoffset: 0; stroke-linejoin: miter; stroke-miterlimit: 4; is-custom-font: none; font-file-url: none; fill: rgb(0,0,0); fill-rule: nonzero; opacity: 1;" transform=" translate(-202.5, -18127.5)" d="M 201 16572 c -120 0 -222 100 -222 219 l 0 2673 c 0 118 102 219 222 219 c 124 0 225 -99 225 -219 l 0 -2673 c 0 -121 -101 -219 -225 -219 l 0 0 z" stroke-linecap="round"/>
</g>
		<g transform="matrix(0.0378 0 0 0.0378 -320.2156 138.0528)" id="Telkom_x0020_Indonesia.cdr">
<path style="stroke: none; stroke-width: 1; stroke-dasharray: none; stroke-linecap: butt; stroke-dashoffset: 0; stroke-linejoin: miter; stroke-miterlimit: 4; is-custom-font: none; font-file-url: none; fill: rgb(0,0,0); fill-rule: nonzero; opacity: 1;" transform=" translate(-2027.5, -18502.5)" d="M 2149 17322 c -299 0 -541 109 -722 323 l 0 -82 c 0 -121 -97 -214 -221 -214 c -119 0 -217 96 -217 214 l 0 1906 c 0 120 98 214 222 214 c 122 0 216 -93 216 -214 l 0 -1113 c 0 -375 258 -638 627 -638 c 365 0 574 223 574 613 l 0 1138 c 0 120 98 214 222 214 c 121 0 216 -94 216 -214 l 0 -1218 c 0 -564 -360 -929 -917 -929 l 0 0 z" stroke-linecap="round"/>
</g>
		<g transform="matrix(0.0378 0 0 0.0378 -224.2337 121.9353)" id="Telkom_x0020_Indonesia.cdr">
<path style="stroke: none; stroke-width: 1; stroke-dasharray: none; stroke-linecap: butt; stroke-dashoffset: 0; stroke-linejoin: miter; stroke-miterlimit: 4; is-custom-font: none; font-file-url: none; fill: rgb(0,0,0); fill-rule: nonzero; opacity: 1;" transform=" translate(-4567, -18076)" d="M 5334 18509 l 0 10 c 0 492 -398 798 -767 798 c -424 0 -745 -343 -745 -798 l 0 -10 c 0 -468 307 -795 745 -795 c 378 0 767 297 767 795 l 0 0 z m 203 -2065 c -123 0 -217 93 -217 214 l 0 1036 c -216 -246 -491 -372 -814 -372 c -548 0 -1130 418 -1130 1192 l 0 8 c 0 770 582 1186 1130 1186 c 325 0 593 -127 814 -389 l 0 150 c 0 120 98 214 221 214 c 122 0 217 -94 217 -214 l 0 -2811 c 0 -119 -96 -214 -221 -214 l 0 0 z" stroke-linecap="round"/>
</g>
		<g transform="matrix(0.0378 0 0 0.0378 -120.0698 138.6009)" id="Telkom_x0020_Indonesia.cdr">
<path style="stroke: none; stroke-width: 1; stroke-dasharray: none; stroke-linecap: butt; stroke-dashoffset: 0; stroke-linejoin: miter; stroke-miterlimit: 4; is-custom-font: none; font-file-url: none; fill: rgb(0,0,0); fill-rule: nonzero; opacity: 1;" transform=" translate(-7323, -18517)" d="M 6541 18509 c 0 -455 334 -799 776 -799 c 442 0 787 354 787 809 l 0 8 c 0 452 -335 794 -778 794 c -440 0 -785 -353 -785 -802 l 0 -10 z m 785 -1187 c -691 0 -1231 525 -1231 1197 l 0 8 c 0 664 537 1185 1222 1185 c 691 0 1234 -524 1234 -1193 l 0 -10 c 0 -665 -539 -1187 -1225 -1187 l 0 0 z" stroke-linecap="round"/>
</g>
		<g transform="matrix(0.0378 0 0 0.0378 -21.8597 138.0528)" id="Telkom_x0020_Indonesia.cdr">
<path style="stroke: none; stroke-width: 1; stroke-dasharray: none; stroke-linecap: butt; stroke-dashoffset: 0; stroke-linejoin: miter; stroke-miterlimit: 4; is-custom-font: none; font-file-url: none; fill: rgb(0,0,0); fill-rule: nonzero; opacity: 1;" transform=" translate(-9921.5, -18502.5)" d="M 10043 17322 c -298 0 -541 109 -723 323 l 0 -82 c 0 -121 -96 -214 -221 -214 c -119 0 -216 96 -216 214 l 0 1906 c 0 120 97 214 221 214 c 124 0 216 -93 216 -214 l 0 -1113 c 0 -375 258 -638 628 -638 c 365 0 574 223 574 613 l 0 1138 c 0 120 97 214 221 214 c 122 0 217 -94 217 -214 l 0 -1218 c 0 -564 -361 -929 -917 -929 l 0 0 z" stroke-linecap="round"/>
</g>
		<g transform="matrix(0.0378 0 0 0.0378 71.0037 138.6009)" id="Telkom_x0020_Indonesia.cdr">
<path style="stroke: none; stroke-width: 1; stroke-dasharray: none; stroke-linecap: butt; stroke-dashoffset: 0; stroke-linejoin: miter; stroke-miterlimit: 4; is-custom-font: none; font-file-url: none; fill: rgb(0,0,0); fill-rule: nonzero; opacity: 1;" transform=" translate(-12378.5, -18517)" d="M 11710 18346 c 60 -386 332 -648 677 -648 c 425 0 620 324 665 648 l -1342 0 l 0 0 z m 685 -1024 c -636 0 -1133 524 -1133 1192 l 0 8 c 0 679 505 1190 1177 1190 c 358 0 631 -105 888 -344 c 43 -37 67 -88 67 -142 c 0 -104 -88 -189 -199 -189 c -44 0 -87 16 -128 49 c -186 167 -383 244 -620 244 c -386 0 -676 -257 -737 -645 l 1577 0 c 114 0 208 -90 208 -202 c 0 -576 -377 -1161 -1100 -1161 l 0 0 z" stroke-linecap="round"/>
</g>
		<g transform="matrix(0.0378 0 0 0.0378 152.9996 138.6198)" id="Telkom_x0020_Indonesia.cdr">
<path style="stroke: none; stroke-width: 1; stroke-dasharray: none; stroke-linecap: butt; stroke-dashoffset: 0; stroke-linejoin: miter; stroke-miterlimit: 4; is-custom-font: none; font-file-url: none; fill: rgb(0,0,0); fill-rule: nonzero; opacity: 1;" transform=" translate(-14548, -18517.5)" d="M 14705 18313 l -8 -2 c -277 -82 -537 -159 -537 -329 l 0 -8 c 0 -160 155 -269 386 -269 c 177 0 372 57 565 163 c 19 10 55 23 100 23 c 110 0 198 -84 198 -188 c 0 -72 -39 -138 -107 -178 c -236 -124 -507 -193 -747 -193 c -483 0 -820 278 -820 677 l 0 8 c 0 450 454 576 784 666 c 299 82 527 159 527 339 l 0 9 c 0 179 -167 299 -417 299 c -230 0 -462 -76 -688 -225 c -27 -22 -68 -34 -112 -34 c -109 0 -199 84 -199 189 c 0 74 43 131 83 159 c 256 178 592 284 898 284 c 512 0 855 -283 855 -706 l 0 -8 c 0 -454 -458 -588 -761 -676 l 0 0 z" stroke-linecap="round"/>
</g>
		<g transform="matrix(0.0378 0 0 0.0378 210.3506 138.563)" id="Telkom_x0020_Indonesia.cdr">
<path style="stroke: none; stroke-width: 1; stroke-dasharray: none; stroke-linecap: butt; stroke-dashoffset: 0; stroke-linejoin: miter; stroke-miterlimit: 4; is-custom-font: none; font-file-url: none; fill: rgb(0,0,0); fill-rule: nonzero; opacity: 1;" transform=" translate(-16065.5, -18516)" d="M 16063 17349 c -119 0 -216 96 -216 214 l 0 1906 c 0 120 97 214 220 214 c 124 0 217 -93 217 -214 l 0 -1906 c 0 -121 -97 -214 -221 -214 l 0 0 z" stroke-linecap="round"/>
</g>
		<g transform="matrix(0.0378 0 0 0.0378 270.6758 138.8654)" id="Telkom_x0020_Indonesia.cdr">
<path style="stroke: none; stroke-width: 1; stroke-dasharray: none; stroke-linecap: butt; stroke-dashoffset: 0; stroke-linejoin: miter; stroke-miterlimit: 4; is-custom-font: none; font-file-url: none; fill: rgb(0,0,0); fill-rule: nonzero; opacity: 1;" transform=" translate(-17661.5, -18524)" d="M 18285 18631 l 0 175 c 0 311 -303 546 -706 546 c -249 0 -517 -123 -517 -389 l 0 -8 c 0 -254 227 -405 609 -405 c 206 0 408 26 614 81 l 0 0 z m 173 -1034 c -174 -170 -432 -257 -765 -257 c -274 0 -507 46 -759 152 c -57 23 -121 89 -121 181 c 0 102 90 190 198 190 c 25 0 53 -7 80 -17 c 186 -80 371 -120 567 -120 c 284 0 621 96 621 550 l 0 12 c -166 -43 -363 -78 -642 -78 c -627 0 -1018 290 -1018 757 l 0 10 c 0 480 450 731 895 731 c 368 0 611 -145 765 -296 l 0 69 c 0 116 93 202 214 202 c 121 0 211 -91 211 -211 l 0 -1200 c 0 -290 -82 -517 -246 -675 l 0 0 z" stroke-linecap="round"/>
</g>
		<g transform="matrix(0.0378 0 0 0.0378 -468.9435 295.9964)" id="Telkom_x0020_Indonesia.cdr">
<path style="stroke: none; stroke-width: 1; stroke-dasharray: none; stroke-linecap: butt; stroke-dashoffset: 0; stroke-linejoin: miter; stroke-miterlimit: 4; is-custom-font: none; font-file-url: none; fill: rgb(0,0,0); fill-rule: nonzero; opacity: 1;" transform=" translate(1907.5, -22681.5)" d="M -1984 23242 c -133 0 -216 -68 -216 -178 c 0 -28 4 -61 12 -90 l 124 -467 l -114 0 l 37 -136 l 116 0 l 66 -250 l 151 0 l -67 250 l 260 0 l -35 136 l -261 0 l -126 467 c -3 25 -5 45 -5 57 c 0 48 33 72 99 72 c 35 0 71 -8 116 -25 l 26 -10 l -41 145 l -6 3 c -45 18 -87 26 -136 26 z" stroke-linecap="round"/>
</g>
		<g transform="matrix(0.0378 0 0 0.0378 -442.5428 293.9745)" id="Telkom_x0020_Indonesia.cdr">
<path style="stroke: none; stroke-width: 1; stroke-dasharray: none; stroke-linecap: butt; stroke-dashoffset: 0; stroke-linejoin: miter; stroke-miterlimit: 4; is-custom-font: none; font-file-url: none; fill: rgb(0,0,0); fill-rule: nonzero; opacity: 1;" transform=" translate(1209, -22628)" d="M -909 23227 l -152 0 l 130 -488 c 7 -25 12 -62 12 -89 c 0 -99 -64 -159 -172 -159 c -125 0 -245 108 -285 257 l -128 479 l -152 0 l 5 -18 l 316 -1180 l 151 0 l -117 440 c 61 -60 144 -116 260 -116 c 169 0 279 106 279 270 c 0 43 -12 93 -22 132 l -125 472 z" stroke-linecap="round"/>
</g>
		<g transform="matrix(0.0378 0 0 0.0378 -404.5965 300.4557)" id="Telkom_x0020_Indonesia.cdr">
<path style="stroke: none; stroke-width: 1; stroke-dasharray: none; stroke-linecap: butt; stroke-dashoffset: 0; stroke-linejoin: miter; stroke-miterlimit: 4; is-custom-font: none; font-file-url: none; fill: rgb(0,0,0); fill-rule: nonzero; opacity: 1;" transform=" translate(205, -22799.5)" d="M -445 22733 l 502 0 c 2 -13 4 -28 4 -49 c 0 -96 -51 -199 -192 -199 c -140 0 -261 97 -314 248 z m 205 513 c -227 0 -380 -147 -380 -366 c 0 -249 203 -527 496 -527 c 231 0 334 167 334 331 c 0 56 -11 112 -32 167 l -3 9 l -645 0 c 0 5 0 10 0 15 c 0 143 92 236 236 236 c 113 0 185 -45 246 -94 l 11 -9 l 82 102 l -10 9 c -71 59 -173 127 -335 127 z" stroke-linecap="round"/>
</g>
		<g transform="matrix(0.0378 0 0 0.0378 -339.3607 300.5123)" id="Telkom_x0020_Indonesia.cdr">
<polygon style="stroke: none; stroke-width: 1; stroke-dasharray: none; stroke-linecap: butt; stroke-dashoffset: 0; stroke-linejoin: miter; stroke-miterlimit: 4; is-custom-font: none; font-file-url: none; fill: rgb(0,0,0); fill-rule: nonzero; opacity: 1;" points="110,433 -20,433 -65,-191 -445,433 -574,433 -643,-430 -487,-430 -447,198 -66,-433 58,-433 102,198 481,-430 643,-430 "/>
</g>
		<g transform="matrix(0.0378 0 0 0.0378 -299.1097 300.4557)" id="Telkom_x0020_Indonesia.cdr">
<path style="stroke: none; stroke-width: 1; stroke-dasharray: none; stroke-linecap: butt; stroke-dashoffset: 0; stroke-linejoin: miter; stroke-miterlimit: 4; is-custom-font: none; font-file-url: none; fill: rgb(0,0,0); fill-rule: nonzero; opacity: 1;" transform=" translate(-2586, -22799.5)" d="M 2633 22490 c -178 0 -341 175 -341 368 c 0 154 94 250 246 250 c 178 0 341 -175 341 -367 c 0 -155 -94 -251 -246 -251 z m -102 756 c -230 0 -391 -159 -391 -386 c 0 -270 234 -507 501 -507 c 230 0 391 158 391 384 c 0 271 -234 509 -501 509 z" stroke-linecap="round"/>
</g>
		<g transform="matrix(0.0378 0 0 0.0378 -265.8503 300.1532)" id="Telkom_x0020_Indonesia.cdr">
<path style="stroke: none; stroke-width: 1; stroke-dasharray: none; stroke-linecap: butt; stroke-dashoffset: 0; stroke-linejoin: miter; stroke-miterlimit: 4; is-custom-font: none; font-file-url: none; fill: rgb(0,0,0); fill-rule: nonzero; opacity: 1;" transform=" translate(-3466, -22791.5)" d="M 3259 23227 l -152 0 l 228 -856 l 152 0 l -43 166 c 100 -120 214 -181 338 -181 c 9 0 17 0 26 1 l 17 1 l -42 160 l -19 0 c -193 0 -355 146 -414 371 l -91 338 z" stroke-linecap="round"/>
</g>
		<g transform="matrix(0.0378 0 0 0.0378 -245.7249 293.9745)" id="Telkom_x0020_Indonesia.cdr">
<polygon style="stroke: none; stroke-width: 1; stroke-dasharray: none; stroke-linecap: butt; stroke-dashoffset: 0; stroke-linejoin: miter; stroke-miterlimit: 4; is-custom-font: none; font-file-url: none; fill: rgb(0,0,0); fill-rule: nonzero; opacity: 1;" points="-84.5,599 -236.5,599 85.5,-599 236.5,-599 231.5,-581 "/>
</g>
		<g transform="matrix(0.0378 0 0 0.0378 -216.6967 294.3336)" id="Telkom_x0020_Indonesia.cdr">
<path style="stroke: none; stroke-width: 1; stroke-dasharray: none; stroke-linecap: butt; stroke-dashoffset: 0; stroke-linejoin: miter; stroke-miterlimit: 4; is-custom-font: none; font-file-url: none; fill: rgb(0,0,0); fill-rule: nonzero; opacity: 1;" transform=" translate(-4766.5, -22637.5)" d="M 4720 22490 c -183 0 -332 170 -332 380 c 0 143 89 239 221 239 c 179 0 354 -187 354 -377 c 0 -140 -102 -242 -243 -242 z m -147 756 c -198 0 -342 -153 -342 -364 c 0 -287 219 -529 478 -529 c 178 0 265 100 307 179 l 134 -503 l 152 0 l -319 1198 l -153 0 l 28 -105 c -87 83 -180 124 -285 124 z" stroke-linecap="round"/>
</g>
		<g transform="matrix(0.0378 0 0 0.0378 -171.6461 294.428)" id="Telkom_x0020_Indonesia.cdr">
<path style="stroke: none; stroke-width: 1; stroke-dasharray: none; stroke-linecap: butt; stroke-dashoffset: 0; stroke-linejoin: miter; stroke-miterlimit: 4; is-custom-font: none; font-file-url: none; fill: rgb(0,0,0); fill-rule: nonzero; opacity: 1;" transform=" translate(-5958.5, -22640)" d="M 6152 22218 l -170 0 l 45 -165 l 170 0 l -45 165 z m -281 1009 l -151 0 l 230 -856 l 152 0 l -231 856 z" stroke-linecap="round"/>
</g>
		<g transform="matrix(0.0378 0 0 0.0378 -148.2121 300.0966)" id="Telkom_x0020_Indonesia.cdr">
<path style="stroke: none; stroke-width: 1; stroke-dasharray: none; stroke-linecap: butt; stroke-dashoffset: 0; stroke-linejoin: miter; stroke-miterlimit: 4; is-custom-font: none; font-file-url: none; fill: rgb(0,0,0); fill-rule: nonzero; opacity: 1;" transform=" translate(-6578.5, -22790)" d="M 6879 23227 l -152 0 l 131 -488 c 6 -26 11 -62 11 -89 c 0 -101 -63 -159 -172 -159 c -124 0 -245 108 -286 257 l -127 479 l -152 0 l 228 -856 l 153 0 l -27 98 c 64 -62 146 -116 262 -116 c 169 0 277 106 277 270 c 0 42 -11 90 -21 132 l -125 472 z" stroke-linecap="round"/>
</g>
		<g transform="matrix(0.0378 0 0 0.0378 -94.0509 305.3696)" id="Telkom_x0020_Indonesia.cdr">
<path style="stroke: none; stroke-width: 1; stroke-dasharray: none; stroke-linecap: butt; stroke-dashoffset: 0; stroke-linejoin: miter; stroke-miterlimit: 4; is-custom-font: none; font-file-url: none; fill: rgb(0,0,0); fill-rule: nonzero; opacity: 1;" transform=" translate(-8011.5, -22929.5)" d="M 7646 23488 c -69 0 -129 -19 -190 -60 l -12 -8 l 86 -116 l 11 9 c 26 21 79 38 118 38 c 70 0 128 -42 201 -143 l -153 -837 l 157 0 l 112 666 l 429 -666 l 174 0 l -582 877 c -116 170 -218 240 -351 240 z" stroke-linecap="round"/>
</g>
		<g transform="matrix(0.0378 0 0 0.0378 -57.3144 300.4557)" id="Telkom_x0020_Indonesia.cdr">
<path style="stroke: none; stroke-width: 1; stroke-dasharray: none; stroke-linecap: butt; stroke-dashoffset: 0; stroke-linejoin: miter; stroke-miterlimit: 4; is-custom-font: none; font-file-url: none; fill: rgb(0,0,0); fill-rule: nonzero; opacity: 1;" transform=" translate(-8983.5, -22799.5)" d="M 9030 22490 c -177 0 -340 175 -340 368 c 0 154 95 250 246 250 c 178 0 340 -175 340 -367 c 0 -155 -94 -251 -246 -251 z m -102 756 c -230 0 -391 -159 -391 -386 c 0 -270 234 -507 501 -507 c 231 0 392 158 392 384 c 0 271 -235 509 -502 509 z" stroke-linecap="round"/>
</g>
		<g transform="matrix(0.0378 0 0 0.0378 -18.1207 300.758)" id="Telkom_x0020_Indonesia.cdr">
<path style="stroke: none; stroke-width: 1; stroke-dasharray: none; stroke-linecap: butt; stroke-dashoffset: 0; stroke-linejoin: miter; stroke-miterlimit: 4; is-custom-font: none; font-file-url: none; fill: rgb(0,0,0); fill-rule: nonzero; opacity: 1;" transform=" translate(-10020.5, -22807.5)" d="M 9851 23244 c -168 0 -277 -106 -277 -270 c 0 -34 7 -77 21 -131 l 125 -472 l 152 0 l -132 486 c -6 29 -10 66 -10 89 c 0 101 64 161 170 161 c 125 0 248 -112 285 -260 l 130 -476 l 152 0 l -230 856 l -151 0 l 26 -99 c -61 60 -144 116 -261 116 z" stroke-linecap="round"/>
</g>
		<g transform="matrix(0.0378 0 0 0.0378 13.06 300.1557)" id="Telkom_x0020_Indonesia.cdr">
<path style="stroke: none; stroke-width: 1; stroke-dasharray: none; stroke-linecap: butt; stroke-dashoffset: 0; stroke-linejoin: miter; stroke-miterlimit: 4; is-custom-font: none; font-file-url: none; fill: rgb(0,0,0); fill-rule: nonzero; opacity: 1;" transform=" translate(-10845.5, -22791.5657)" d="M 10639 23227 l -153 0 l 228 -856 l 152 0 l -42 166 c 106 -128 227 -189 364 -180 l 17 1 l -42 160 l -20 0 c -192 0 -355 146 -414 372 l -90 337 z" stroke-linecap="round"/>
</g>
		<g transform="matrix(0.0378 0 0 0.0378 58.8872 293.9745)" id="Telkom_x0020_Indonesia.cdr">
<path style="stroke: none; stroke-width: 1; stroke-dasharray: none; stroke-linecap: butt; stroke-dashoffset: 0; stroke-linejoin: miter; stroke-miterlimit: 4; is-custom-font: none; font-file-url: none; fill: rgb(0,0,0); fill-rule: nonzero; opacity: 1;" transform=" translate(-12058, -22628)" d="M 12359 23227 l -152 0 l 129 -488 c 8 -24 13 -60 13 -89 c 0 -99 -64 -159 -172 -159 c -125 0 -245 108 -286 257 l -128 479 l -152 0 l 5 -18 l 316 -1180 l 152 0 l -118 440 c 63 -62 144 -116 260 -116 c 170 0 279 106 279 270 c 0 43 -11 93 -21 132 l -125 472 z" stroke-linecap="round"/>
</g>
		<g transform="matrix(0.0378 0 0 0.0378 95.0193 300.5312)" id="Telkom_x0020_Indonesia.cdr">
<path style="stroke: none; stroke-width: 1; stroke-dasharray: none; stroke-linecap: butt; stroke-dashoffset: 0; stroke-linejoin: miter; stroke-miterlimit: 4; is-custom-font: none; font-file-url: none; fill: rgb(0,0,0); fill-rule: nonzero; opacity: 1;" transform=" translate(-13014, -22801.5)" d="M 12987 22807 c -137 0 -232 74 -232 180 c 0 81 61 131 160 131 c 140 0 274 -100 311 -233 l 12 -45 c -60 -16 -148 -33 -251 -33 z m -112 437 c -162 0 -275 -100 -275 -243 c 0 -187 154 -313 383 -313 c 86 0 179 13 283 41 l 2 -7 c 6 -23 10 -52 10 -72 c 0 -127 -113 -153 -209 -153 c -76 0 -145 13 -229 43 l -15 6 l -28 -132 l 11 -4 c 92 -36 179 -51 280 -51 c 213 0 340 101 340 270 c 0 33 -6 74 -17 117 l -128 481 l -151 0 l 25 -95 c -79 74 -174 112 -282 112 z" stroke-linecap="round"/>
</g>
		<g transform="matrix(0.0378 0 0 0.0378 130.8683 300.0966)" id="Telkom_x0020_Indonesia.cdr">
<path style="stroke: none; stroke-width: 1; stroke-dasharray: none; stroke-linecap: butt; stroke-dashoffset: 0; stroke-linejoin: miter; stroke-miterlimit: 4; is-custom-font: none; font-file-url: none; fill: rgb(0,0,0); fill-rule: nonzero; opacity: 1;" transform=" translate(-13962.5, -22790)" d="M 14263 23227 l -151 0 l 129 -488 c 8 -24 12 -61 12 -89 c 0 -99 -64 -159 -171 -159 c -124 0 -244 108 -287 257 l -127 479 l -152 0 l 228 -856 l 152 0 l -26 98 c 62 -60 145 -116 261 -116 c 169 0 278 106 278 270 c 0 35 -7 77 -21 132 l -125 472 z" stroke-linecap="round"/>
</g>
		<g transform="matrix(0.0378 0 0 0.0378 173.5017 294.3336)" id="Telkom_x0020_Indonesia.cdr">
<path style="stroke: none; stroke-width: 1; stroke-dasharray: none; stroke-linecap: butt; stroke-dashoffset: 0; stroke-linejoin: miter; stroke-miterlimit: 4; is-custom-font: none; font-file-url: none; fill: rgb(0,0,0); fill-rule: nonzero; opacity: 1;" transform=" translate(-15090.5, -22637.5)" d="M 15045 22490 c -183 0 -332 170 -332 380 c 0 145 86 239 219 239 c 179 0 355 -187 355 -377 c 0 -140 -102 -242 -242 -242 z m -148 756 c -198 0 -342 -153 -342 -364 c 0 -287 219 -529 478 -529 c 138 0 246 63 307 179 l 135 -503 l 151 0 l -320 1198 l -151 0 l 27 -106 c -86 84 -180 125 -285 125 z" stroke-linecap="round"/>
</g>
</g>
</g>
</svg>