<svg fill="none" xmlns="http://www.w3.org/2000/svg" viewBox="0 0 48 48"><path fill-rule="evenodd" clip-rule="evenodd" d="M33.46 10.06c-1.023 4.08-1.25 6.007-2.047 9.067-.682 2.946-1.251 5.553-2.275 6.8-1.024 1.246-2.275 1.586-3.185 1.7h-1.82c-1.023 0-1.365 0-1.82-.114-.91-.113-2.16-.453-3.184-1.7-1.024-1.246-1.48-3.966-2.276-6.8-.682-2.946-1.137-4.873-2.047-9.066 0 0-.91 0-1.365.113-.569 0-1.024 0-1.479.113 0 0 .57 8.5.797 12.014.227 3.74.682 10.086 1.137 14.96 0 0 .796.113 2.048.113 1.25.113 1.933.227 1.933.227.569-2.04 1.252-5.1 2.048-6.347.682-1.02 1.592-1.133 2.16-1.247 1.025.114 1.82 0 2.048 0 .342 0 1.024 0 1.934.114.569.113 1.479.113 2.161 1.246.796 1.247 1.479 4.194 2.048 6.347 0 0 .568 0 1.933-.113 1.252-.114 2.048-.114 2.048-.114.455-4.873.91-11.22 1.137-14.96.228-3.626.797-12.013.797-12.013-.455-.113-.91-.113-1.48-.113-.227-.227-1.25-.227-1.25-.227Z" fill="#E6E6E6"/><path fill-rule="evenodd" clip-rule="evenodd" d="M4 20.116c.001-1.888.013-3.646.114-4.956.569-5.667 4.095-6.8 7.28-7.367 1.706-.34 4.436-.566 6.256-.68.788 0 2.22-.032 3.56-.062A174.182 174.182 0 0 1 24.09 7c.532 0 1.634.025 2.81.051 1.339.03 2.772.062 3.56.062 1.82.114 4.55.34 6.256.68 3.185.567 6.711 1.7 7.28 7.367.101 1.31.112 3.068.114 4.955v.712l-.003.091a61.044 61.044 0 0 1-.33 5.881l-.048.638c-.028.36-.053.687-.074.983-.114 1.133-.569 4.533-1.138 6.233-.796 2.38-1.479 3.174-2.388 3.854-1.4 1.18-3.82 1.65-4.556 1.792l-.108.021c-2.958.567-8.759.68-11.261.68h-.298c-2.503 0-8.304-.113-11.261-.68l-.108-.021c-.737-.143-3.156-.612-4.556-1.792-.91-.68-1.592-1.474-2.389-3.854-.568-1.7-1.023-5.1-1.137-6.233a199.462 199.462 0 0 0-.123-1.621A61.04 61.04 0 0 1 4 20.827v-.711Zm4.067-8.995c-.928.952-1.448 2.264-1.678 4.039-.228 2.38-.228 6.8-.114 9.407.341 4.533.682 7.14 1.251 9.066.455 1.7 1.024 2.834 1.934 3.627 1.365 1.36 3.412 1.7 4.55 1.813 2.482.45 6.756.565 10.045.567 3.288-.002 7.562-.117 10.045-.567 1.137-.113 3.185-.453 4.55-1.813.91-.793 1.479-1.927 1.934-3.627.568-1.926.91-4.533 1.25-9.066.114-2.607.114-7.027-.113-9.407-.23-1.775-.75-3.087-1.678-4.039-.56-.565-1.257-1.003-2.108-1.335a10.83 10.83 0 0 0-1.901-.52c-.1-.022-.204-.045-.311-.067-1.66-.303-3.766-.507-5.675-.612-.883 0-2.072-.03-3.218-.06-1.05-.027-2.064-.053-2.775-.054-.712.001-1.725.027-2.775.054-1.146.03-2.335.06-3.218.06-1.91.105-4.016.31-5.675.612-.107.022-.21.045-.31.068-.71.132-1.341.303-1.902.52-.851.331-1.549.77-2.108 1.334Z" fill="#E6E6E6"/></svg>