<svg fill="none" xmlns="http://www.w3.org/2000/svg" viewBox="0 0 48 48"><g clip-path="url(#hyundai__a)"><path fill-rule="evenodd" clip-rule="evenodd" d="M28.953 26.73c.365 1.847-.622 3.381-1.442 4.87-.912 1.385-2.415 2.576-4.222 2.398a43.636 43.636 0 0 1-11.695-1.758.722.722 0 0 1-.425-.298c-.076-.209.031-.402.183-.536 3.356-2.666 7.35-3.901 11.299-5.198 1.473-.416 3.038-.863 4.693-.655.682.09 1.366.552 1.61 1.177Zm13.835-7.893c1.884 1.52 3.585 3.59 3.008 6.092-.942 3.693-5.042 5.659-8.308 6.91-1.777.58-3.569 1.177-5.512 1.355-.122-.015-.32.015-.35-.164l.045-.208c2.764-3.053 4.86-6.478 6.698-9.948a81.442 81.442 0 0 0 2.37-4.751.774.774 0 0 1 .334-.223c.682.059 1.169.58 1.715.938Zm-26.501-3.931-.061.223c-3.994 4.453-6.621 9.62-9.112 14.758-.486.447-.957-.149-1.397-.343-2.218-1.429-4.222-3.738-3.645-6.477.926-3.574 4.677-5.48 7.806-6.776 1.853-.685 3.782-1.236 5.817-1.549.213 0 .486-.03.592.164Zm19.82.714c.227.12.5.164.637.387.122.254-.121.417-.258.581-3.144 2.413-6.743 3.753-10.418 4.93-1.869.447-3.752 1.251-5.832.804a1.93 1.93 0 0 1-1.2-.894c-.517-1.4.182-2.859.79-4.08.804-1.534 2.232-3.336 4.206-3.365 4.253-.03 8.262.595 12.074 1.637Zm5.254.12c3.22 1.727 6.865 4.765 6.485 8.816-.44 3.753-4.01 6.374-7.198 7.953-9.31 4.363-22.386 4.497-32 .685-3.25-1.325-6.895-3.604-8.262-7.03-1.048-2.814.227-5.748 2.37-7.699 4.48-3.991 10.19-5.36 16.067-6.15 6.38-.76 13.091-.09 18.802 1.831 1.276.462 2.536.969 3.736 1.594Z" fill="#E6E6E6"/></g><defs><clipPath id="hyundai__a"><path fill="#fff" transform="translate(0 12)" d="M0 0h48v24H0z"/></clipPath></defs></svg>