<svg fill="none" xmlns="http://www.w3.org/2000/svg" viewBox="0 0 48 48"><path fill-rule="evenodd" clip-rule="evenodd" d="M22.558 37.474c-2.411-1.513-4.188-6.732-4.188-12.934 0-.227.002-.451.006-.676l.003.004C11.671 22.812 6.824 19.92 6.7 16.5l-.02.04c-1.64 2.042-2.578 4.403-2.578 6.919 0 7.403 8.118 13.469 18.414 14.005l.043.008ZM1 24C1 15.716 11.297 9 24 9s23 6.716 23 15c0 8.283-10.298 15-23 15-12.703 0-23-6.717-23-15Zm23-12.835c2.452 0 4.538 3.724 5.31 8.92l.004-.008c4.77-.744 8.11-2.459 8.11-4.454 0-2.679-6.01-4.847-13.424-4.847s-13.425 2.168-13.425 4.847c0 1.996 3.34 3.71 8.111 4.454l.003.008c.773-5.196 2.86-8.92 5.311-8.92Zm1.485 26.3c10.296-.536 18.414-6.602 18.414-14.005 0-2.516-.938-4.877-2.579-6.92l-.02-.039c-.124 3.42-4.97 6.31-11.68 7.366l.004-.003c.004.224.007.449.007.676 0 6.202-1.779 11.42-4.189 12.933l.043-.008ZM24 20.471c1.099 0 2.167-.047 3.189-.137l-.002.002c-.509-3.331-1.744-5.682-3.187-5.682-1.444 0-2.679 2.35-3.188 5.681l-.002-.001c1.022.09 2.09.137 3.19.137Zm0 12.335c1.846 0 3.352-3.847 3.433-8.67l.01.003a37.361 37.361 0 0 1-3.443.157c-1.18 0-2.33-.054-3.442-.157l.01-.004c.08 4.824 1.585 8.67 3.432 8.67Z" fill="#E6E6E6"/></svg>